<?xml version="1.0" encoding="utf-8"?>
<!-- Generator: Adobe Illustrator 27.0.0, SVG Export Plug-In . SVG Version: 6.00 Build 0)  -->
<svg version="1.1" xmlns="http://www.w3.org/2000/svg" xmlns:xlink="http://www.w3.org/1999/xlink" x="0px" y="0px"
	 viewBox="0 0 3025.54 1020.99" style="enable-background:new 0 0 3025.54 1020.99;" xml:space="preserve">
<style type="text/css">
	.st0{fill:#FFFFFF;}
	.st1{fill:#27262B;}
	.st2{fill:none;}
	.st3{fill:#FFA912;}
	.st4{fill:#00BA12;}
	.st5{fill:#3DD358;}
</style>
<g id="Layer_2">
	<rect class="st0" width="3025.54" height="1020.99"/>
</g>
<g id="Layer_1">
	<g>
		<g>
			<path class="st1" d="M928.57,549.07h-62.7v132.52h-31.13V370.75h93.83c72.04,0,104.95,38.24,104.95,89.38
				C1033.52,510.38,1001.5,549.07,928.57,549.07z M928.57,522.39c52.47,0,72.93-24.02,72.93-62.26c0-40.03-20.46-63.15-72.93-63.15
				h-62.7v125.41H928.57z"/>
			<path class="st1" d="M1253.68,438.79h32.01l-144.08,357.09h-32.47l47.14-115.62l-99.61-241.47h34.24l82.72,207.23L1253.68,438.79
				z"/>
			<path class="st1" d="M1501.21,542.85c0-53.81-29.34-81.38-73.81-81.38c-45.36,0-76.94,28.46-76.94,87.61v132.52h-31.13v-242.8
				h31.13v41.35c15.56-30.23,46.69-45.8,82.72-45.8c55.14,0,98.73,33.8,98.73,104.95v142.3h-30.69V542.85z"/>
			<path class="st1" d="M1680.46,435.23c48.91,0,82.27,26.23,96.05,56.92v-53.36h31.13v242.8h-31.13v-53.81
				c-14.22,31.13-48.03,57.37-96.49,57.37c-66.26,0-115.63-49.36-115.63-125.41S1613.75,435.23,1680.46,435.23z M1686.24,462.36
				c-51.14,0-90.28,35.57-90.28,97.39c0,61.37,39.14,98.28,90.28,98.28c49.8,0,90.27-37.35,90.27-97.83
				C1776.51,499.71,1736.04,462.36,1686.24,462.36z"/>
			<path class="st1" d="M1982.54,435.23c66.26,0,115.62,48.47,115.62,124.51s-49.36,125.41-115.62,125.41
				c-48.48,0-82.27-26.68-96.51-56.92v168.09h-30.68V438.79h30.68v53.36C1900.27,461.46,1934.07,435.23,1982.54,435.23z
				 M1976.31,462.36c-49.36,0-90.27,37.35-90.27,97.83c0,60.48,40.91,97.83,90.27,97.83c51.14,0,90.28-36.91,90.28-98.28
				C2066.59,497.93,2027.45,462.36,1976.31,462.36z"/>
			<path class="st1" d="M2260.5,435.23c66.26,0,115.62,48.47,115.62,124.51s-49.36,125.41-115.62,125.41
				c-48.48,0-82.27-26.68-96.51-56.92v168.09h-30.68V438.79H2164v53.36C2178.23,461.46,2212.03,435.23,2260.5,435.23z
				 M2254.28,462.36c-49.37,0-90.28,37.35-90.28,97.83c0,60.48,40.91,97.83,90.28,97.83c51.13,0,90.27-36.91,90.27-98.28
				C2344.55,497.93,2305.41,462.36,2254.28,462.36z"/>
			<path class="st1" d="M2411.29,352.51h31.13v329.08h-31.13V352.51z"/>
			<path class="st1" d="M2595.85,685.15c-68.94,0-119.19-48.03-119.19-124.96c0-77.38,49.37-124.96,119.19-124.96
				c71.15,0,114.72,50.7,114.72,112.51c0,9.78,0,16.01-0.88,24.46h-201.46c2.67,56.92,42.25,86.72,87.61,86.72
				c41.35,0,69.37-21.79,78.26-54.25h32.9C2695.9,650.47,2656.76,685.15,2595.85,685.15z M2508.23,546.85H2679
				c1.34-56.48-39.57-84.94-84.49-84.94C2550.48,461.91,2511.79,490.37,2508.23,546.85z"/>
		</g>
		<g>
			<path class="st2" d="M522.85,532.74c0.1,0.14,0.19,0.26,0.28,0.37c-0.09-1.3-0.46-3.14-0.79-3.72l-0.65-0.04
				c0.05,1.23,0.13,2.46,0.21,3.68L522.85,532.74z"/>
			<path class="st2" d="M523.91,529.5l-1.56-0.11c0.13,0.16,0.51,0.41,1,0.35C523.58,529.7,523.77,529.61,523.91,529.5z"/>
			<path class="st2" d="M623.77,465.68c-0.01,0.02-0.01,0.04-0.02,0.05l0.02,0C623.78,465.72,623.78,465.7,623.77,465.68z"/>
			<path class="st2" d="M508.42,404.67l-0.58,0.18c0.07,0.01,0.14,0,0.22-0.02C508.21,404.8,508.33,404.74,508.42,404.67z"/>
			<path class="st2" d="M615.64,642.95c-0.08-2.07-0.17-4.15-0.28-6.22C614.44,638.57,614.28,640.46,615.64,642.95z"/>
			<path class="st3" d="M497.09,453.49l1.89,0.05c0-0.08,0.01-0.15,0.01-0.23c-0.85,0.06-1.69,0.13-2.54,0.2
				c0.11,0.87,0.22,1.77,0.33,2.72l0.07,0C496.93,455.32,497.01,454.41,497.09,453.49z"/>
			<path class="st3" d="M512.26,465.35c0.06-1,0.12-2,0.16-3l1.24-0.02c0.13-3.06,0.29-6.15,0.47-9.24
				c-3.81-0.16-7.63-0.15-11.46,0.02c0.23,5.56,0.46,10.59,0.72,15.35h1.05c0.18-1.17,0.35-2.33,0.5-3.51l2.56,0.1
				c0.02,0.42,0.04,0.84,0.06,1.25c0.21-2.37,0.41-5.12,0.58-8.7l0.57-0.05c0.04-0.68,0.09-1.35,0.14-2.02l2.57,0.04
				c0.09,1.93,0.17,3.86,0.23,5.78l0.4-0.08c0.38,1.06,0.35,1.88,0.15,2.5C512.23,464.31,512.24,464.83,512.26,465.35z"/>
			<path class="st3" d="M640.83,626.87l0.69-0.01c0.01-0.21,0.02-0.43,0.03-0.67l2.57,0.02c0.03,1.1,0.07,2.21,0.13,3.31l1.29-0.02
				c0.36,3.69,0.62,7.57,0.8,11.78c0.12-4.58,0.31-9.18,0.56-13.76l1.19,0.02c0-0.05,0.01-0.1,0.01-0.16
				c-0.04-10.98-0.09-24.23-0.12-40.43c0-1.41-0.04-2.83-0.1-4.25c-0.46,6.6-0.82,13.25-0.89,19.85l-2.57,0.07
				c-0.55-8.57-0.73-17.26-0.85-25.76l-1.22,0c0.04,1.11,0.05,2.14-0.02,2.8c-1.93,6.22-2.08,22.79-1.83,30.26
				c0.02,0.45,0.04,0.91,0.06,1.36l-2.57,0.12c-0.02-0.36-0.04-0.77-0.05-1.23c-0.34-8.36-0.58-16.73-0.82-25.09
				c-0.13-4.48-0.26-9.05-0.41-13.63l-1.57-0.03c-0.04-1.6-0.08-3.18-0.13-4.72l-1.65,0.04c-0.06-0.9-0.11-1.8-0.16-2.7l-0.79-0.09
				c-0.02,0.47-0.03,0.93-0.05,1.4l-1.15,0.02c-0.09,2.35-0.16,4.94-0.2,6.51c-0.04,1.36-0.06,2.44-0.09,2.96l-2.57,0.05
				c-0.11-1.32-0.22-2.64-0.31-3.96l-1.47-0.1c-0.12-1.29-0.02-2.74,0.12-4.01l-0.84-0.14c-0.02-0.87-0.04-1.75-0.06-2.62
				l-0.53,0.03c-0.02,0.32-0.03,0.72-0.04,1.25l-2.57,0.02c-0.14-3.73-0.26-7.46-0.35-11.18c-0.43-0.75-0.81-1.69-1.14-2.78
				c-0.09,2.17-0.16,4.34-0.22,6.5l-1.07,0.01c0,0.02,0,0.05-0.01,0.07l-1.39-0.06l-0.1,0c0,0,0,0,0-0.01l-0.3-0.01
				c-0.02,0.29-0.04,0.59-0.05,0.88c-0.1,1.74-0.2,3.49-0.29,5.23l-2.57-0.02c-0.07-2.14-0.13-4.29-0.21-6.43l-0.02,0
				c-0.03,0.17-0.06,0.35-0.09,0.52l-0.79-0.05c-0.04,1.12-0.08,2.24-0.11,3.36c-0.25,7.42-0.5,14.84-0.86,22.26l-2.57-0.04
				c-0.08-5.33-0.22-10.68-0.42-15.99c-0.1,0-0.2,0-0.3-0.01c-0.86-0.07-1.23-0.4-1.38-1.98c-0.16,2.39-0.26,4.77-0.32,7.15
				l-1.79-0.01c0,0.21,0.01,0.43,0.01,0.64l-2.57,0.07c-0.04-0.9-0.07-1.8-0.11-2.7l-1.79,0.01c-0.11,5.13-0.27,10.35-0.53,15.56
				l-2.57-0.04c-0.01-0.64-0.02-1.28-0.04-1.92l-0.66,0.04c-0.13-0.93-0.25-1.86-0.37-2.8l-1.49-0.03
				c-0.29,2.64-0.61,4.99-0.97,7.72c-0.55,4.08-1.22,9.17-2.1,17.42l-2.56-0.07c-0.16-2.94-0.32-5.88-0.48-8.82l-0.88,0.01
				c-0.13,0.73-0.25,1.46-0.37,2.18l-0.49-0.01c-0.26,7.6-0.68,14.7-1.29,21.58l-1.07-0.01c-0.04,0.82-0.09,1.63-0.13,2.45
				c-0.34,6.16-0.67,12.32-0.93,18.49l-2.49,0.01c-0.01,0.65-0.01,1.31-0.01,1.96l-2.57,0.07c-0.04-0.67-0.07-1.35-0.11-2.03
				l-0.14,0c-0.01,0.23-0.03,0.46-0.04,0.68l-1.34,0.01c-0.03,0.66-0.06,1.32-0.08,1.98l-2.57,0.06c-0.02-0.24-0.04-0.47-0.06-0.71
				l-1.02-0.01c-0.01-0.22-0.02-0.45-0.03-0.67l-2.47-0.01c-0.12-3.7-0.25-7.15-0.38-10.42c-0.09,1.03-0.18,2.04-0.27,3.06
				l-2.57-0.1c-0.12-5.18-0.24-10.36-0.37-15.54l-0.69,0.02c-0.19-3.05-0.36-6.19-0.52-9.48l-1.26,0.03
				c-0.02-0.19-0.16-1.08-0.32-2.15c-0.2,6.72-0.23,13.44-0.25,20.03c-0.02,3.49-0.03,6.98-0.07,10.46l-2.57,0.01
				c-0.09-4.47-0.24-8.74-0.45-12.87l-0.49,0c-0.02,0.9-0.03,1.8-0.05,2.7l-2.57,0.02c-0.03-0.9-0.06-1.8-0.09-2.7l-1.7,0
				c-0.06-1.62-0.12-3.2-0.18-4.73l-1.96-0.02c-0.08-3.12-0.29-6.28-0.5-9.37l-1.27,0.05c-0.1-0.65-0.19-1.31-0.29-1.99
				c-0.16,3.89-0.28,8.07-0.36,12.66l-2.57,0.06c-0.03-0.45-0.06-0.9-0.09-1.35l-2.05-0.04l-0.09-2.65l-0.62,0.01
				c-0.21-2.39-0.56-4.81-0.89-7.16c-0.02-0.11-0.03-0.22-0.05-0.34l-1.2,0.01c-0.03-0.47-0.06-0.94-0.09-1.42l-0.98-0.01
				c-0.03-4.49-0.13-9.01-0.28-13.54l-0.8-0.02c0-1.4-0.02-2.81-0.05-4.21c-0.07,0.99-0.15,1.98-0.23,2.97h-2.56
				c-0.19-2.29-0.36-4.58-0.5-6.89l-0.78,0.02c-0.04,1.35-0.06,2.7-0.07,4.05l-1.61,0.02c-0.09,2.03-0.14,4.06-0.18,6.09l-2.57,0
				c-0.04-1.94-0.01-3.87,0.02-5.65c0.04-2.81,0.09-6.3-0.28-6.99c0.1,0.18,0.48,0.37,0.78,0.32c0-0.04,0.01-0.09,0.01-0.13
				l-1.59-1.1c-0.09-7.57-0.45-15.49-1.07-23.61l-1.06,0.03c-0.03-0.25-0.05-0.49-0.08-0.71l-0.06,0c-0.34,2.23-0.68,4.52-0.88,6.78
				l-1.16-0.01c-0.11,4.08-0.32,8.16-0.62,12.19l-0.43,0.87c-0.97,1.91-1.2,21.73-1.3,30.19l-0.04,3.39l-2.57,0.04
				c-0.15-3.16-0.29-6.32-0.44-9.48l-0.2,0c0,0,0,0,0,0l-0.61,0.06c-0.13,2.27-0.29,4.53-0.46,6.74l-2.1,0.03
				c-0.01,0.21-0.03,0.41-0.04,0.62l-2.57-0.05l-0.06-3.27l-0.91-0.01c-0.01,0.42-0.02,0.84-0.03,1.26l-1.59,0.32
				c0.09,0.85,0.21,1.81,0.31,2.62c0.3,2.42,0.61,4.91,0.57,6.54l-0.66,0.03c-0.02,0.36-0.03,0.8-0.05,1.32l-2.57-0.01
				c-0.01-0.18-0.01-0.36-0.01-0.54l-1.41-0.11c-0.07-1.49-0.19-2.99-0.35-4.48c-0.1,0.64-0.2,1.25-0.29,1.8
				c-0.51,8.28-0.87,16.7-1.21,24.85l-0.21,4.91l-2.57,0.09c-0.28-2.51-0.55-5.03-0.8-7.56l-1.69,0.07
				c-0.12-1.37-0.24-2.75-0.38-4.14l-2.11-0.02c-0.04-3.51-0.22-7.1-0.4-10.56c-0.11-2.1-0.21-4.21-0.29-6.31
				c-0.04-0.05-0.08-0.1-0.12-0.15c-0.06,0.75-0.13,1.49-0.2,2.23l-1.78-0.03l0,0.04l-2.57-0.06c-0.09-1.8-0.24-3.59-0.4-5.37
				l-1.02,0.03c-0.61-6.04-1.07-11.65-1.39-16.97l-0.08,0l-1.44,0.06c-0.17,3.82-0.36,7.64-0.58,11.45l-2.57-0.04l-0.16-5.37
				l-0.56,0.01c-0.3-4.27-0.55-8.57-0.73-12.87l-2.12,0.07c-0.03-0.26-0.06-0.51-0.09-0.77l-0.71-0.03c-0.07,2.42-0.14,4.9-0.2,7.45
				l-2.57,0.05c-0.25-3.84-0.47-7.66-0.67-11.47l-1.79,0.16c-0.06-0.25-0.86-3.48-1.35-5.42l-0.08,0.01
				c-0.39-1.69-0.49-2.14-0.23-2.52c-0.07-0.82-0.14-1.64-0.2-2.46l-2.32,0.01c-0.02,0.24-0.04,0.49-0.07,0.73l-2.57-0.06
				c-0.06-1.34-0.16-2.68-0.27-4.01c-0.13,2.47-0.26,4.94-0.38,7.4l-2.57,0.06c-0.49-5.35-0.87-10.76-1.13-16.16l-0.63,0.05
				c-0.02-0.08-0.03-0.15-0.05-0.21l-0.43-0.02c-0.06,0.5-0.13,1-0.2,1.5l-2.56-0.13c-0.04-0.9-0.08-1.79-0.13-2.69l-0.65-0.01
				c-0.1,2.7-0.21,5.38-0.31,8.03c-0.21,5.4-0.42,10.79-0.59,16.19c-0.01,0.26-0.02,0.52-0.03,0.78c0,0.01,0,0.01,0,0.02
				c0,0,0,0,0,0.01l-2.57-0.08c0,0,0,0,0-0.01s0-0.01,0-0.01c0.01-0.27,0.02-0.54,0.03-0.8c0.13-4.62-0.04-9.28-0.51-13.9
				l-0.94-0.07c-0.04-0.67-0.07-1.35-0.1-2.03l-0.62,0.01c0-0.04-0.01-0.07-0.01-0.11l-0.68,0.03c-0.11,3.18-0.21,6.35-0.31,9.53
				l-1.17,0.21c-0.12,2.22-0.33,4.46-0.63,6.68l-1.68-0.1c-0.13,2.27-0.28,4.54-0.45,6.8l-0.68-0.01c-0.01,0.22-0.02,0.43-0.03,0.65
				l-2.57,0.01c-0.05-0.89-0.12-1.79-0.18-2.68l-1.23,0.06c-0.06-0.46-0.12-0.92-0.18-1.39l-1.25,0.04
				c-0.33-2.42-0.67-3.46-0.85-3.87l-0.03,0.03l-0.08-0.24c-0.01-0.02,0-0.01,0,0l-0.03-0.1l-0.2,0l-0.02,0.01
				c0,0-0.01-0.01-0.01-0.01c-0.05,1.8-0.1,3.6-0.15,5.4l-1.84,0.02c-0.04,0.46-0.07,0.91-0.11,1.37c-0.22,2.7-0.43,5.41-0.55,8.12
				l-2.57-0.01c-0.02-0.45-0.03-0.9-0.05-1.35l-2.43,0.17c-0.1-0.57-0.55-2.01-1.01-3.39c-0.47,8.08-0.82,16.95-1.08,27.57
				l-2.57-0.01c-0.11-6-0.25-11.47-0.41-16.58c-0.23,3.3-0.55,6.62-0.94,9.94l-2.56-0.11c-0.05-1.53-0.1-3.06-0.15-4.59
				c-0.19,7.62-0.37,15.23-0.5,22.85l-2.57,0.03c-0.08-2.04-0.16-4.07-0.23-6.11l-1.19,0l-0.09-4.03c-0.07-3.33-0.15-6.71-0.25-10.1
				l-1.42,0.11c-0.05-0.26-0.09-0.53-0.13-0.79l-0.6-0.03c-0.3-4.81-0.63-9.79-1.06-14.85l-1.24-0.05
				c-0.15,1.83-0.31,3.65-0.49,5.46l-2.57-0.1c-0.01-0.51-0.02-1.03-0.03-1.54c-0.07,1.34-0.14,2.67-0.21,3.99l-0.05,0.98l-1.79,0
				c-0.06,0.8-0.2,2.02-0.43,3.94c-0.43,3.65-1.09,9.15-1.35,13.66l-2.22-0.04c-0.08,1.34-0.17,2.72-0.28,4.13l-2.08-0.05
				c-0.02,0.45-0.04,0.9-0.06,1.35l-2.56,0.14c-0.23-1.55-0.4-3.12-0.53-4.68c-0.34,7.67-0.41,15.3-0.48,22.79l-2.57,0.02
				l-0.06-3.01c-0.08-4.12-0.17-8.3-0.27-12.5l-2.53-0.03c-0.07-1.41-0.13-2.84-0.19-4.32c-0.24,3.62-0.4,7.33-0.44,11.04
				l-0.88,0.06c-0.06,0.69-0.13,1.38-0.19,2.08l-2.02-0.04c-0.23,3.82-0.38,7.65-0.48,11.46l-1.83,0.03
				c-0.1,1.15-0.2,2.31-0.31,3.45l-2.56-0.03l-0.22-2.77c-0.18,5.4-0.33,10.84-0.42,16.23l-2.57,0.06
				c-0.29-4.52-0.51-9.06-0.68-13.6l-1.82-0.02c0-1.57-0.02-3.15-0.05-4.72l-2.09,0.06c-0.18-3.18-0.59-6.42-1-9.55
				c-0.02-0.19-0.05-0.37-0.07-0.56l-1.79-0.11c-0.03-2.01-0.09-4.02-0.16-6.03l-0.55,0.01c-0.13-2.04-0.3-4.07-0.48-6.11
				c-0.05-0.6-0.1-1.19-0.15-1.79c-0.01,0.14-0.01,0.27-0.01,0.41l-1.03,0.01c-0.14,3.21-0.24,7.2-0.3,9.45
				c-0.04,1.63-0.08,2.89-0.1,3.41l-2.57,0.03c-0.08-1.13-0.16-2.26-0.24-3.39l-0.82,0c-0.09-1.32-0.15-4.38-0.21-7.91
				c-0.06-3.04-0.14-7.34-0.26-10.47c-0.15,1.87-0.32,3.73-0.54,5.58l-2.56-0.06c-0.02-0.22-0.03-0.44-0.05-0.66l-0.32,0.01
				c-0.19,4.26-0.28,8.52-0.27,12.75l-1.56,0.02c0,18.99,0.27,29.53,0.84,36.43l1.08-0.01c0.15,1.61,0.29,3.22,0.42,4.84l1.36-0.01
				c0.03,1.03,0.06,2.07,0.1,3.1c0.06-1.05,0.12-2.1,0.18-3.15l2.57-0.01c0.37,5.16,0.65,10.59,0.83,16.41
				c0.09-2.29,0.14-4.58,0.17-6.85l2.57-0.01c0.09,4.94,0.19,9.65,0.3,14.19l2.2,0.04c0.02,1.78,0.05,3.58,0.07,5.38l2.42-0.03
				c0.17,2.76,0.31,5.52,0.45,8.28c0.24-3.87,0.43-7.76,0.54-11.63l2.57-0.02c0.04,0.9,0.07,1.79,0.11,2.69h0.6l0.4,6.46
				c0.06,0.89,0.1,1.64,0.15,2.35l0.88-0.01c0.16,2.99,0.29,5.98,0.4,8.98c0.08-0.56,0.17-1.12,0.26-1.68l1.66,0.13
				c0.04-2.01,0.07-4.02,0.1-6.03l2.57-0.03c0.1,2.42,0.18,4.84,0.25,7.26c0.05,1.4,0.09,2.82,0.14,4.23l0.67-0.02
				c0.28-5.38,0.54-11.44,0.64-17.55l2.57-0.06c0.06,0.87,0.11,1.75,0.16,2.63c0.13-2.64,0.25-5.27,0.37-7.87
				c0.14-3.21,0.29-6.43,0.46-9.64l2.15,0.04c0-0.01,0-0.02,0-0.02l2.57-0.02l0.14,2.29c0.13-2.8,0.29-5.61,0.5-8.4l2.57,0.03
				c0.15,2.72,0.46,5.47,0.76,8.14c0.04,0.39,0.09,0.77,0.13,1.16l1.31,0.11c0.07-2.54,0.13-5.09,0.19-7.63
				c0.12-4.87,0.24-9.74,0.39-14.61l1.92-0.02c0.08-1.58,0.15-3.16,0.22-4.73l2.57,0.04c0.03,1.79,0.06,3.59,0.1,5.4l0.39,0
				c0.01-0.33,0.02-0.65,0.03-0.98l0.12-3.77l1.67-0.6c0.07-0.19,0.15-0.37,0.23-0.55l2.46,0.52c0,0.88,0.02,1.76,0.05,2.65
				l1.73-0.08c0.18,1.61,0.42,3.21,0.69,4.81l1.82,0.05c0.05,2.46,0.13,4.94,0.23,7.42l2.27-0.03c0.12,1.91,0.28,3.79,0.43,5.68
				c0.13,1.57,0.26,3.16,0.37,4.77c0.35,0.06,0.61,0.27,0.82,0.99c0.21-5.64,0.35-11.45,0.44-17.46l2.57-0.01
				c0.02,0.58,0.03,1.16,0.04,1.74l2.44,0.07c0.41,2.13,0.76,4.28,1.03,6.44c0.24-3.94,0.6-7.87,1.07-11.76l0.66,0.01
				c0.01-0.36,0.03-0.77,0.04-1.25l2.57-0.05c0.1,1.48,0.18,2.96,0.25,4.44l1.16,0.15c0.05,0.24,0.09,0.49,0.12,0.73l0.97,0.05
				c0.13,1.21,0.22,2.43,0.28,3.66l1.15,0.46c0.11,1.82,0.21,3.63,0.29,5.43l0.45-0.03c0.15-7.09,0.41-15.36,0.98-23.7h1.24
				c0.04-0.98,0.07-1.95,0.1-2.92c0.19-5.47,0.35-10.2,0.8-15.38l2.57,0.1c0.05,5.43,0.26,10.34,0.65,14.9l1.49,0
				c0.28-8.56,0.49-16.86,0.63-25.07l2.57-0.03l0.29,6.89c0.01,0.16,0.01,0.31,0.02,0.47l0.53-0.09c0.05-1.29,0.1-2.59,0.16-3.88
				l0.48-0.04c0.15-5.14,0.34-10.34,0.59-15.53l2.57,0.02c0.03,0.89,0.05,1.77,0.08,2.66l0.99,0.01c0.42,6.47,0.83,13.25,1.11,20.19
				c0.11-2.88,0.2-5.75,0.25-8.63l1.12-0.01c0.42-6.15,0.71-12.32,0.99-18.35l0.03-0.63l2.57-0.02c0.2,3.23,0.39,6.46,0.59,9.69
				c0.02-0.29,0.03-0.59,0.05-0.88l2.57-0.01c0.27,4.39,0.62,8.81,0.99,12.94l0.67-0.01c0.02-0.25,0.03-0.5,0.05-0.75l1.37,0.02
				c0.02-0.24,0.05-0.49,0.07-0.73l1.77,0.07l0.01-0.65l2.01,0c0.06-1.12,0.11-2.25,0.13-3.4l2.57-0.02
				c0.14,3.77,0.27,7.58,0.38,11.46l0.83-0.01c0.12-3.13,0.16-6.25,0.14-9.36l2.57-0.12l0.1,1.17c0.2,2.32,0.4,4.65,0.59,7
				l2.16-0.03c0.28,3.83,0.52,7.68,0.71,11.53l1.07,0.03c0.08,2.24,0.28,4.52,0.49,6.73l1.3,0.05l0.1,5.37l0.97-0.01
				c0.01,0.2,0.07,0.6,0.15,1.1c0.16-4.42,0.32-8.83,0.49-13.25l2.57,0.04c0.03,4.73,0.13,9.2,0.28,13.45l2.21-0.01
				c0.12,1.43,0.22,2.86,0.31,4.29c1.3,0.07,1.31,0.54,1.37,6.37c0.02,1.31,0.03,2.6,0.06,3.5c0.16,0.39,0.32,0.86,0.48,1.42
				l1.19,0.15c0.09,0.17,0.17,0.34,0.23,0.53l0.14,0.01c0.07-2.22,0.11-4.46,0.07-6.66l2.57-0.12c0.54,6.96,0.77,14,0.89,20.97
				l1.25-0.08c0.51,3.38,0.89,6.8,1.14,10.22l0.52,0.01c0.03-1.32,0.05-2.64,0.06-3.95l2.45-0.03c0.14-2.99,0.27-5.93,0.4-8.82
				l0.75,0c0.13-2.03,0.25-4.06,0.32-6.09h0.96c0.18-1.77,0.38-3.2,0.61-4.89c0.34-2.42,0.75-5.43,1.29-10.76l1.56,0.05
				c0.08-1.12,0.15-2.24,0.21-3.37l2.57-0.02c0.02,0.24,0.03,0.48,0.05,0.72l1.58-0.06l0.09-2.64l2.57-0.01
				c0.15,3.54,0.5,7.11,0.84,10.56c0.07,0.71,0.14,1.42,0.21,2.13c0.12-2.42,0.23-4.84,0.3-7.26l1.95-0.04
				c0.66-13.77,1.26-25.8,2.69-39.32l0.59,0.02c0.05-1.77,0.09-3.55,0.11-5.32l2.57-0.02c0.21,7.49,0.56,12.97,1.04,18.26h0.01
				c0.18-6.32,0.37-12.64,0.67-18.96l2.57,0.02c0.12,3.62,0.19,7.23,0.27,10.85c0.11,5.29,0.22,10.72,0.48,16.12l0.68-0.03
				c0.25,0.16,0.43,0.28,0.53,0.54l1.06,0.15c0.31-3.32,0.47-6.66,0.48-9.98l2.57-0.05c0.21,4.77,0.46,9.53,0.72,14.3
				c0.08,1.44,0.15,2.88,0.23,4.32c0.02-0.34,0.03-0.68,0.05-1.03l2.57,0.02c0.05,1.41,0.1,2.82,0.15,4.22
				c1.48,0.11,1.89,0.8,1.99,23.04l0.01,1.87l-0.23,0.02c-0.08,1.4,0.11,5.85,0.45,8.57l1.91,0.11c0.26,2.97,0.5,5.94,0.73,8.92
				c0.62-3.26,0.82-17.21,0.93-24.94l0.04-2.83l0.83,0c0.08-2.26,0.16-4.53,0.24-6.79l2.57-0.04c0.22,3.16,0.4,6.34,0.57,9.51
				l1.93-0.02c0.16,2.93,0.43,5.86,0.7,8.79c0.02,0.18,0.03,0.35,0.05,0.53l1.15-0.12c0.06-0.5,0.12-1,0.17-1.51
				c0.44-3.84,0.89-7.82,1.08-11.75l1,0c0.15-1.59,0.29-3.19,0.43-4.79l2.56,0.01c0.09,1.07,0.16,2.14,0.23,3.22
				c0.02-0.38,0.04-0.75,0.05-1.13l1.47-0.05c0.18-1.73,0.33-3.84,0.44-5.26c0.09-1.13,0.16-2.14,0.23-2.88l2.57,0.07
				c0.16,4.34,0.35,8.67,0.55,13.01c0.14,3.08,0.28,6.2,0.4,9.34l1.19,0c0.03,0.9,0.06,1.8,0.11,2.7l1.95,0.01
				c0.16-4.29,0.29-8.58,0.37-12.85l2.57-0.02c0.35,9.58,0.7,19.16,1.04,28.74c0.01,0.35,0.03,0.69,0.04,1.04
				c0.18-2.74,0.38-5.47,0.63-8.19l2.53,0.08c0.11-4.84,0.15-9.66,0.19-14.41c0.03-3.77,0.06-7.53,0.13-11.3l2.57-0.11
				c0.1,0.98,0.19,1.96,0.28,2.95c0.16-0.58,0.41-1.38,0.78-2.53l0.05,0.01c0.57-1.89,1.2-4.17,1.32-5.2l1.28,0.04
				c0.36-4.26,0.88-8.91,1.58-14.27l0.62,0.02c0.03-0.65,0.06-1.3,0.09-1.95l2.57,0c0.08,1.57,0.18,3.14,0.28,4.7
				c0.11-1.37,0.23-2.73,0.36-4.08l2.5-0.01c0.11-1.8,0.22-3.59,0.35-5.38l0.98,0l0.09-2.65l1.93-0.08
				c0.01-0.23,0.02-0.45,0.03-0.68c0.09-2.67,0.19-5.34,0.19-8.01l2.57,0c0,0.66,0.01,1.33,0.02,2l1.07-0.01
				c0.25-2.46,0.49-4.97,0.63-7.47l2.02,0.03c0.16-2.5,0.31-5,0.48-7.49l2.43,0.06c0.02-0.26,0.05-0.51,0.07-0.76l2.56-0.03
				c0.42,3.87,0.76,7.77,1,11.68c0.3-5.89,0.44-11.78,0.58-17.55c0.12-5.15,0.25-10.47,0.49-15.71l2.57,0.08
				c-0.09,5.37-0.02,8.65,0.23,11.6c0.06-0.01,0.11-0.01,0.19,0c0.51,0.01,0.85,0.02,1.11,0.51l0.04,0l0.15-8.09l2.56-0.13
				c0.11,0.89,0.21,1.82,0.32,2.77c0.14-5.61,0.32-11.3,0.69-16.92l2.57,0.03c0.22,5.07,0.41,9.76,0.57,14.16l2.28,0.03
				c0.04,0.54,0.07,1.68,0.11,3.09c0.05,1.83,0.15,5.07,0.3,7.69l3.51,0.08c0.01,0.2,0.01,0.4,0.02,0.6
				c-0.01-1.51-0.04-2.99-0.06-3.97c-0.02-1.2-0.04-2.17-0.03-2.68l0.98,0c0.27-0.65,0.61-0.74,1.01-0.77
				c0.05-1.33,0.11-2.66,0.15-4l2.57-0.05c0.02,0.31,0.05,0.62,0.07,0.93c0.07-1.21,0.14-2.42,0.21-3.62l2.57,0.06l0.12,8.67
				c0.12,8.9,0.23,18.02,0.56,27.11l1.1,0.01c0.16,1.83,0.29,3.66,0.41,5.5c0.07-2.5,0.14-4.99,0.22-7.47l0.38-0.46l-0.19-0.11
				C639.97,648.23,640.39,640.68,640.83,626.87z"/>
			<path class="st3" d="M521.7,779.22c0.02-2.41-0.01-4.83-0.07-7.25l-2.06-0.04c-0.19-1.63-0.36-3.25-0.5-4.89l-0.94,0.22
				c-0.09,1.31-0.18,2.62-0.27,3.93l-1.25-0.04c-0.06,1.13-0.12,2.27-0.18,3.4l-1.75-0.02c-0.01,0.44-0.02,0.89-0.03,1.34l-1.18,0
				c-0.22,3.21-0.42,6.39-0.6,9.53l-1.25,0.02c-0.06,0.9-0.12,1.8-0.18,2.69l-0.82-0.01c-0.13,2.22-0.2,4.52-0.3,6.78
				c4.53-0.07,9.05-0.33,13.53-0.82c-0.07-4.94-0.15-9.87-0.23-14.8L521.7,779.22z"/>
			<path class="st3" d="M632.45,721.96c0.2-0.38,0.4-0.76,0.6-1.14c-0.18-1.77-0.38-3.53-0.53-5.3
				C632.48,717.6,632.46,719.88,632.45,721.96z"/>
			<path class="st3" d="M626.95,723.39c-1.65-0.21-1.99-1.42-2.07-14.78c-0.01-2.16-0.02-4.1-0.07-5.37
				c-0.18-0.31-0.34-0.67-0.51-1.06c-0.21,1.56-0.4,3.15-0.51,4.7l-1.77-0.06c-0.1,3.26-0.23,6.52-0.42,9.77l0.07,0.01
				c0.36,0.31,0.52,0.44,0.36,1.36l0.02,0.01c-0.02,0.05-0.04,0.16-0.08,0.3c-0.11,0.57-0.31,1.39-0.6,2.59
				c-0.36,1.61-0.73,3.46-0.79,4.31l-2.57-0.04c-0.08-1.74-0.15-3.29-0.23-4.72l-1.55,0c-0.1-1.78-0.2-3.56-0.3-5.35l-1.48,0.03
				c-0.1-0.71-0.2-1.41-0.3-2.11c-0.05,2.81-0.08,5.6-0.11,8.37c-0.08,8.58-0.17,17.45-0.96,26.18l-2.57-0.07c0-0.01,0-0.02,0-0.02
				l-1.78,0c-0.06-3.6-0.14-7.19-0.23-10.79c-0.02,0.24-0.03,0.47-0.05,0.71l-2.57-0.01c-0.2-2.93-0.39-5.89-0.58-8.86l-0.65-0.01
				c-0.05,1.36-0.09,2.71-0.12,4.07l-1.4-0.01c-0.23,2.53-0.48,5.06-0.76,7.57l-0.59-0.02c-0.05,2-0.1,3.99-0.12,5.99l-1.07,0.02
				c-0.1,4.1-0.21,8.15-0.36,12.2l-2.57,0.08c-0.07-0.67-0.13-1.31-0.21-1.92c-0.02,0.21-0.04,0.42-0.06,0.63
				c-0.14,1.38-0.27,2.72-0.37,3.99l-2.54,0.15c-0.03-0.12-0.05-0.24-0.07-0.37c-0.05,1.87-0.15,3.75-0.22,5.63
				c12.8-9.62,24.04-21.56,33.05-35.62c-0.06-2.49-0.13-4.97-0.21-7.46C627.01,723.4,626.98,723.39,626.95,723.39z"/>
			<path class="st3" d="M500.5,794.74c0.06,0,0.11,0,0.17,0.01c-0.03-0.41-0.07-0.82-0.09-1.23
				C500.55,793.92,500.52,794.33,500.5,794.74z"/>
			<path class="st3" d="M583.21,481.16c0.07-1.57,0.13-3.1,0.2-4.59l1.66,0.02c-4.43-2.96-9.08-5.7-13.94-8.2
				c0.09,2.32,0.2,3.94,0.33,5.42l1.31-0.1c0.04,0.28,0.08,0.55,0.12,0.83l0.61,0.07c-0.03,1.78,0.03,3.6,0.13,5.41
				c0.11-1.58,0.18-3.17,0.16-4.73l2.57-0.07c0.17,3.75,0.38,7.5,0.61,11.24l0.4-0.05l0.49,1.58c-0.2,0.55-0.26,1.49-0.16,2.63
				c0.31,0.14,0.62,0.27,0.91,0.41l0.16-10.38l1.77-0.09c0.01-0.2,0.01-0.4,0.02-0.61l2.57-0.05L583.21,481.16z"/>
			<path class="st3" d="M647.69,656.12l-2.57-0.05c-0.02-0.45-0.04-0.9-0.06-1.35l-1.01-0.05c-0.02-5.19-0.12-9.85-0.32-14.16
				l-0.83-0.02c-0.28,6.09-0.55,8.64-0.93,9.75c-0.29,8.69-0.46,17.53-0.61,26.08c-0.17,9-0.36,18.26-0.68,27.45
				c0.15-0.39,0.31-0.77,0.45-1.16c0.03-0.65,0.04-1.31,0.07-1.96l0.63-0.02c0.84-2.45,1.65-4.93,2.38-7.47
				c3.14-10.96,3.85-16.51,3.93-42.5l-0.04,0C647.97,652.49,647.83,654.31,647.69,656.12z"/>
			<path class="st3" d="M545.96,789.43c-0.08-2.74-0.22-5.47-0.35-8.2c-0.01-0.19-0.02-0.39-0.03-0.58l-0.69,0l-0.26-6.55
				c-0.21-5.31-0.42-10.61-0.61-15.92c-0.1,0.01-0.2,0.01-0.31,0c-0.25-0.02-0.47-0.06-0.66-0.17c-0.11,0.42-0.2,0.81-0.26,1.13
				l-2.56-0.19l-0.08-4.09l-0.99-0.04c0,0,0-0.01,0-0.01c0-0.01,0-0.01,0-0.02c0.12-3.45,0.05-6.92-0.2-10.36
				c-0.38,3.38-0.72,7.04-1.15,11.9l-1.4-0.03c-0.01,0.21-0.01,0.42-0.02,0.63l-2.57,0.08c-0.5-5.6-0.81-11.25-1.04-16.86h-0.01
				c-0.44,3.51-0.67,7.61-0.66,14.04l-2.57,0.03c-0.08-3.22-0.19-6.47-0.31-9.71c-0.37,2.64-0.76,3.59-1.15,3.97
				c-0.95,9.6-1.11,19.4-1.26,28.89c-0.09,5.37-0.18,10.91-0.41,16.38c6.92-0.88,13.75-2.23,20.44-4.08
				c-0.01-0.08-0.02-0.16-0.03-0.24L545.96,789.43z"/>
			<path class="st3" d="M565.94,771.96c-0.21,3.91-0.39,7.62-0.55,11.16c0.63-0.27,1.26-0.51,1.89-0.79
				c-0.12-3.44-0.27-6.91-0.49-10.4L565.94,771.96z"/>
			<path class="st3" d="M589.9,769.19l-1.08,0.05c-0.04,0.39-0.09,0.77-0.13,1.16c0.53-0.36,1.05-0.75,1.58-1.12
				c-0.09-0.81-0.19-1.61-0.26-2.42C589.99,767.8,589.95,768.64,589.9,769.19z"/>
			<path class="st3" d="M646.34,568.7c-0.11-0.64-0.23-1.28-0.35-1.92c0.03,1.78,0.06,3.59,0.08,5.35c0.05-0.64,0.1-1.28,0.15-1.92
				C646.27,569.71,646.31,569.2,646.34,568.7z"/>
			<path class="st3" d="M550.41,718.96c-0.35,0.01-0.62,0.17-0.77,0.33c0.01,0.07,0.01,0.14,0.02,0.22l1.66-0.24
				C551.28,719.26,551.02,718.95,550.41,718.96z"/>
			<path class="st3" d="M494.94,791.48c-0.01-0.15-0.01-0.31-0.02-0.46c-0.02-0.82-0.04-2.09-0.07-3.6
				c-0.06-3.17-0.15-8.71-0.32-12.21l-1.03-0.06c0.04-3.57-0.07-7.22-0.18-10.75l-0.07,0l-0.68,0.01
				c-0.34,3.86-0.72,7.73-1.14,11.57l-2.56-0.05c-0.37-5.51-1-11.32-1.98-18.31l-1.96-0.02c-0.04-1.98-0.11-3.97-0.2-5.96
				c-0.15,1.84-0.29,3.63-0.44,5.36l-2.57-0.06c-0.12-3.39-0.25-6.77-0.4-10.15l-1.66-0.01c0,0.01,0,0.01,0,0.02l-2.57-0.01
				c-0.11-2.41-0.2-4.87-0.29-7.38c-0.11,1.14-0.23,2.27-0.36,3.4l-1.22-0.02c-0.08,2.45-0.14,4.91-0.2,7.36l-2.57-0.02
				c-0.01-0.66-0.02-1.31-0.03-1.96l-1.05-0.01c-0.2-3.78-0.38-7.31-0.53-10.64l-2.33-0.23c-0.05-1.8-0.13-3.59-0.23-5.39
				l-1.19-0.04c-0.03-1.85-0.07-3.86-0.12-5.98l-1.27,0.12c-0.1-0.47-0.17-0.88-0.22-1.22l-0.48-0.11
				c-0.41,4.65-0.76,9.34-1.04,13.99l-1.53,0.12c-0.1,0.31-0.22,0.64-0.35,0.97l-1.36-0.48c-0.14,2.26-0.27,4.53-0.32,6.8
				l-2.57-0.03c0.01-3.17-0.09-6.34-0.19-9.5c0-0.1-0.01-0.19-0.01-0.28c-0.14,2.84-0.29,5.67-0.44,8.51l-1.12-0.02l-0.3,20.28
				l-2.57,0.07c-0.04-0.6-0.08-1.21-0.12-1.81c-0.22,4.01-0.5,8.01-0.88,11.99l-2.57-0.08c-0.09-2.48-0.17-4.95-0.25-7.43
				l-1.53,0.04c-0.35-4.13-0.72-8.52-1.08-13.03c-0.14,3.17-0.25,6.32-0.37,9.42c-0.2,5.5-0.45,11.12-0.77,16.75
				c16.29,7.67,33.39,12.07,50.47,13.46c-0.08-1-0.17-1.99-0.23-2.99L494.94,791.48z"/>
			<path class="st3" d="M583.57,691.88C583.57,691.88,583.56,691.88,583.57,691.88c0.03,0.43,0.06,0.87,0.1,1.3
				c0.03-0.42,0.07-0.84,0.1-1.26L583.57,691.88z"/>
			<path class="st3" d="M494.85,687.92l-0.33-0.01c-0.04,0.39-0.07,0.78-0.11,1.17c0,0,0,0,0.01-0.01l0.44-0.2
				C494.86,688.57,494.85,688.25,494.85,687.92z"/>
			<path class="st3" d="M427.55,557.97c-0.09,0.01-0.16,0.04-0.23,0.06c0,0.02,0,0.05,0,0.07l0.55-0.14
				C427.78,557.96,427.68,557.95,427.55,557.97z"/>
			<path class="st3" d="M598.6,658.55c-0.07,0.01-0.14,0.03-0.22,0.05c-0.01,0-0.02,0.01-0.03,0.01l0.25-0.01
				C598.6,658.58,598.6,658.57,598.6,658.55z"/>
			<path class="st3" d="M446.3,587.7l-0.27,0.24c0.19,0.12,0.5,0.23,0.88,0.15l-0.08-0.39L446.3,587.7z"/>
			<path class="st3" d="M581.16,492.38c0.08,0.05,0.16,0.1,0.24,0.15c-0.05-0.75-0.1-1.5-0.15-2.25l-0.06,0L581.16,492.38z"/>
			<path class="st3" d="M640.63,571.18c0.06-1.97,0.13-3.95,0.21-5.92l0.89,0c0.08-1.8,0.14-3.6,0.18-5.4l0.87,0
				c0.06-1.93,0.07-3.85,0.1-5.77c-1.25-4.16-2.74-8.32-4.45-12.46l-0.45-0.01c0-0.35-0.01-0.74-0.01-1.09
				c-7.18-17-18.13-33.46-32.54-47.47c-0.13,2.13-0.26,4.28-0.38,6.39c-0.17,3.02-0.34,6.05-0.53,9.07l-1.94-0.04
				c-0.08,1.14-0.16,2.28-0.21,3.41l-2.56,0.08c-0.12-1.07-0.21-1.81-0.28-2.32c-0.06,0.04-0.12,0.06-0.18,0.09
				c-0.07,0.73-0.14,1.46-0.19,2.19l-1.24-0.01c-0.07,0.69-0.13,1.37-0.19,2.05l-0.46-0.03c-0.02,0.91-0.05,1.82-0.07,2.73
				c-0.09,3.13-0.17,6.25-0.18,9.38l-2.57,0.08c-0.12-1.88-0.24-3.76-0.36-5.65l-0.09-0.07c-0.26,5.69-0.44,11.14-0.54,16.49
				l-2.12,0.09c-0.01,0.2-0.02,0.4-0.02,0.6l-0.8,0.04c-0.03,1.06-0.06,2.12-0.1,3.18c-0.09,2.75-0.17,5.5-0.18,8.25l-2.57,0.07
				c-0.03-0.42-0.05-0.82-0.07-1.22c-0.18,3.15-0.37,6.26-0.58,9.35l-1.29-0.01c-0.14,4.96-0.3,9.92-0.49,14.85l-2.57,0.04
				c-0.14-2.03-0.27-4.07-0.38-6.1c-0.09,1.14-0.17,2.28-0.26,3.41l-0.94,0.01c-0.01,0.05-0.01,0.1-0.01,0.15
				c-0.05,1.72-0.1,3.45-0.11,5.17l-2.57,0.05c-0.09-2.05-0.02-3.85,0.11-5.33c0-0.08,0.01-0.16,0.01-0.25l-0.28-0.08
				c-0.18,2.56-0.35,5.12-0.48,7.69l-1.01,0.03c-0.02,0.23-0.04,0.47-0.06,0.71l-2.57-0.1c-0.01-0.9-0.03-1.79-0.06-2.69l-2.45-0.01
				c-0.06-3.82-0.18-7.67-0.35-11.51l-2.15,0.01c-0.02-0.77-0.03-1.42-0.05-1.98l-0.67-0.01c-0.34-6.24-0.63-12.67-0.88-19.23
				c-0.16,1.04-0.32,2.08-0.48,3.12l-1.42-0.05c-0.15,2.21-0.28,4.44-0.34,6.65l-2.57-0.05c0.01-0.88,0-1.77-0.02-2.65l-2.48-0.03
				c-0.01-0.91-0.03-1.82-0.04-2.73c-0.21,4.03-0.28,7.83-0.24,11.5l-2.57,0.07c-0.1-2.26-0.22-4.52-0.34-6.79l-1.8,0.03
				c-0.09-1.58-0.16-3.17-0.22-4.76l-0.85,0.06c-0.19-2.23-0.37-4.47-0.53-6.7l-0.34-0.06c-0.21,5.6-0.45,11.29-0.84,16.9
				l-1.49-0.02c-0.25,2.03-0.49,4.08-0.65,6.12l-2.57-0.07c-0.04-1.55-0.08-3.1-0.13-4.65l-0.93,0.02c-0.07-0.6-0.07-1.33-0.04-2.08
				l-0.68-0.07c-0.12-5.73-0.33-11.48-0.62-17.14c-0.15-0.3-0.28-0.78-0.42-1.55c-0.24,0.13-0.5,0.18-0.83,0.15
				c-1.41-0.14-1.92-0.71-2.02-11.81l-1.47-0.11c-0.05-2.07-0.11-4.13-0.18-6.2c-0.54-0.06-0.89-0.3-1.13-1.71
				c-0.03,1.27-0.04,2.54-0.03,3.81l-0.88,0.58c-0.07,2.3-0.13,4.6-0.19,6.9l-2.57,0.04c-0.12-2.04-0.25-4.08-0.38-6.11l-0.69,0.03
				c-0.08-1.15-0.16-2.3-0.23-3.45l-0.84-0.01c-0.04-5.55-0.19-11.15-0.45-16.68c-0.19,0.24-0.48,0.4-0.91,0.42
				c-0.36,0.03-0.59-0.06-0.79-0.2c-0.17,0.28-0.4,0.43-0.64,0.49c-0.11,0.36-0.24,0.81-0.39,1.4l-1.43-0.16
				c-0.57,4.71-0.88,10.63-1.19,16.38c-0.34,6.37-0.66,12.39-1.29,15.52l-1.86-0.06c-0.15,1.96-0.34,3.45-0.63,5.73
				c-0.19,1.47-0.41,3.26-0.7,5.73l-2.57-0.14c-0.03-3.21-0.2-6.48-0.37-9.64c-0.01-0.12-0.01-0.23-0.02-0.35
				c-0.18,0.84-0.38,1.92-0.62,3.42l-2.2,0.01c-0.11,2.2-0.22,4.39-0.28,6.59l-2.11,0.1c-0.01,0.2-0.02,0.41-0.03,0.61l-0.9-0.04
				c-0.06,0.32-0.13,0.64-0.2,0.95l-0.7-0.07c-0.13,3.8-0.24,7.58-0.33,11.31l-0.71,0.02c0,0.02,0,0.04-0.01,0.06l-0.95-0.03
				l-0.9,0.03c0-0.02,0-0.04-0.01-0.06l-0.38-0.01c-0.28,2.97-0.58,6.09-0.61,6.78l-2.57,0.02c-0.13-2-0.22-4.01-0.29-6l-0.78-0.15
				c-0.01-0.43-0.02-0.87-0.03-1.31l-0.69,0.02c-0.18-2.69-0.36-5.41-0.56-8.07c-0.03,0.43-0.06,0.86-0.08,1.29l-2.56,0.12
				c-0.42-2.74-0.73-5.49-0.97-8.26l-0.24,0.02c-0.05,0.49-0.11,0.97-0.18,1.45l-2.35-0.02c-0.06,1.31-0.1,2.61-0.13,3.92
				l-2.57-0.01c-0.11-7.86-0.47-15.07-1.09-21.79c-0.09,0.98-0.18,1.95-0.27,2.93l-2.57-0.1c-0.01-0.63-0.02-1.27-0.03-1.91
				c-0.14,2.16-0.22,4.8-0.25,8.68l-2.57,0.02c-0.02-0.68-0.04-1.36-0.06-2.03l-1.01,0.01c-0.13-5.27-0.25-10.53-0.36-15.8
				c-0.09,1.01-0.19,2.02-0.29,3.02l-2.57-0.12c0-0.67-0.01-1.33-0.01-2l-2.13-0.01c-0.16-7.77-0.32-15.73-0.67-23.65l-0.75,0
				c0,0,0-0.01,0-0.01l-1.43-0.02c-0.03-1.08-0.07-2.17-0.1-3.25l-0.6,0.03c-0.43-2.8-0.81-5.62-1.14-8.45
				c-0.44,3.36-1.09,6.86-2.07,10l-2.25-0.29c-0.07,3.14-0.13,6.27-0.19,9.41l-2.57,0.04l-0.22-4.72c-0.13-2.72-0.25-5.43-0.37-8.15
				l-1.19-0.01l-0.14-3.89l-0.92-0.16c-0.03-0.5-0.05-1.45-0.09-2.63c-0.01-0.38-0.03-0.82-0.04-1.32
				c-0.06,1.31-0.11,2.62-0.15,3.92l-2.45,0.08c-0.02,0.64-0.04,1.29-0.05,1.93l-1.35,0.01c-0.24,2.53-0.51,5.05-0.79,7.56l-1.95,0
				c-0.06,1.55-0.12,3.1-0.18,4.65l-2.57-0.04c-0.03-1.83-0.08-3.66-0.14-5.5c-0.03,0-0.07,0.01-0.1,0.01
				c-0.24,4.56-0.5,9.12-0.76,13.67l-2.57-0.03c-0.06-1.79-0.12-3.57-0.18-5.36l-0.33-0.01c-0.6,6.92-0.9,14-1.19,21.62l-2.1,0.02
				c-0.13,0.95-0.27,1.9-0.41,2.84l-2.56-0.19c-0.04-6.21-0.08-12.53-0.28-18.92l-0.11,0c-0.27,4.06-0.47,8.13-0.6,12.18l-1.04,0.03
				c-0.01,0.24-0.02,0.48-0.02,0.72c0.04,0.2,0.03,0.4,0.01,0.57l0.01,0c-0.02,0.1-2.18,10.41-2.54,12.42l-1.13-0.07
				c-0.1,1.33-0.2,2.66-0.28,3.99l-2.57-0.06c-0.03-1.55-0.08-3.1-0.15-4.65l-2.34-0.08c0-0.03,0-0.07,0-0.1
				c-0.19,3.7-0.5,7.4-1,11.07l-2.55,0.01c-0.08-0.58-0.16-1.07-0.24-1.49l-0.21,0.08c-0.27-0.34-0.48-0.74-0.64-1.17
				c-0.09,1.07-0.19,2.13-0.29,3.19l-1.78,0.04c0.01,0.19,0.01,0.39,0.01,0.58c0.18,9.6,0.07,12.11-1.49,12.67
				c-0.09,3-0.19,5.99-0.3,8.99l-2.57,0.04c-0.3-4.19-0.5-8.39-0.69-12.59c-0.18-3.88-0.36-7.84-0.64-11.8l-1.16-0.01
				c-0.1-1.74-0.24-3.5-0.4-5.24c-0.06,1.3-0.13,2.59-0.21,3.88c-0.17,3.09-0.34,6.28-0.39,9.43l-2.57,0.06l-0.42-7.45l-1.01,0.02
				l-0.1-1.42l-0.26,0c-0.1,1.78-0.2,3.54-0.29,5.3c-0.24,4.34-0.48,8.68-0.71,13.02l-2.57-0.02l-0.3-7.6
				c-0.04-1.02-0.08-2.04-0.12-3.07c-0.03,3,0.04,6.75,0.08,9.27c0.04,2.29,0.07,4.28,0.06,5.43l-2.37,0.08
				c-0.11,5.36-0.24,10.82-0.48,16.21l-2.57-0.03l-0.02-1.1c-0.13-6.04-0.27-12.2-0.54-18.37c-0.05,1.29-0.08,2.58-0.08,3.86
				l-2.38,0.03c-0.04,0.91-0.08,1.82-0.12,2.74l-2.57-0.07c0.01-0.95,0.01-1.84,0-2.68l-2.5,0.07c-0.07-0.96-0.15-1.91-0.23-2.86
				c-0.02,0.7-0.04,1.41-0.05,2.11l-2.57,0.06c-0.04-0.64-0.08-1.27-0.12-1.91c-0.2,3.7-0.38,7.33-0.57,11.06
				c-0.38,7.52-0.77,15.47-1.38,25.38l-2.43-0.07c-0.02,0.47-0.04,0.94-0.07,1.41l-2.57-0.04c-0.07-3.11-0.21-6.23-0.36-9.34
				c-0.08-1.75-0.17-3.49-0.23-5.24c-0.09-0.02-0.19-0.04-0.29-0.07c-1.13-0.32-0.98-1.39-0.84-2.26l-0.06,0
				c-0.01-0.45-0.03-0.91-0.04-1.36l-0.67,0c-0.08-2.82-0.32-5.72-0.56-8.51c-0.01-0.11-0.02-0.23-0.03-0.34
				c-0.21,0.12-0.43,0.16-0.68,0.16c-0.08,0.38-0.16,0.78-0.25,1.22c-0.67,3.28-1.51,7.36-1.63,8.28l-2.56-0.12
				c-0.12-2.88-0.21-5.76-0.3-8.65c-0.13,1.54-0.25,3.08-0.34,4.62l-0.51-0.02c-0.06,1.36-0.12,2.71-0.2,4.07l-2.57-0.06
				c-0.04-2.9-0.1-5.8-0.19-8.68l-1.55,0.18c-1.97-7.88-2.91-15.48-2.87-22.62c-3.44,11.09-5.31,21.73-5.4,30.53
				c-0.15,13.51-0.25,25.06-0.32,35.02l0.79-0.01c0.09-1.57,0.18-3.14,0.26-4.71l2.07,0c0.23-4.78,0.33-9.52,0.43-14.18l2.57-0.07
				c0.41,5.33,0.65,10.73,0.71,16.09c0.68,0.35,0.9,1.81,1.07,8.26c0.14-0.21,0.32-0.3,0.53-0.34c0.16-4.38,0.32-8.75,0.48-13.13
				l2.57,0.02c0.06,3.08,0.23,6.15,0.4,9.21c0.07,1.2,0.13,2.4,0.19,3.6l0.83,0.01c0.09,1.6,0.2,3.19,0.32,4.79l1.1,0.03
				c-0.02,3.04,0.08,6.15,0.18,9.15c0,0.04,0,0.09,0.01,0.13l0.86,0.05c0.09-1.79,0.19-3.58,0.3-5.36l2.08,0
				c0.12-3.16,0.25-6.29,0.41-9.46l2.57,0.05l0.05,3.5c0.02,1.74,0.05,3.49,0.07,5.24c0.06-2.01,0.12-4.03,0.17-6.04l2.57,0.03
				c0.02,4.9,0.16,9.35,0.37,13.53l1.76-0.03c0.18-2.52,0.4-5.03,0.64-7.53l2.52,0.04c0.49-7.99,1.35-15.56,2.12-21.74l2.56,0.14
				c0.02,1.59,0.05,3.13,0.07,4.62l2.3,0.06c0.22-2.29,0.48-4.58,0.78-6.87l2.56,0.14l0.03,1.4c0.05,2.48,0.09,4.99,0.15,7.49
				c0.03-0.94,0.07-1.87,0.1-2.81l1.27,0.01c-0.02-0.69-0.04-1.37-0.06-2.03l0.68-0.07c0.07-1.52,0.15-3.04,0.23-4.56
				c0.17-3.14,0.35-6.38,0.38-9.56l2.57-0.03c0.06,1.77,0.12,3.57,0.18,5.41c0.03-0.44,0.05-0.88,0.07-1.31
				c0.16-2.89,0.33-5.88,0.38-8.81l1.93-0.03c0.18-3.18,0.37-6.36,0.58-9.52l0.64-0.11c0.03-0.22,0.05-0.43,0.08-0.65l2.56,0.12
				c0.05,1.13,0.09,2.25,0.13,3.39l2.01,0.04c0.02,1.09,0.05,2.19,0.1,3.28l1.67-0.03c0.43,3.66,0.79,7.32,1.09,10.95l2.48-0.06
				c0.22,3.14,0.38,6.29,0.52,9.44c0.18-7.19,0.35-14.38,0.48-21.56l2.57-0.03c0.06,1.43,0.05,3.76,0.04,6.34
				c-0.01,3.87-0.03,9.95,0.29,12.41l0.25,0.04c0.25-3.81,0.39-7.58,0.41-11.3l1.35-0.09l0.07-2.58l2.42-0.09
				c0.14-2.08,0.29-4.12,0.44-6.13l2.53-0.2c0.62,2.55,0.99,4.98,1.26,7.25c0.03-0.66,0.06-1.33,0.1-1.99
				c0.17-3.4,0.34-6.93,0.38-10.38l2.57-0.07c0.11,1.56,0.21,3.13,0.31,4.71l0.33-0.02c0-0.35,0.01-0.75,0-1.21l0.57-0.02
				c0.02-0.52,0.03-1.03,0.05-1.55l-0.24,0.09l-0.62-1.74c0.4-0.93,1.74-4.24,2.04-7.74l2.57,0.07c0.05,1.8,0.1,3.6,0.15,5.4
				c0.28,0.22,0.52,0.62,0.52,1.36c-0.01,1.14,0,2.02,0.03,2.69l0.94-0.04c0.03-0.88,0.05-1.76,0.07-2.64l2.57-0.03
				c0,0.01,0,0.02,0,0.03c0.14-3.1,0.26-6.19,0.38-9.24l0.25-6.35l2.57-0.01c0.1,1.85,0.18,3.7,0.26,5.56
				c0.12-3.65,0.25-7.3,0.38-10.96l0.93,0c0.25-3.24,0.66-6.47,1.23-9.66l2.55,0.21c0.04,4.03,0.14,8.1,0.29,12.17l0.78,0.01
				c0.02,0.91,0.04,1.83,0.06,2.74c0.23-6.07,0.44-12.23,0.58-18.32l2.57,0.03c0,0.2,0,0.4,0,0.61l1.71,0.05
				c0.08-2.09,0.14-4.18,0.2-6.24l0.15-4.6l2.57-0.02c0.31,6.68,0.49,13.29,0.6,19.65l1.19,0.01c0.05,1.78,0.1,3.57,0.18,5.36
				l2.32,0.02c0.02,0.44,0.04,0.87,0.06,1.31l1.01,0.05c0.02,0.43,0.04,0.87,0.07,1.31l1.5-0.01c0.15-2.71,0.32-5.41,0.51-8.1
				l2.57-0.01c0.26,3.41,0.48,6.83,0.7,10.25c0.21,3.29,0.42,6.65,0.68,10c0.14-1.77,0.26-3.55,0.33-5.31l2.4-0.01
				c0.03-0.68,0.07-1.36,0.1-2.04l2.56-0.09c0.36,2.98,0.66,5.98,0.88,9c0.05-0.93,0.1-1.87,0.13-2.79l2.57-0.06
				c0.03,0.3,0.35,2.56,0.63,4.55c0.15,1.07,0.26,1.88,0.33,2.5c0.05,0.3,0.07,0.47,0.08,0.53l-0.04,0.01
				c0.05,0.72-0.01,1.07-0.22,1.26c0.04,1.31,0.08,2.62,0.12,3.93c0.03-0.85,0.06-1.7,0.08-2.55l2.57,0.02
				c0.01,0.23,0.01,0.45,0.01,0.66l2.13,0c0.04,1.34,0.07,2.69,0.11,4.03l0.96,0.02c0.19,5.33,0.53,10.92,1.03,16.91l1.1-0.01
				c0.05,0.89,0.11,1.77,0.18,2.66l0.87,0.01c0.1-2.06,0.18-4.13,0.23-6.19c0-2.62,0.07-4.53,0.07-4.59l2.57,0.06
				c-0.01,1.8-0.04,3.61-0.09,5.42c0.04,6.25,0.6,11.63,1.22,12.53c-0.08-0.11-0.34-0.34-0.77-0.27l1.44,1.24
				c0.06,1.81,0.15,3.62,0.24,5.43l0.83,0.01c0,0.23,0.01,0.46,0.01,0.68l2.48-0.08c0.12,1.61,0.24,3.23,0.37,4.86
				c0.14-2.9,0.29-5.81,0.45-8.71c-0.07-0.21-0.09-0.52-0.06-0.99l-0.09-0.02l0.34-2.02c0.12-0.81,0.29-1.82,0.49-3.07
				c0.44-2.71,0.9-5.53,0.93-5.71l2.56,0.1c0.08,1.28,0.15,2.57,0.22,3.85l0.49,0.06c-0.54-4.39-0.63-5.77,0.78-6.17
				c0.24-0.07,0.46-0.07,0.67-0.03c0.08-3.06,0.17-6.12,0.27-9.18l2.56-0.08c0.16-1.57,0.27-3.13,0.3-4.65l2.57,0.01l0.13,7.38
				l0.51-0.01c0-0.01,0-0.02,0-0.03l0.36,0.03l0.34,0c0.11-1.15,0.23-2.29,0.37-3.44l0.57,0.03c0.04-0.25,0.08-0.53,0.13-0.83
				c0.24-1.47,0.69-4.19,0.72-4.55l1.53,0.02c0.3-7.65,0.73-10.62,1.35-11.84c0.45-6.12,0.69-12.36,0.69-18.54l0.75-0.05
				c-0.01-0.16-0.01-0.32-0.02-0.48c-0.15,0.11-0.26,0.24-0.31,0.36c0.09-0.21,0.25-1.03,0.3-1.36l1.43,0.08
				c0.27-1.8,0.54-3.63,0.71-5.44l2.11-0.02c0.01-0.2,0.02-0.4,0.03-0.6l2.57-0.06c0.88,9.06,1.44,17.92,1.68,26.41l0.71,0.02
				c0.01-0.65,0.03-1.3,0.03-1.95l0.91-0.02c0.12-2.74,0.29-5.48,0.52-8.2l2.57,0.05c0.03,0.69,0.06,1.37,0.1,2.06l0.97,0.01
				c0.01,1.57,0.03,3.15,0.07,4.73l1.71-0.07c0.06,0.93,0.12,1.85,0.17,2.78l0.9-0.02c0.02,0.79,0.03,1.46,0.05,2.02l0.67,0.02
				c0.03,1.79,0.08,3.58,0.13,5.37l0.59-0.01c0.21,4.05,0.38,8.13,0.5,12.2l0.57,0c0.09,2.01,0.19,4.03,0.3,6.04l0.77-0.01
				c0.21,2.27,0.54,4.57,0.85,6.8l0.5-0.01c0-0.01,0-0.01,0-0.02l0.71,0.01l0.31,0c0.25-6.74,0.61-12.62,1.11-18.28l2.57,0.06
				c0.13,3.23,0.38,6.71,0.7,10.1l0.95,0.02c0.02-0.66,0.03-1.32,0.05-1.98l2.57-0.08c0.08,0.91,0.16,1.83,0.23,2.76l1.92-0.02
				c0.11,2.2,0.22,4.49,0.33,6.82h1.1c0.01,0.43,0.01,0.87,0.02,1.3l0.85-0.01c0.13-5.88,0.37-11.79,0.84-17.64l2.55-0.14
				c0.1,0.5,0.17,1.01,0.24,1.51l0.04-0.01c0.01-0.21,0.01-0.42,0.02-0.63l2.57,0c0.11,4.12,0.24,7.93,0.38,11.52l1.05-0.01
				c0.1,3.82,0.19,7.63,0.29,11.45c0.18-0.69,0.55-1.34,1.5-1.17l1.06,1.2c0.01,0.22,0.03,0.44,0.04,0.66l2.47,0.04
				c0.15,3.92,0.33,7.84,0.51,11.76c0.01,0.15,0.01,0.29,0.02,0.44l1.82-0.02c0.16-2.95,0.3-5.89,0.43-8.8l1.91,0
				c0.03-0.41,0.05-0.83,0.08-1.24c0.18-2.98,0.36-5.95,0.52-8.93l2.57,0.02c0.03,0.67,0.05,1.34,0.08,2.01l1.1-0.04
				c0.43-6.21,0.72-12.66,0.89-19.55l1.18,0c0.31-1.65,0.64-3.32,1-4.97l0.57,0.05l0.12-3.88l2.57-0.01
				c0.01,0.22,0.02,0.44,0.02,0.66l0.69-0.01c0.09,1.59,0.18,3.18,0.26,4.76c0.12-0.95,0.24-1.83,0.35-2.68
				c0.89-6.67,1.48-11.07,2.16-23.07l2.57,0.05c0.04,1.79,0.12,3.58,0.21,5.36l0.78,0.01c0-0.2,0-0.4,0-0.6l0.88-0.01
				c0.09-4.38,0.15-8.7,0.19-12.87l2.57-0.07c0.07,1.11,0.15,2.22,0.23,3.34l0.85,0.02c0.02,0.22,0.04,0.44,0.06,0.65l0.88-0.04
				c0.18-2.72,0.44-5.42,0.78-8.11l2.23,0.06c0.19-1.4,0.4-2.79,0.63-4.17l2.55,0.11c0.03,0.23,0.43,3.37,0.69,5.35l0.02,0
				c0.07,0.55,0.12,0.98,0.16,1.31c0.02,0.16,0.04,0.26,0.04,0.3l-0.02,0c0.04,0.54,0,0.77-0.16,0.96
				c-0.01,0.51-0.01,1.05-0.02,1.61c-0.01,0.39-0.01,0.82-0.02,1.27l0.47,0.02c0.17-4.95,0.33-9.89,0.54-14.84l2.39,0.03
				c0.05-0.69,0.08-1.37,0.11-2.06l2.46,0c0.02-0.24,0.03-0.47,0.05-0.71l2.03,0.06c0.13-2.5,0.27-5,0.42-7.49
				c-0.04-5.05,0.28-9.75,0.77-12.36l2.55,0.32l-0.19,2.96c-0.19,3.08-0.39,6.18-0.57,9.31c0.07,6.9,0.82,14.27,2.56,17.21
				c0.26-2.42,0.49-4.86,0.62-7.28l2.57,0.01c0.26,5.57,0.47,11.17,0.61,16.69c0.11,0.01,0.22,0.04,0.35,0.07
				c0.03,0.01,0.05,0.01,0.08,0.02c0.21-3.37,0.53-3.82,1.26-3.9c0.24-6.58,0.5-13.1,0.84-19.66l2.56-0.09
				c0.26,2.06,0.48,4.13,0.67,6.2l2.55-0.02c0.25,4.1,0.46,8.37,0.64,12.88l1.51,0.01c0.31,7.43,0.55,14.96,0.77,22.34
				c0.09-0.36,0.18-0.7,0.28-1.01c0.04-0.57-0.06-2.46-0.13-3.98C639.56,572.27,639.52,571.39,640.63,571.18z"/>
			<path class="st3" d="M637.73,692.78c-0.15-10.49-0.3-21.26-0.91-31.95l-1.33,0c-0.33-6.29-0.54-12.64-0.68-18.95l-1.82-0.01
				c-0.19-3.85-0.41-7.72-0.65-11.59c-0.07,3.43-0.07,7.94,0.01,12.16v0.02v0l-2.12,0.04c-0.02,1.12-0.04,2.24-0.03,3.36l-2.57,0.04
				c-0.01-0.44-0.02-0.88-0.04-1.33l-1.75-0.03c-0.06-2.68-0.22-5.35-0.37-8.02c-0.02-0.36-0.04-0.72-0.06-1.08
				c-0.03,0-0.05,0-0.08,0c-0.64-0.03-1.06-0.12-1.37-1.15c-0.07,0.95-0.13,1.89-0.18,2.84l-2.1-0.03c0,0.04,0,0.09,0,0.13
				c0.1,0.59-0.01,1.17-0.06,1.44l-2.55-0.27c0.01-0.22,0.01-0.44,0.02-0.67l-0.28-0.16l-0.02,0.89l-1.23,0.02
				c-0.09,2.02-0.17,4.05-0.2,6.06l-2.57,0.04c-0.03-0.53-0.06-1.73-0.09-3.26c-0.05-1.95-0.13-5.31-0.24-8.16l-0.16,0.01
				c-0.2,8.24-0.46,16.69-1.23,25.01l-1.36-0.02c-0.03,0.44-0.05,0.87-0.07,1.31l-2.57-0.04c-0.02-1.33-0.05-2.66-0.09-3.99
				l-0.62-0.03c-0.09,0.72-0.18,1.44-0.29,2.16l-1.56-0.1c-0.07,1.35-0.14,2.69-0.21,4.04l-2.57,0.01
				c-0.03-0.44-0.05-0.88-0.08-1.32l-0.65-0.02c-0.11,1.79-0.21,3.58-0.27,5.37l-2.57,0.06c-0.06-0.68-0.11-1.36-0.16-2.05
				l-0.82,0.08c-0.01,0.29-0.02,0.59-0.02,0.88c0.01,0.33,0.01,0.66,0,0.99l-0.58,0l-0.13,4.04l-1.22,0.07
				c-0.29,5.41-0.47,10.83-0.57,16.22l-2.57,0.09c-0.19-2.28-0.39-4.56-0.6-6.84c-0.01,0.25-0.03,0.51-0.05,0.76l-0.52-0.04
				c-0.06,1.35-0.12,2.71-0.19,4.06l-2.57-0.02c-0.07-2.07-0.19-4.14-0.32-6.21c-0.56,5.3-0.88,9.91-1.02,14.33l-2.5,0.08
				c-0.67,8.37-1.09,16.59-1.43,24.31l-2.18,0c-0.13,4.53-0.34,9.07-0.67,13.57l-2.57,0.02c-0.08-0.84-0.15-1.69-0.21-2.54
				c-0.18,3.3-0.33,6.59-0.48,9.83c-0.2,4.33-0.4,8.65-0.66,12.97l-2.57-0.03c-0.31-8.31-0.61-16.63-0.91-24.94
				c-0.1,1.96-0.2,3.92-0.3,5.86l-0.15,2.85l-2.57,0.01c-0.29-5.16-0.5-10.29-0.67-15.57l-1.47-0.01c-0.03-0.46-0.05-0.93-0.08-1.39
				l-1.7-0.01c-0.14-8.28-0.51-16.71-0.88-24.85c-0.01-0.1-0.01-0.21-0.02-0.31c-0.11,0.05-0.23,0.08-0.37,0.1
				c-0.09,1.2-0.18,2.39-0.28,3.59c-0.21,2.66-0.42,5.32-0.53,7.98l-1.04,0.06c-0.01,0.21-0.02,0.41-0.03,0.62l-2.57-0.07
				c0.01-2.43-0.02-4.88-0.09-7.33l-0.01,0c-0.17,1.72-0.37,3.42-0.56,5.1c-0.24,2.14-0.49,4.28-0.69,6.43l-2.04,0.32
				c-0.15,1.26-0.31,2.52-0.47,3.78l-1.96-0.08c-0.07,2.67-0.12,5.36-0.17,8.06l-2.57,0.04c-0.22-4.19-0.41-8.38-0.59-12.57
				c-0.3,10.75-0.72,12.94-1.53,13.48c-0.08,2.01-0.19,4.01-0.31,6.02c-0.14,2.42-0.28,4.84-0.35,7.26l-2.57,0.04
				c-0.4-6.75-0.88-13.62-1.45-20.46c-0.09,0-0.17,0-0.26-0.01c-0.12-0.02-2.87-0.49-2.44-12.75c0.01-0.29,0.03-0.79,0.22-1.21
				l0-0.68c-0.03-6.84-0.11-12.05-0.24-15.6c-0.02,0.22-0.03,0.43-0.05,0.65l-2.56,0.04c-0.05-0.44-0.09-0.88-0.13-1.32l-1.31-0.11
				c-0.14-3.23-0.3-6.46-0.47-9.69c-0.06,0.35-0.12,0.7-0.18,1.05l-2.55-0.13c-0.13-1.64-0.25-3.28-0.38-4.92
				c-0.07-0.01-0.13-0.02-0.2-0.03c-0.03,0.13-0.07,0.27-0.1,0.41l-2.54-0.21c-0.02-0.24-0.03-0.48-0.05-0.71l-2.09,0.02
				c-0.04-0.67-0.08-1.33-0.11-2l-0.95,0.04l-0.03-0.26c-0.49-4.56-0.92-8.51-1.27-12.74c-0.79,9.77-1.24,19.2-1.74,29.69
				c-0.25,5.21-0.51,10.63-0.83,16.41l-1.77-0.02c-0.01,0.21-0.01,0.43-0.01,0.64l-2.57,0.09c-0.18-2.28-0.34-4.55-0.5-6.83
				l-1.27,0.14c-0.04-0.25-0.06-0.5-0.06-0.74c-0.15-1.73-0.31-3.46-0.48-5.18l-0.4-0.06c-0.13,3.53-0.27,7.05-0.41,10.58
				l-2.57,0.09c-0.13-1.15-0.26-2.31-0.38-3.47l-2.2-0.03c-0.38,2.89-0.66,5.72-0.93,12.22l-0.88,0c-0.08,1.35-0.15,2.7-0.19,4.05
				l-0.69,0.01c-0.31,6.67-0.66,13.55-1.09,20.34l-2.56,0.07c-0.11-0.94-0.22-1.88-0.31-2.82l-1.33,0.03
				c-0.03,0.24-0.05,0.49-0.08,0.73l-2.57-0.16c0.06-2.41,0.06-4.82-0.01-7.23l-2.48-0.17l-0.05-4.87c-0.03-3.28-0.07-6.6-0.12-9.93
				l-2.33-0.12c0.03-2.87-0.08-5.8-0.18-8.63c-0.02-0.43-0.03-0.86-0.05-1.29l-0.82,0.03c-0.14-0.67-0.11-1.46-0.08-2.22
				c0.01-0.2,0.02-0.41,0.02-0.63l-1.01,0.14c-0.26-1.3-0.52-2.23-0.73-2.87l-0.09,0.04c-0.36-0.46-0.73-1.04-0.9-1.61
				c0,0.07-0.01,0.14-0.01,0.21l-2.57,0.02c-0.05-0.68-0.1-1.36-0.15-2.05l-0.13,4.69l-2.57,0.02c-0.05-1.36-0.11-2.72-0.18-4.08
				l-1.96-0.01l-0.22-12.13l-0.86-0.02c-0.09-2.03-0.27-4.05-0.45-6.06l-0.47-0.01c-0.02,0.89-0.05,1.77-0.07,2.66l-2.57,0.02
				c-0.14-3.81-0.36-7.63-0.62-11.46l-1.68-0.02c-0.15,1.82-0.32,3.64-0.49,5.46l-2.57-0.1c-0.05-2.96-0.11-5.85-0.17-8.7
				l-0.34-0.01l-0.09,5.32c0.03,0.7,0.02,1.41-0.04,2.11l-0.5-0.03c-0.06,1.58-0.13,3.16-0.22,4.73l-2.57-0.01
				c-0.2-4.65-0.37-9.57-0.5-14.86l-0.34-0.01c-0.07,2.46-0.13,4.92-0.16,7.38l-2.56,0.16c-0.54-3.83-1.24-9.9-1.86-16.76
				l-0.27,0.09c0.02,0.28,0.04,0.56,0.05,0.84l-2.55,0.3c-0.05-0.26-0.1-0.55-0.13-0.85c-0.16,2.06-0.33,4.11-0.53,6.16l-0.64-0.02
				c-0.19,4.54-0.45,9.07-0.78,13.54l-2.55,0.13c-0.14-0.77-0.24-1.55-0.3-2.33l-1.14-0.59c-0.09-5.76-0.3-11.47-0.57-17.05
				c-0.01,0.42-0.02,0.84-0.03,1.26c0.01,0.55,0,1.1-0.04,1.65l-0.55-0.03c-0.06,1.57-0.12,3.15-0.17,4.72l-1.16,0
				c-0.15,6.12-0.48,12.26-0.99,18.34l-1.91-0.07c-0.17,4.66-0.36,9.4-0.58,14.24l-2.57,0.02c-0.14-2.22-0.26-4.45-0.35-6.69
				l-1.05,0.08c-0.38-1.95-0.72-3.95-1.01-6.01c-0.1,2.25-0.21,4.64-0.36,7.19l-1.32,0c-0.27,6.7-0.39,13-0.46,18.23l-1.28,0.13
				c-0.1,2.4-0.19,4.87-0.15,7.28l-0.97,0.04c-0.05,2.73-0.07,5.91-0.08,7.76c-0.01,1.44-0.01,2.56-0.03,3.07l-2.57-0.03
				c-0.01-8.41-0.06-17.32-0.52-26.35l-1.26,0.03c-0.04-0.7-0.07-1.33-0.05-1.87c-0.02,0-0.05-0.01-0.07-0.01
				c-0.55-0.07-1.19-0.42-1.12-1.71c0.02-0.25,0.04-0.64,0.05-1.11l-0.5-0.04c-0.4,4.7-0.65,9.44-0.73,14.15l-1.24,0.04
				c-0.06,1.13-0.13,2.27-0.19,3.4l-2.57-0.08c0.02-3.61-0.18-7.23-0.57-10.82c-0.28,5.18-0.42,10.4-0.43,15.57l-1.51,0.02
				c-0.27,5.56-0.6,10.98-0.99,16.32l-2.57-0.03c-0.05-0.98-0.12-3.12-0.2-5.75c-0.12-4.06-0.32-10.55-0.56-14.57l-0.12,0
				c-0.14,3.39-0.29,6.78-0.48,10.17l-2.57-0.03c-0.15-4.9-0.41-9.8-0.66-14.7c-0.19-3.59-0.38-7.26-0.53-10.93l-0.94-0.01
				c0-0.01,0-0.02-0.01-0.04c-0.11,1.12-0.21,2.22-0.28,3.37l-2.57-0.07c-0.03-2.33-0.14-4.7-0.26-7.02
				c-0.18,5.49-0.4,11.06-0.74,16.56l-2.57-0.02c-0.06-1.35-0.12-2.71-0.17-4.08l-1.25,0.02c-0.04-0.9-0.08-1.8-0.12-2.7l-0.59-0.01
				c-0.18,7.22-0.37,14.43-0.64,21.65l-2.57,0.03c-0.13-2.23-0.3-4.46-0.48-6.68c-0.09-1.09-0.18-2.19-0.26-3.3
				c-0.1-0.01-0.2-0.02-0.32-0.04l-1.4-0.08c-0.11,3.74-0.19,7.47-0.26,11.15c-0.1,5.29-0.21,10.58-0.42,15.86l-2.57-0.02
				c-0.01-0.29-0.01-0.58-0.02-0.87c-0.07,3.68-0.15,7.36-0.27,11.04h-2.57c-0.14-4.45-0.26-8.93-0.37-13.41
				c-0.09,0.89-0.17,1.78-0.27,2.67l-0.68-0.02c-0.01,0.19-0.02,0.39-0.02,0.6l-1.54-0.03c-0.08,1.44-0.16,2.82-0.24,4.12
				l-0.99,0.03c-0.02,0.65-0.04,1.3-0.07,1.95c4.23,5.52,8.87,10.71,13.9,15.53l2.5-0.04c0.01,0.21,0.02,0.42,0.03,0.63l2.16,0
				c0.1-4.85,0.27-9.87,0.59-14.88l2.57,0.08c0,0.67,0.01,1.33,0.02,2l1.42,0.03c0.05,6.15,0.18,11.42,0.44,16.22
				c0.25-1.77,0.53-3.79,0.56-4.1l0.62,0.01c0.03-1.12,0.06-2.23,0.1-3.35l2.57-0.03c0.28,5.06,0.46,10.17,0.61,15.24
				c2.76,2,5.61,3.9,8.54,5.7c0.02-0.42,0.04-0.85,0.05-1.27l2.41-0.07c0.12-2.04,0.27-4.07,0.45-6.1l2.57,0.03
				c0.25,3.55,0.45,7.18,0.62,10.92c0.3,0.17,0.61,0.31,0.92,0.48c0.07-1.97,0.14-3.94,0.17-5.91l2.57-0.08
				c0.18,2.53,0.31,5.08,0.43,7.62c0.29,0.15,0.58,0.31,0.87,0.45c0.28-5.25,0.48-10.5,0.67-15.64c0.22-5.94,0.45-12.09,0.8-18.14
				h0.76c0.13-2.02,0.25-4.03,0.3-6.05l2.57-0.04c0.23,3.61,0.49,7.24,0.76,10.84l1.97,0.03c0.17-5.85,0.25-11.68,0.33-17.43
				l0.07-4.89l2.33-0.08l0.16-10.75l2.57-0.02c0.05,1.56,0.1,3.12,0.14,4.67l1.62-0.09c0.76,4.97,1.16,6.43,1.36,6.78
				c-0.09-0.15-0.45-0.47-0.99-0.41l1.43,1.26c0.01,0.66,0.02,1.31,0.04,1.97l0.55-0.25c0.4,0.32,0.8,0.7,1.15,1.17
				c0.38-5.31,0.85-10.63,1.41-15.87l2.54-0.14c0.04,0.16,0.07,0.33,0.11,0.49l0.2-11.08l2.57-0.08c0.4,5.1,0.64,10.21,0.81,14.96
				l0.98,0.02c0,0.22,0.01,0.44,0.01,0.66l2.49,0c0.11,4.63,0.27,9.5,0.5,14.88l0.04,0c-0.03-0.61-0.07-1.11-0.08-1.31l0.11-0.01
				c0.05-1.3,0.37-1.33,1.04-1.39l0.2,0.16c0.31-4.11,0.52-8.23,0.62-12.33l0.95-0.03c0.04-0.47,0.09-0.94,0.13-1.41l2.57,0.1
				c0.05,3.98,0.12,7.79,0.21,11.46l0.65-0.01c0.13-3.38,0.29-6.79,0.49-10.16l2.57,0.04c0.13,3.99,0.28,7.99,0.45,11.98
				c0.07-1.51,0.13-3.02,0.18-4.53l2.57-0.01c0.15,4.12,0.4,8.23,0.66,12.34c0.18,2.84,0.35,5.74,0.5,8.65l0.63,0.01
				c0.01,0.46,0.03,0.86,0.04,1.22l0.66-0.02c0.63,4.13,1.15,7.86,1.58,11.31c0.18-2.16,0.35-4.32,0.51-6.47l2.56-0.04
				c0.02,0.19,0.04,0.38,0.06,0.57l2.44,0.23c0.03,2.47,0.1,4.94,0.18,7.41c0.06,2.01,0.12,4.05,0.16,6.1
				c0.9,0.34,1.09,2.18,1.3,13.21c0.03-0.57,0.05-1.14,0.07-1.71l1.41,0.02c0.23-2.75,0.47-5.5,0.74-8.22l2.57,0.06
				c0.11,2.19,0.21,4.39,0.31,6.58c0.22,4.77,0.45,9.63,0.79,14.5c0.45,0.01,0.9,0.04,1.36,0.05c0.12-2.98,0.23-5.96,0.32-8.92
				l2.57,0.02c0.04,2.99,0.09,5.98,0.14,8.96c0.01,0,0.03,0,0.04,0c0.22-4.9,0.49-9.73,0.82-14.45l0.81,0.01
				c0.09-1.58,0.17-3.16,0.25-4.73l1.31-0.01c0.26-3.81,0.53-7.66,0.83-11.52l0.73,0.01c0.1-2.48,0.21-4.96,0.34-7.43h2.06
				c0.03-0.46,0.06-0.91,0.08-1.37l2.57,0.07c0.01,1.32,0.03,2.63,0.06,3.95l1-0.03c0.15,1.27,0.25,2.55,0.31,3.83
				c0.09,0.06,0.17,0.14,0.24,0.22c0.1-0.08,0.2-0.15,0.31-0.22l1.46,0.72c0.04-1.25,0.08-2.49,0.11-3.74l1.62-0.05
				c0.16-3.39,0.33-6.77,0.52-10.15l2.23,0.04c0.08-0.94,0.17-1.88,0.27-2.82l1.33-0.35l0.07-0.66c-0.49,0.04-0.76,0.35-0.81,0.45
				c0.57-1.11,1.41-9.76,1.9-30.48l2.57-0.01c0.17,5.71,0.42,11.41,0.67,17.12c0.03,0.56,0.05,1.13,0.07,1.69l0.3,0.04
				c0.19-2.04,0.42-4.09,0.69-6.11l2.56,0.12c0.07,2.02,0.13,4.05,0.2,6.08l1.94,0.02c0.02,0.98,0.05,1.95,0.08,2.93
				c0.17-1.21,0.36-2.46,0.58-3.78l2.54-0.02c0.33,1.86,0.61,3.73,0.83,5.61l1.33,0.01l0.06,3.32l2.08,0.06
				c0.01,0.55,0.01,1.59-0.01,2.87c-0.01,1.33-0.03,3.53,0,5.55c0.08,0.09,0.13,0.17,0.17,0.26l1.63,0.12
				c0.21,6.77,0.48,13.54,0.75,20.31l0.68,0.01c0.06,2.26,0.16,4.52,0.27,6.78l0.8,0.01c0.01,2.63,0.09,4.67,0.21,6.43
				c0.03-0.18,0.06-0.36,0.09-0.54l2.27,0.15c0.33-5.8,0.41-11.61,0.5-17.31l0.06-3.63l2.57,0l0.16,8.99
				c0.06,3.51,0.12,7.06,0.19,10.62l1.79-0.07c0.01,0.1,0.02,0.19,0.03,0.29c0.1-1.66,0.19-3.32,0.26-4.98l2.09,0.01
				c0.02-0.25,0.05-0.5,0.07-0.74l2.01-0.01c0.18-1.79,0.36-3.58,0.48-5.38l1.66-0.02c0.32-6.04,0.7-12.46,1.19-18.95l2.57,0.08
				c0.04,2.62,0.21,5.29,0.37,7.88c0.06,0.97,0.12,1.93,0.18,2.9l1.22-0.03c0.47,5.41,0.74,10.86,0.95,16.23
				c3.71-1.75,7.35-3.64,10.9-5.71c0.03-5.05,0.08-10.13,0.21-15.18l2.57-0.03c0.08,1.71,0.15,3.42,0.21,5.14
				c0.03-0.8,0.05-1.6,0.07-2.41l2.57-0.01c0.04,1.14,0.09,2.3,0.15,3.45c0.05-0.7,0.1-1.4,0.14-2.12l0.65-0.59
				c-0.04-0.32-0.09-0.6-0.14-0.82c-0.61-1.51-0.3-1.87-0.03-2.17l1.47-0.34c0.04,0.02,0.08,0.04,0.12,0.06
				c0.16-2.77,0.31-5.54,0.43-8.31l2.57,0.03c0.05,1.91,0.12,3.82,0.22,5.73c0.02-1.23,0.04-2.47,0.06-3.69l0.67-0.06
				c0.12-1.83,0.25-3.65,0.4-5.44l2.46,0.06c0.06-1.35,0.08-2.69,0.04-3.97l2.53-0.25c0.14-6.25,0.23-12.66,0.32-19.45l2.57-0.01
				c0.02,0.71,0.03,1.41,0.05,2.12c0.23-2.99,0.43-5.97,0.6-8.93l0.92,0.02c0.06-1.35,0.11-2.69,0.14-4.04l0.62-0.04
				c0.03-0.46,0.07-0.92,0.1-1.38l2.57,0.09c0,0.21,0.01,0.42,0.01,0.63l1.06-0.01c0.03,0.64,0.07,1.28,0.1,1.92
				c0.17-3.13,0.34-6.26,0.54-9.38l2.57,0.05c0.12,4.56,0.25,9.11,0.38,13.66c0.1,3.56,0.2,7.12,0.3,10.68l0.43-0.01
				c0.06-3.06,0.09-6.1,0.12-9.1c0.08-8.12,0.16-16.52,0.84-24.78l2.57,0.09c0.04,3.68,0.47,7.12,1,10.63l0.92,0.06
				c0.07-2.44,0.12-4.88,0.15-7.31l2.57-0.01c0.01,0.85,0.03,1.66,0.05,2.44c0.1-4.46,0.15-8.89,0.2-13.27l0.04-3.38l2.56-0.15
				c0.52,3.93,0.85,6.41,1.06,8.85l1.8-0.03c0.47,4.24,1.25,6.35,1.74,7.31c0.94,0.66,1.33,1.45,1.07,2.19l-0.61,0.38
				c0.02,1.19,0.03,2.66,0.04,4.26c0.02,3.04,0.05,8.04,0.28,10.83l0.03,0c0.08-1.52,0.17-3.04,0.23-4.56l0.99-0.04
				c0.04-1.1,0.06-2.21,0.09-3.31l1-0.01c0.19-3.53,0.55-4,1.29-4.11c0.07-1.8,0.14-3.59,0.21-5.39l2.57-0.01
				c0.17,3.15,0.37,6.31,0.62,9.48l1.87,0.04c0.02,0.62,0.04,1.27,0.06,1.9c0.88-1.94,1.74-3.89,2.54-5.89l-1.25-0.01
				C637.87,702.6,637.8,697.69,637.73,692.78z"/>
			<path class="st4" d="M478.44,314.1c7.42,7.67,13.59,16.49,18.52,26.46c3.57,7.24,6.72,14.89,9.44,22.96
				c0.01,0.04,0.03,0.07,0.04,0.11c0.29,0.67,1.07,0.98,1.74,0.68c0.65-0.28,1.09-0.78,1.31-1.49
				c4.98-16.23,12.71-31.27,23.42-44.39c2.88-3.51,6.22-6.47,9.49-9.62c1.24-1.19,1.18-2.69,0.94-4.27
				c-2.1-13.61-5.81-26.88-11.11-39.81c-3.91-9.55-9.06-19.75-15.45-30.62c-2.26-3.84-6.43-11.33-11.87-7.56
				c-1.65,1.15-3.08,2.69-4.28,4.62c-13.81,22.3-24.24,47.28-28.19,73.13c-0.24,1.59-0.26,3.25,0.92,4.5
				C475.01,310.54,476.7,312.3,478.44,314.1z"/>
			<path class="st5" d="M344.36,273.04c2.82,1.82,5.77,2.89,8.61,4.49c17.33,9.81,31.8,21.62,42.48,38.27
				c4.12,6.42,6.54,12.97,7.28,19.64c0.24,2.16,1.38,3.62,3.4,4.41c6.29,2.44,12.81,4.75,18.89,7.93
				c12.45,6.53,23.77,14.69,33.98,24.47c12.24,11.74,23.1,24.28,33.56,38.46c0.91,1.25,2.04,2.11,3.36,2.59
				c0.29,0.11,0.61,0.09,0.88-0.05c1.55-0.79,2.26-2.08,2.13-3.88c-0.59-8.41-1.86-16.62-3.82-24.62
				c-6.37-26.14-20.21-51.28-37.15-72.86c-6.57-8.38-13.8-15.17-21.68-20.38c-26.26-17.4-56.89-24.83-88.48-24.18
				c-1.9,0.04-3.31,0.72-4.22,2.05C342.6,270.85,342.85,272.06,344.36,273.04z"/>
			<path class="st5" d="M519.6,413.36c0.31,0.07,0.6,0.01,0.86-0.18c0.73-0.51,1.32-1.06,1.78-1.63
				c4.25-5.25,8.78-10.94,13.59-17.07c6.19-7.87,13.33-15.36,20.67-22.45c14.87-14.34,32.19-25,51.96-31.98
				c2.24-0.79,4.37-2.03,4.6-4.79c0.45-5.29,1.87-10.14,4.27-14.55c11.96-22.05,31.44-35.8,53.05-47.31c4.4-2.34,0.58-5.8-2.44-5.89
				c-24.92-0.75-48.75,4.05-71.48,14.38c-16.11,7.32-29.1,17.29-38.97,29.92c-21.85,27.95-38.42,60.86-40.79,95.64
				C516.52,409.98,516.55,412.71,519.6,413.36z"/>
			<path class="st4" d="M329.84,370.1c1.02,0.21,3.37,0.58,7.05,1.12c15.62,2.31,29.57,8.52,41.25,19.44
				c1.06,0.99,2.16,1.31,3.31,0.97c3.03-0.9,5.98-1.78,8.85-2.62c9.9-2.89,20.19-4.3,30.84-4.21c4.86,0.04,10.03,0.18,15.5,0.41
				c1.87,0.08,4.63-1.68,3.6-3.88c-0.44-0.95-1.03-1.8-1.77-2.54c-8.39-8.54-19.14-15.31-30.01-20.27
				c-23.52-10.75-52.06-11.44-75.36,0.96c-2.04,1.08-3.77,2.31-5.21,3.69C325.46,365.52,326.21,369.37,329.84,370.1z"/>
			<path class="st4" d="M612.43,356.19c-14.06,5.26-25.98,12.82-35.75,22.68c-1.94,1.95-2.58,4.44,0.26,6.21
				c0.36,0.22,0.75,0.32,1.17,0.31c4.49-0.18,8.91-0.34,13.28-0.48c9.53-0.3,18.71,0.58,27.57,2.5c1.34,0.29,2.69,0.54,4.01,0.88
				c0.2,0.05,0.39,0.12,0.59,0.17c0.53,0.14,1.03,0.3,1.55,0.44c0.91,0.25,1.81,0.52,2.71,0.78c1.96,0.56,3.95,1.08,5.88,1.68
				c1.74,0.55,3.34,0.13,4.82-1.25c9.57-8.91,21.01-14.81,34.33-17.69c3.76-0.81,7.86-1.58,12.3-2.31c2.6-0.43,4-1.77,4.21-4.04
				c0.04-0.38-0.07-0.76-0.31-1.06c-1.05-1.37-2.29-2.53-3.7-3.51c-7.84-5.37-17.04-8.55-26.4-10.02
				C642.97,348.99,627.45,350.56,612.43,356.19z"/>
			<path class="st5" d="M414.55,450.77c0.07,0.03,0.14,0.06,0.21,0.09c0.15,0.06,0.3,0.13,0.45,0.19c0.54,0.23,1.08,0.44,1.62,0.69
				c2.45,1.14,4.75,2.53,7.02,4c1.2,0.78,2.4,1.58,3.59,2.39c0.05,0.03,0.1,0.07,0.15,0.1c1.79,1.23,3.74,1.5,5.69,0.41
				c0.84-0.47,1.7-0.89,2.55-1.34c0.17-0.09,0.34-0.18,0.51-0.27c2.34-1.22,4.71-2.38,7.11-3.46c1.21-0.54,2.42-1.06,3.65-1.56
				c1.04-0.43,2.08-0.86,3.14-1.27c0.62-0.24,1.24-0.46,1.86-0.69c0.91-0.33,1.82-0.64,2.74-0.95c8.46-2.88,17.29-4.94,26.49-6.16
				c0.64-0.08,1.26-0.2,1.9-0.27c2.74-0.33,5.58-0.63,8.49-0.89c1.33-0.13,2.64-0.84,3.43-1.87c0.69-0.9,0.99-2.05,0.48-3.3
				c-0.62-1.51-1.59-2.98-2.73-4.39c-0.1-0.13-0.21-0.26-0.31-0.38c-0.88-1.06-1.84-2.07-2.83-3.04c-0.67-0.65-1.34-1.28-2-1.89
				c-0.24-0.22-0.5-0.41-0.74-0.62c-2.11-1.88-4.33-3.64-6.62-5.31c-2.89-2.1-5.9-4.03-9.03-5.79c-0.65-0.37-1.31-0.73-1.97-1.08
				c-0.93-0.49-1.85-0.98-2.8-1.44c-1.05-0.52-2.12-1.02-3.19-1.49c-1.03-0.46-2.06-0.89-3.11-1.31
				c-5.03-2.05-10.22-3.73-15.48-4.95c-17.21-3.99-35.88-3.86-56.01,0.4c-14.67,3.1-27.8,8.01-39.39,14.73
				c-11.62,6.73-20.72,15.61-29.2,26.23c-2.3,2.88-6.34,8.2-4.26,11.76c0.03,0.04,0.04,0.09,0.07,0.14
				c0.77,1.21,1.69,1.97,2.76,2.28c1.12,0.32,2.39,0.16,3.84-0.49c7.25-3.3,14.6-7.1,22.06-9.72
				C366.61,442.6,392.85,441.55,414.55,450.77z"/>
			<path class="st5" d="M700.2,455.51c-0.36-1.79-1.09-3.51-2.2-5.14c-3.52-5.2-7.44-9.96-11.73-14.33c-0.3-0.31-0.59-0.64-0.9-0.95
				c-0.84-0.83-1.72-1.62-2.58-2.42c-0.08-0.07-0.15-0.14-0.23-0.21c-0.11-0.1-0.21-0.2-0.32-0.29c-3.63-3.31-7.5-6.36-11.64-9.13
				c-0.41-0.28-0.8-0.58-1.22-0.85c-3.43-2.22-7.04-4.24-10.81-6.11c-0.38-0.19-0.73-0.4-1.12-0.58c-0.58-0.28-1.16-0.52-1.74-0.79
				c-1.24-0.58-2.48-1.16-3.73-1.69c-0.07-0.03-0.14-0.07-0.21-0.1c-1.42-0.61-2.86-1.16-4.3-1.72c-0.64-0.25-1.28-0.51-1.92-0.74
				c-0.29-0.11-0.58-0.2-0.86-0.3c-2.39-0.87-4.81-1.65-7.25-2.38c-1.43-0.43-2.86-0.84-4.31-1.22c-0.06-0.02-0.12-0.03-0.18-0.05
				c-0.84-0.22-1.68-0.42-2.53-0.62c-0.59-0.14-1.17-0.3-1.75-0.43c-1.3-0.29-2.61-0.55-3.92-0.8c-0.01,0-0.02,0-0.03-0.01
				c-0.88-0.17-1.75-0.37-2.63-0.52c-0.4-0.07-0.81-0.12-1.21-0.19c-1.91-0.32-3.82-0.61-5.75-0.85c-0.06-0.01-0.13-0.01-0.19-0.02
				c-1.8-0.22-3.61-0.43-5.44-0.58c-2.16-0.18-4.32-0.3-6.49-0.38c-23.94-0.83-48.45,5.08-67.68,18.99c-1.37,0.99-2.72,2-4.04,3.07
				c-0.36,0.29-0.7,0.62-1.05,0.92c-1.75,1.48-3.44,3.04-5.08,4.66c-0.03,0.03-0.06,0.06-0.09,0.09c-0.78,0.78-1.59,1.54-2.34,2.35
				c-0.31,0.34-0.72,0.82-1.12,1.36c-1.07,1.42-2.17,3.34-1.87,4.66c0.23,1,0.86,1.78,1.66,2.38c1.15,0.85,2.67,1.32,4.03,1.42
				c0.02,0,0.03,0,0.05,0.01c4.85,0.31,9.63,0.88,14.35,1.69c0.9,0.15,1.78,0.34,2.67,0.51c0.6,0.11,1.19,0.24,1.79,0.36
				c0.88,0.18,1.77,0.34,2.64,0.54c1.33,0.3,2.65,0.66,3.98,1c3.44,0.89,6.86,1.89,10.22,3.06c0.86,0.3,1.7,0.62,2.55,0.94
				c1.98,0.73,3.94,1.49,5.89,2.32c4.31,1.83,8.56,3.87,12.74,6.16c1.19,0.65,2.54,0.86,3.81,0.46c0.39-0.12,0.77-0.29,1.14-0.54
				c2.61-1.74,4.8-3.12,6.66-4.22c1.26-0.74,2.41-1.37,3.33-1.82c12.52-6,26.55-8.56,40.57-8.27c1.02,0.02,2.04,0.08,3.06,0.13
				c13.44,0.68,26.76,3.93,38.6,9.34c3.78,1.73,7.88,3.71,12.3,5.93c2.45,1.23,4.65,1.21,6.6-0.08
				C699.92,458.51,700.54,457.17,700.2,455.51z"/>
			<path class="st3" d="M569.08,475.98c-0.18-1.82-0.34-3.5-0.46-6.06l-0.38,0c-0.03,1.34-0.06,2.68-0.09,4.02l-2.57,0.07l-0.25-3.4
				l-0.97,0.17c-0.04,0.63-0.09,1.26-0.14,1.89l-2.57-0.05c-0.03-0.68-0.06-1.37-0.09-2.05l-1.69-0.01
				c-0.04-2.47-0.15-4.96-0.25-7.44c-4.97-2.02-10.11-3.82-15.46-5.31c-7.09-1.98-14.36-3.33-21.71-4.09
				c-0.26,2.25-0.51,4.5-0.67,6.76l-2.57-0.08c-0.01-1.13-0.02-2.12-0.03-2.99c-0.16,2.18-0.37,4.35-0.62,6.52l-2.38-0.1
				c-0.03,0.65-0.06,1.3-0.08,1.95c-0.12,2.96-0.24,5.93-0.39,8.89l-1.53,0c-0.1,1.35-0.18,2.7-0.25,4.06l-0.61,0l-0.1,3.37
				l-2.57,0.06c-0.32-4.24-0.58-8.52-0.78-12.8c-0.09,0.85-0.18,1.66-0.26,2.47c-0.38,3.51-0.74,6.83-1.02,12.33l-2.57,0.02
				c-0.14-2.1-0.27-4.21-0.39-6.32c-0.1,0.76-0.18,1.53-0.25,2.29l-2.57-0.08c-0.01-0.2-0.01-0.4-0.02-0.59l-0.68,0.03
				c-0.07-0.59-0.08-1.33-0.06-2.04l-0.66-0.05c-0.36-5.17-0.65-10.41-0.92-16.15l-0.36,0.03c-0.02,0.37-0.03,0.81-0.04,1.06
				c-0.01,0.5-0.04,0.9-0.07,1.03l-1.26-0.1c-0.05,0.45-0.1,0.89-0.15,1.34l-0.89-0.03c-0.06,1.12-0.12,2.23-0.17,3.33l-2.57-0.05
				c-0.02-5.03-0.55-10.16-1.06-14.07c-0.75,0.08-1.49,0.17-2.24,0.26c-0.06,1.45-0.12,2.9-0.18,4.37l-2.57-0.02
				c-0.03-1.32-0.07-2.64-0.1-3.96c-0.16,0.02-0.32,0.05-0.49,0.07c-0.02,0.41-0.04,0.82-0.06,1.22l-2.57-0.02
				c-0.01-0.26-0.04-0.53-0.06-0.79c-33.24,5.6-65.47,23.45-89.1,53.67c-1.44,1.84-2.82,3.76-4.16,5.7
				c-0.02,0.56-0.04,1.12-0.07,1.69l-1.07-0.01c-6.43,9.63-11.64,20.24-15.49,30.73c0.03,0.1,0.06,0.22,0.09,0.32
				c0.04,0.14,0.07,0.23,0.08,0.26l-0.02,0.01c0.1,0.54,0.09,0.98-0.2,1.3c0.73,4.92,0.84,5.89,0.18,6.22
				c0.03,3.4,0.29,6.92,0.78,10.52c0.11-2.02,0.2-4.07,0.23-6.08l2.57-0.07c0.16,2.23,0.3,4.49,0.43,6.76
				c0.08-1.12,0.16-2.23,0.21-3.34l2.57-0.03c0.07,0.88,0.66,5.19,1.14,8.65c0.09,0.63,0.17,1.19,0.23,1.7
				c0.14-3.65,0.25-7.31,0.34-10.96h2.57c0.01,0.41,0.01,1.17,0,2.12c-0.01,1.02-0.01,2.76,0.01,4.49l2.13,0.14
				c0.11,2.26,0.3,4.51,0.49,6.77l0.94,0c0.08,1.79,0.14,3.59,0.21,5.38l0.12-0.01c0.09-2.69,0.19-5.39,0.32-8.08l2.56-0.1
				c0.1,0.81,0.19,1.61,0.28,2.42c0.24-4.93,0.49-9.69,0.77-14.72c-0.5-0.43-0.63-1.01,0.21-3.53c0.03-0.56,0.07-1.13,0.1-1.71
				l0.85-0.94c0.1-0.25,0.2-0.52,0.3-0.79l1.59,0.21c0.05-1.05,0.09-2.11,0.11-3.16l0.67-0.03c0.01-0.2,0.03-0.43,0.04-0.68l1.7,0
				l0.08-4.7l2.57-0.12c0.07,0.64,0.14,1.26,0.21,1.85c0.05-1.1,0.23-2.85,0.53-5.65c0.29-2.76,0.59-5.56,0.63-6.3l2.57,0.05
				c0.09,4.97,0.19,9.94,0.3,14.91l1.92-0.09c0.13-4.28,0.3-8.58,0.57-12.84l2.57,0.03c0.06,1.49,0.12,2.98,0.17,4.47
				c0.04-0.95,0.09-1.9,0.14-2.85c0.12-2.56,0.25-5.13,0.33-7.7l2.57,0.02c0.02,1.04,0.04,2.07,0.06,3.11
				c0.22-4.21,0.42-8.43,0.59-12.62l2.57-0.02c0.24,4.27,0.42,8.57,0.54,12.89l1.06-0.02c0.53-1.66,1.03-3.59,1.18-5.46l2.57,0.02
				c0.17,2.45,0.41,4.9,0.66,7.34c0.01,0.04,0.01,0.07,0.01,0.1l1.1-0.06c0.77,6.48,1.1,13.07,1.4,19.48
				c0.07-2.26,0.01-5.35-0.03-7.71c-0.06-2.96-0.11-5.76-0.01-7.63l0.77-0.06c-0.04-0.8,0.08-1.61,1.12-1.72
				c0.25-0.03,0.46-0.05,0.63,0c0.4-5.03,0.76-10.1,1.05-15.15l2.55-0.18c0.07,0.35,0.14,0.68,0.2,0.99l0.54,0.6
				c0.03,1.21,0.06,2.43,0.09,3.64c0.06-2.8,0.09-5.59,0.11-8.35c0.02-2.27,0.04-4.53,0.08-6.79l2.57-0.03
				c0.12,2.94,0.35,5.92,0.58,8.81l0.85,0.02c0,0.19,0.01,0.38,0.01,0.56l2.48,0.12c0.03,1.77,0.09,3.55,0.17,5.33l0.92,0.04
				c0.42-2.06,0.72-3.32,0.97-4.1c0.09-2.92,0.21-5.84,0.36-8.76l1.04-0.03c0.27-4.99,0.64-9.98,1.11-14.91l0.98,0.01
				c0.04-1.32,0.07-2.64,0.09-3.96l2.57-0.09c0.38,4.52,0.61,9.1,0.77,13.64l1.06-0.02c0.31-4.62,0.73-9.15,1.32-13.68l1.04,0.05
				c0.2-3.36,0.32-6.72,0.37-10.06l2.57-0.01c0.04,1.56,0.08,3.13,0.12,4.69l0.27-0.01c0.09-2.5,0.15-5.47,0.18-7.18
				c0.03-1.37,0.05-2.45,0.07-2.95l2.57-0.05c0.17,2.02,0.32,4.05,0.45,6.08l1.3,0c0.26-2.94,0.49-5.87,0.68-8.77l0.95,0.02
				c0.05-0.89,0.09-1.78,0.12-2.68l2.43-0.22c0.13-1.98,0.27-3.96,0.42-5.94l2.57,0.07c0.04,1.52,0.08,3.04,0.12,4.56
				c0.9,0.08,1.16,0.7,1.38,6.24l1.12,0.02c0.05-1.8,0.1-3.6,0.15-5.4l2.57,0c0.05,1.58,0.1,3.15,0.15,4.73l0.93,0.09
				c-0.05,2.18,0.02,4.37,0.14,6.54c0.59-4.4,0.79-8.59,0.86-11.35l0.71-0.05c0.01-0.03,0.01-0.06,0.02-0.1l0.74,0.03
				c-0.03,0.01-0.07,0.01-0.1,0.02l0.2-0.02l0.07,0l0-0.01l0.91-0.07c0.01,0.04,0.02,0.08,0.02,0.12l0.71,0.03
				c0.24,3.83,0.59,7.67,1.04,11.51l2.52-0.01c0.1,1.36,0.19,2.72,0.28,4.09l0.79-0.01c0.03,0.46,0.06,0.92,0.08,1.38l2.05-0.06
				c0.3,3.14,0.51,6.29,0.66,9.44l1.76-0.28c0.13,0.36,0.25,0.69,0.35,0.99l0.81,0.77c0.11,6.19,0.23,12.38,0.36,18.58
				c0.28-2.27,0.61-5.1,0.99-9.19l2.57,0.04c0.16,2.51,0.29,5.05,0.4,7.58l2.09-0.24c0.65,4.76,1.15,9.74,1.51,15.01l1.35-0.02
				c0.08,1.3,0.15,2.62,0.2,3.94c0.26-4.96,0.65-9.93,1.16-14.83l2.57,0.11l0.03,1.54c0.07,3.96,0.14,7.98,0.31,12.01l2.5-0.19
				c0.69,4.24,1.21,9.82,1.64,15.69l0.87,0c0,0.05,0.01,0.1,0.01,0.14c0.07-1.86,0.17-3.71,0.26-5.57c0.16-3.14,0.32-6.27,0.37-9.41
				l2.57-0.06c0.05,0.68,0.09,1.37,0.13,2.06l1.72,0.01c0.07-1.14,0.14-2.27,0.21-3.41l1.96-0.06c0.1-2.21,0.18-4.44,0.18-6.64
				l2.57-0.03c0.01,0.49,0.03,0.93,0.04,1.32l0.67,0.01c0.04,0.83,0.09,1.65,0.15,2.48c0.16-0.74,0.31-1.7,0.49-3.25l2.56,0.04
				c0,0.02,0,0.04,0.01,0.06l0.5,0.02c0.04-1.17,0.09-2.51,0.14-4.06l2.41-0.01c0.1-1.66,0.19-3.41,0.29-5.19
				c0.38-7.06,0.77-14.36,1.6-19.34c0.1-3.66,0.21-7.5,0.34-11.34l2.57,0.02c0.04,2.21,0.16,4.42,0.3,6.63l1.81-0.14c0,0,0,0,0,0
				l0.01,0l0.34-0.03c0.01,0.01,0.01,0.03,0.01,0.04l2.16,0.1c0.04,0.22,0.07,0.44,0.09,0.67l0.99,0.12
				c0.27,4.48,0.46,9.01,0.58,13.55l0.49,0c0.1,1.8,0.2,3.6,0.31,5.4h0.02c0.12-5,0.47-10.01,1.03-14.95l0.55,0.05
				c0.05-1.12,0.1-2.23,0.16-3.35l2.57,0c0.05,0.99,0.1,2.85,0.15,5.03c0.07,3.1,0.19,8.02,0.38,11.18l1.25,0.05
				c0.01,0.21,0.02,0.41,0.02,0.62l1.76,0.08c0.02,0.92,0.02,2.44,0.02,4.25c0,3.22-0.01,8.83,0.18,12.48l1.94,0.05
				c0.13,0.94,0.41,2.92,0.61,4.24l0.46,0.61c0.24,4.45,0.44,8.97,0.58,13.49l0.76,0.04c0.14-1.14,0.27-2.28,0.37-3.43l0.89,0.03
				c0.21-4.57,0.37-9.14,0.52-13.62c0.11-3.35,0.23-6.69,0.36-10.04l1,0c0.03-0.45,0.05-0.9,0.07-1.35l2.57,0.08
				c-0.06,3.69,0.06,7.45,0.18,11.09c0.04,1.22,0.08,2.45,0.11,3.67l0.58,0.02c0.05-1.11,0.09-2.22,0.12-3.33l2.57-0.05l0.03,0.53
				c0.09-0.86,0.17-1.73,0.27-2.61l2.56,0.05c0,0.02,0,0.04,0.01,0.06l1.07,0.02c0.01,0.71,0.01,1.41,0.02,2.12l2.12,0.56
				c0.01,0.21,0.02,0.43,0.02,0.65l1.34,0.01c0.4-3.18,0.75-6.36,1.06-9.53l2.57,0.09c0.18,6.88,0.41,13.66,0.69,20.3l2.17-0.01
				c0.08,1.76,0.15,3.51,0.22,5.27l0.47-0.07c0.1,0.47,0.14,0.93,0.11,1.36c0.13,1.87,0.25,3.75,0.36,5.63h1.35
				c0.02,0.67,0.05,1.34,0.07,2.02l1,0.01c0.03,0.93,0.07,1.85,0.11,2.78c0.07-1.15,0.12-2.3,0.17-3.46l2.57,0.01
				c0.01,0.23,0.02,0.47,0.02,0.7l1.29-0.03c0.26-3.86,0.49-7.72,0.72-11.5l0.38-6.13l2.31,0.03c0.06-2.48,0.12-4.95,0.18-7.41
				l1.93,0.01c0.08-1.79,0.15-3.61,0.21-5.45l2.56-0.11c0.15,1.23,0.29,2.37,0.41,3.47l0.1-0.01c0.03-0.58,0.06-1.17,0.09-1.75
				c0.19-3.62,0.38-7.36,0.41-11.04l1.99-0.03c0.15-3.1,0.31-6.26,0.51-9.52l2.56-0.09c0.08,0.63,0.16,1.26,0.23,1.89
				c0.03-1.48,0.06-2.96,0.06-4.43l0.95-0.08c0.15-1.38,0.31-2.76,0.48-4.14l1.22,0.05c0.21-1.8,0.42-3.61,0.56-5.42l2.57,0.07
				c0.03,1.09-0.13,3.22-0.3,5.31l0.12,0.01c0.06-0.62,0.12-1.23,0.17-1.84c0.24-2.53,0.47-5.05,0.65-7.59l1.53,0.03
				c0.07-1.13,0.15-2.27,0.22-3.41c-4.75-4.41-9.85-8.57-15.3-12.39c-0.3,4.98-0.63,10.03-1.01,15.27l-1.39-0.03
				c-0.03,0.66-0.05,1.31-0.07,1.98c0.01,0.01,0.02,0.03,0.03,0.04l-4.15-0.2l-0.4,25.48c0,0,0,0,0,0l-0.08,5.15l-2.15,0.93
				c-0.11-0.1-0.2-0.16-0.3-0.2l0.38-32.9c-0.79-0.41-1.64-0.8-2.56-1.18l-0.79-1.02c-0.04-0.27-0.06-0.53-0.09-0.78l-2.42-0.07
				c0-0.18,0-0.33-0.01-0.47l-1.07-0.17c-0.03-0.9-0.07-1.81-0.12-2.71l-1.66,0.02C569.6,481.41,569.32,478.52,569.08,475.98z"/>
		</g>
	</g>
</g>
</svg>
