<?xml version="1.0" encoding="utf-8"?>
<!-- Generator: Adobe Illustrator 27.0.0, SVG Export Plug-In . SVG Version: 6.00 Build 0)  -->
<svg version="1.1" xmlns="http://www.w3.org/2000/svg" xmlns:xlink="http://www.w3.org/1999/xlink" x="0px" y="0px"
	 viewBox="0 0 1000 1000" style="enable-background:new 0 0 1000 1000;" xml:space="preserve">
<style type="text/css">
	.st0{fill:#FFFFFF;}
	.st1{fill:none;}
	.st2{fill:#FFA912;}
	.st3{fill:#00BA12;}
	.st4{fill:#3DD358;}
</style>
<g id="Layer_2">
	<rect class="st0" width="1000" height="1000"/>
</g>
<g id="Layer_1">
	<g>
		<path class="st1" d="M518.9,528.33c0.13,0.18,0.24,0.33,0.35,0.47c-0.11-1.64-0.59-3.96-0.99-4.68l-0.82-0.05
			c0.07,1.55,0.16,3.09,0.26,4.63L518.9,528.33z"/>
		<path class="st1" d="M520.23,524.25l-1.97-0.13c0.17,0.21,0.64,0.52,1.25,0.44C519.82,524.51,520.05,524.39,520.23,524.25z"/>
		<path class="st1" d="M645.98,443.9c-0.01,0.02-0.01,0.04-0.02,0.06l0.02,0C645.98,443.95,645.98,443.92,645.98,443.9z"/>
		<path class="st1" d="M500.73,367.08L500,367.3c0.08,0.01,0.18,0,0.27-0.03C500.47,367.23,500.61,367.16,500.73,367.08z"/>
		<path class="st1" d="M635.74,667.11c-0.09-2.61-0.22-5.23-0.35-7.84C634.22,661.59,634.02,663.97,635.74,667.11z"/>
		<path class="st2" d="M486.46,428.55l2.39,0.06c0-0.1,0.01-0.19,0.01-0.29c-1.07,0.07-2.13,0.16-3.2,0.26
			c0.14,1.09,0.28,2.23,0.41,3.43l0.08,0C486.25,430.85,486.36,429.7,486.46,428.55z"/>
		<path class="st2" d="M505.57,443.48c0.08-1.26,0.15-2.52,0.2-3.78l1.56-0.02c0.16-3.85,0.36-7.74,0.59-11.64
			c-4.8-0.2-9.61-0.18-14.43,0.02c0.28,7,0.58,13.33,0.91,19.33h1.32c0.23-1.47,0.44-2.94,0.63-4.42l3.22,0.12
			c0.03,0.53,0.05,1.05,0.08,1.58c0.27-2.98,0.52-6.45,0.73-10.95l0.72-0.06c0.05-0.85,0.11-1.7,0.18-2.54l3.23,0.05
			c0.11,2.43,0.21,4.85,0.29,7.28l0.51-0.1c0.48,1.33,0.44,2.36,0.18,3.15C505.52,442.17,505.54,442.82,505.57,443.48z"/>
		<path class="st2" d="M667.46,646.86l0.87-0.01c0.01-0.26,0.02-0.55,0.03-0.85l3.24,0.02c0.03,1.39,0.09,2.78,0.16,4.17l1.63-0.03
			c0.45,4.65,0.78,9.53,1.01,14.84c0.15-5.77,0.39-11.56,0.71-17.32l1.49,0.02c0-0.07,0.01-0.13,0.01-0.2
			c-0.05-13.83-0.12-30.51-0.15-50.9c0-1.77-0.05-3.56-0.13-5.35c-0.57,8.31-1.03,16.69-1.12,25l-3.24,0.09
			c-0.69-10.79-0.91-21.73-1.07-32.43l-1.53,0c0.05,1.39,0.07,2.7-0.02,3.52c-2.43,7.83-2.62,28.7-2.31,38.11
			c0.03,0.57,0.05,1.15,0.07,1.72l-3.24,0.15c-0.02-0.45-0.04-0.97-0.06-1.54c-0.42-10.53-0.73-21.06-1.04-31.6
			c-0.16-5.65-0.33-11.39-0.52-17.16l-1.97-0.04c-0.05-2.02-0.1-4-0.16-5.94l-2.08,0.04c-0.07-1.13-0.14-2.26-0.2-3.4l-1-0.12
			c-0.02,0.59-0.04,1.18-0.06,1.77l-1.45,0.02c-0.11,2.96-0.2,6.23-0.25,8.19c-0.04,1.71-0.08,3.08-0.11,3.73l-3.23,0.06
			c-0.14-1.66-0.28-3.32-0.4-4.98l-1.85-0.13c-0.15-1.62-0.03-3.45,0.15-5.05l-1.05-0.18c-0.02-1.1-0.05-2.2-0.07-3.3l-0.67,0.03
			c-0.02,0.4-0.04,0.91-0.05,1.57l-3.24,0.03c-0.18-4.69-0.33-9.39-0.44-14.08c-0.54-0.94-1.02-2.13-1.43-3.51
			c-0.11,2.73-0.2,5.47-0.28,8.19l-1.35,0.01c0,0.03,0,0.06-0.01,0.09l-1.75-0.07l-0.13,0c0,0,0,0,0-0.01l-0.38-0.02
			c-0.02,0.37-0.04,0.74-0.06,1.11c-0.13,2.2-0.25,4.39-0.36,6.58l-3.24-0.03c-0.08-2.7-0.17-5.4-0.26-8.09l-0.02,0
			c-0.03,0.22-0.07,0.44-0.11,0.65l-0.99-0.07c-0.05,1.41-0.09,2.82-0.14,4.22c-0.31,9.35-0.63,18.69-1.09,28.03l-3.24-0.05
			c-0.1-6.71-0.28-13.45-0.53-20.13c-0.13,0-0.25,0-0.38-0.01c-1.08-0.09-1.55-0.5-1.73-2.49c-0.2,3-0.33,6.01-0.4,9.01l-2.25-0.02
			c0,0.27,0.01,0.54,0.01,0.81l-3.24,0.09c-0.04-1.13-0.09-2.26-0.14-3.4l-2.26,0.01c-0.14,6.45-0.34,13.03-0.66,19.59l-3.24-0.05
			c-0.01-0.81-0.03-1.61-0.05-2.42l-0.83,0.05c-0.16-1.17-0.32-2.35-0.47-3.52l-1.88-0.04c-0.37,3.32-0.76,6.28-1.22,9.72
			c-0.69,5.14-1.54,11.54-2.65,21.93l-3.23-0.09c-0.2-3.7-0.4-7.4-0.6-11.11l-1.11,0.01c-0.16,0.92-0.31,1.83-0.46,2.74l-0.62-0.01
			c-0.33,9.57-0.86,18.51-1.62,27.17l-1.35-0.01c-0.05,1.03-0.11,2.06-0.17,3.09c-0.42,7.76-0.85,15.52-1.17,23.28l-3.14,0.01
			c-0.01,0.82-0.01,1.65-0.01,2.47l-3.24,0.09c-0.05-0.85-0.09-1.7-0.14-2.55l-0.17,0c-0.02,0.29-0.03,0.58-0.05,0.86l-1.69,0.02
			c-0.04,0.83-0.08,1.66-0.1,2.49l-3.23,0.07c-0.03-0.3-0.05-0.6-0.07-0.9l-1.28-0.02c-0.01-0.28-0.02-0.56-0.03-0.84l-3.11-0.02
			c-0.15-4.66-0.31-9.01-0.47-13.12c-0.11,1.29-0.22,2.57-0.34,3.85l-3.23-0.12c-0.15-6.52-0.31-13.04-0.47-19.56l-0.87,0.02
			c-0.24-3.84-0.46-7.79-0.65-11.94l-1.59,0.04c-0.03-0.23-0.2-1.37-0.41-2.7c-0.26,8.47-0.29,16.92-0.32,25.22
			c-0.02,4.39-0.03,8.78-0.08,13.17l-3.24,0.02c-0.11-5.63-0.3-11.01-0.57-16.21l-0.62,0c-0.02,1.13-0.04,2.27-0.06,3.4l-3.24,0.03
			c-0.03-1.13-0.07-2.26-0.11-3.4l-2.14,0c-0.07-2.04-0.15-4.03-0.22-5.95l-2.47-0.03c-0.1-3.93-0.36-7.91-0.63-11.8l-1.6,0.06
			c-0.12-0.81-0.24-1.65-0.36-2.51c-0.2,4.9-0.35,10.16-0.46,15.94l-3.24,0.08c-0.04-0.57-0.08-1.14-0.11-1.71l-2.58-0.05
			l-0.12-3.34l-0.78,0.01c-0.27-3-0.7-6.06-1.12-9.01c-0.02-0.14-0.04-0.28-0.06-0.42l-1.51,0.02c-0.04-0.59-0.08-1.19-0.12-1.78
			l-1.23-0.01c-0.04-5.65-0.16-11.35-0.35-17.05l-1.01-0.02c0-1.77-0.03-3.54-0.07-5.31c-0.09,1.25-0.18,2.5-0.29,3.74h-3.23
			c-0.24-2.88-0.46-5.77-0.63-8.67l-0.98,0.03c-0.04,1.7-0.08,3.4-0.09,5.1l-2.02,0.03c-0.11,2.56-0.18,5.12-0.22,7.67l-3.24,0
			c-0.04-2.44-0.01-4.88,0.03-7.11c0.05-3.53,0.11-7.93-0.35-8.8c0.12,0.23,0.6,0.47,0.98,0.41c0-0.06,0.01-0.11,0.01-0.16
			l-2.01-1.38c-0.11-9.54-0.56-19.5-1.35-29.73l-1.33,0.04c-0.03-0.32-0.06-0.62-0.09-0.89l-0.07,0c-0.43,2.8-0.86,5.69-1.11,8.53
			l-1.46-0.02c-0.14,5.14-0.4,10.27-0.78,15.34l-0.55,1.09c-1.22,2.41-1.52,27.36-1.64,38.02l-0.05,4.27l-3.24,0.05
			c-0.18-3.98-0.36-7.96-0.55-11.93l-0.25,0c0,0,0,0,0,0l-0.77,0.07c-0.17,2.86-0.36,5.7-0.59,8.49l-2.64,0.03
			c-0.02,0.26-0.03,0.52-0.05,0.78l-3.24-0.06l-0.08-4.11l-1.15-0.01c-0.01,0.53-0.03,1.05-0.03,1.58l-2,0.41
			c0.11,1.07,0.26,2.27,0.39,3.3c0.38,3.04,0.77,6.19,0.71,8.23l-0.84,0.04c-0.02,0.45-0.04,1-0.06,1.67l-3.24-0.01
			c-0.01-0.23-0.01-0.45-0.02-0.68l-1.78-0.13c-0.09-1.88-0.24-3.77-0.44-5.64c-0.13,0.81-0.26,1.58-0.37,2.26
			c-0.64,10.42-1.09,21.03-1.53,31.29l-0.27,6.18l-3.23,0.11c-0.36-3.16-0.7-6.34-1.01-9.52l-2.13,0.09
			c-0.15-1.72-0.31-3.47-0.48-5.21l-2.66-0.03c-0.04-4.43-0.28-8.94-0.5-13.3c-0.13-2.65-0.27-5.3-0.37-7.95
			c-0.05-0.06-0.1-0.12-0.16-0.19c-0.08,0.94-0.16,1.88-0.25,2.81l-2.24-0.04l0,0.05l-3.23-0.08c-0.11-2.26-0.3-4.51-0.51-6.77
			l-1.28,0.03c-0.77-7.6-1.34-14.67-1.75-21.37l-0.1,0l-1.82,0.07c-0.22,4.81-0.46,9.63-0.73,14.41l-3.24-0.05l-0.2-6.77l-0.7,0.01
			c-0.38-5.37-0.69-10.79-0.92-16.21l-2.67,0.08c-0.03-0.32-0.07-0.65-0.11-0.97l-0.89-0.04c-0.09,3.04-0.18,6.17-0.26,9.39
			l-3.24,0.06c-0.31-4.84-0.59-9.64-0.84-14.44l-2.26,0.21c-0.07-0.31-1.08-4.38-1.7-6.83l-0.09,0.02
			c-0.49-2.12-0.62-2.69-0.29-3.17c-0.09-1.03-0.17-2.06-0.25-3.1l-2.92,0.01c-0.03,0.31-0.05,0.61-0.08,0.92l-3.23-0.07
			c-0.08-1.69-0.2-3.37-0.34-5.05c-0.17,3.11-0.33,6.22-0.47,9.32l-3.23,0.07c-0.62-6.73-1.09-13.54-1.42-20.34l-0.8,0.06
			c-0.02-0.1-0.04-0.19-0.06-0.27l-0.54-0.03c-0.08,0.63-0.16,1.26-0.25,1.89l-3.22-0.16c-0.04-1.13-0.1-2.26-0.16-3.38l-0.82-0.02
			c-0.13,3.4-0.26,6.78-0.39,10.12c-0.27,6.79-0.53,13.59-0.74,20.38c-0.01,0.33-0.02,0.66-0.03,0.99c0,0.01,0,0.02,0,0.03
			c0,0,0,0,0,0.01l-3.24-0.11c0,0,0,0,0-0.01s0-0.01,0-0.01c0.01-0.34,0.02-0.67,0.03-1.01c0.16-5.82-0.05-11.68-0.64-17.5
			l-1.18-0.09c-0.04-0.85-0.08-1.7-0.12-2.56l-0.78,0.01c0-0.05-0.01-0.09-0.01-0.14l-0.86,0.04c-0.14,4-0.27,8-0.4,12l-1.47,0.27
			c-0.16,2.8-0.42,5.62-0.79,8.41l-2.12-0.13c-0.16,2.86-0.35,5.72-0.57,8.57l-0.86-0.01c-0.01,0.27-0.03,0.55-0.04,0.82l-3.23,0.02
			c-0.07-1.13-0.15-2.25-0.23-3.37l-1.55,0.07c-0.08-0.58-0.15-1.16-0.22-1.75l-1.57,0.05c-0.42-3.04-0.85-4.36-1.07-4.88
			l-0.03,0.03l-0.1-0.31c-0.02-0.02,0-0.01,0,0l-0.04-0.12l-0.26,0l-0.02,0.02c0,0-0.01-0.01-0.01-0.02
			c-0.07,2.27-0.13,4.53-0.19,6.8l-2.31,0.02c-0.04,0.57-0.09,1.15-0.14,1.72c-0.28,3.4-0.55,6.81-0.69,10.22l-3.24-0.01
			c-0.02-0.57-0.04-1.13-0.06-1.7l-3.05,0.21c-0.13-0.72-0.69-2.53-1.27-4.26c-0.59,10.17-1.03,21.34-1.35,34.71l-3.24-0.01
			c-0.14-7.56-0.31-14.44-0.52-20.87c-0.29,4.15-0.69,8.33-1.19,12.52l-3.23-0.14c-0.06-1.93-0.12-3.85-0.18-5.78
			c-0.24,9.59-0.47,19.18-0.63,28.77l-3.24,0.04c-0.1-2.56-0.2-5.13-0.29-7.69l-1.5,0l-0.11-5.07c-0.09-4.2-0.19-8.45-0.31-12.72
			l-1.79,0.13c-0.06-0.33-0.11-0.66-0.16-1l-0.76-0.03c-0.38-6.05-0.79-12.33-1.33-18.7l-1.56-0.06c-0.19,2.3-0.4,4.6-0.61,6.88
			l-3.23-0.12c-0.01-0.65-0.03-1.29-0.04-1.94c-0.09,1.68-0.17,3.36-0.26,5.03l-0.06,1.23l-2.25,0c-0.07,1.01-0.25,2.55-0.54,4.96
			c-0.55,4.59-1.38,11.53-1.7,17.2l-2.79-0.06c-0.1,1.69-0.22,3.42-0.35,5.2l-2.62-0.06c-0.03,0.57-0.05,1.13-0.07,1.7l-3.22,0.18
			c-0.28-1.95-0.51-3.92-0.67-5.89c-0.43,9.65-0.52,19.26-0.6,28.7l-3.24,0.02l-0.08-3.8c-0.1-5.19-0.21-10.45-0.34-15.74
			l-3.18-0.03c-0.09-1.77-0.17-3.58-0.24-5.43c-0.3,4.55-0.5,9.23-0.56,13.9l-1.11,0.07c-0.08,0.87-0.16,1.74-0.24,2.62l-2.54-0.05
			c-0.28,4.81-0.48,9.63-0.6,14.43l-2.31,0.03c-0.12,1.45-0.25,2.9-0.39,4.35l-3.23-0.03l-0.28-3.48
			c-0.22,6.8-0.41,13.65-0.53,20.43l-3.24,0.07c-0.36-5.69-0.64-11.41-0.86-17.13l-2.29-0.02c0-1.98-0.02-3.96-0.06-5.95l-2.63,0.07
			c-0.22-4.01-0.75-8.08-1.26-12.02c-0.03-0.23-0.06-0.47-0.09-0.7l-2.25-0.14c-0.03-2.53-0.12-5.06-0.2-7.59l-0.69,0.01
			c-0.17-2.57-0.38-5.13-0.6-7.69c-0.06-0.75-0.12-1.5-0.19-2.25c-0.01,0.17-0.01,0.34-0.02,0.51l-1.29,0.01
			c-0.17,4.04-0.3,9.06-0.38,11.91c-0.05,2.05-0.1,3.64-0.13,4.3l-3.23,0.04c-0.1-1.42-0.21-2.85-0.31-4.27l-1.04,0
			c-0.11-1.66-0.18-5.51-0.27-9.97c-0.07-3.83-0.17-9.24-0.33-13.18c-0.19,2.35-0.41,4.7-0.67,7.03l-3.23-0.08
			c-0.02-0.28-0.03-0.56-0.06-0.83l-0.41,0.01c-0.24,5.36-0.35,10.73-0.34,16.06l-1.97,0.02c0,23.92,0.34,37.19,1.06,45.88
			l1.35-0.02c0.19,2.03,0.37,4.06,0.53,6.09l1.72-0.01c0.03,1.3,0.07,2.6,0.12,3.91c0.07-1.32,0.15-2.65,0.23-3.97l3.23-0.02
			c0.47,6.5,0.81,13.34,1.05,20.66c0.11-2.88,0.18-5.76,0.22-8.63l3.24-0.01c0.11,6.22,0.23,12.15,0.37,17.87l2.77,0.05
			c0.03,2.25,0.06,4.5,0.09,6.77l3.05-0.03c0.21,3.48,0.39,6.95,0.57,10.43c0.3-4.87,0.55-9.78,0.68-14.64l3.24-0.03
			c0.05,1.13,0.09,2.26,0.14,3.39h0.76l0.5,8.14c0.07,1.12,0.13,2.07,0.18,2.97l1.11-0.01c0.2,3.76,0.37,7.53,0.51,11.31
			c0.1-0.71,0.22-1.41,0.33-2.11l2.09,0.16c0.04-2.53,0.09-5.06,0.13-7.59l3.24-0.04c0.12,3.05,0.22,6.1,0.32,9.14
			c0.06,1.77,0.11,3.55,0.18,5.33l0.84-0.02c0.36-6.78,0.68-14.4,0.81-22.09l3.24-0.08c0.07,1.1,0.14,2.21,0.21,3.31
			c0.17-3.33,0.32-6.64,0.47-9.91c0.18-4.05,0.36-8.09,0.58-12.13l2.7,0.04c0-0.01,0-0.02,0-0.03l3.24-0.03l0.17,2.88
			c0.16-3.53,0.37-7.06,0.63-10.57l3.23,0.03c0.19,3.42,0.58,6.89,0.95,10.25c0.05,0.49,0.11,0.97,0.16,1.46l1.65,0.14
			c0.08-3.2,0.16-6.41,0.24-9.61c0.16-6.13,0.31-12.26,0.49-18.39l2.42-0.03c0.09-1.99,0.19-3.97,0.28-5.96l3.24,0.05
			c0.03,2.26,0.07,4.52,0.12,6.79l0.49,0c0.01-0.41,0.03-0.82,0.04-1.23l0.15-4.75l2.1-0.76c0.09-0.23,0.19-0.47,0.29-0.7l3.1,0.65
			c0,1.11,0.03,2.22,0.06,3.33l2.18-0.1c0.22,2.03,0.53,4.04,0.86,6.05l2.29,0.06c0.06,3.1,0.16,6.22,0.28,9.34l2.85-0.03
			c0.16,2.4,0.35,4.78,0.54,7.15c0.16,1.98,0.33,3.98,0.47,6.01c0.44,0.08,0.77,0.34,1.03,1.24c0.26-7.11,0.45-14.42,0.56-21.99
			l3.24-0.02c0.02,0.73,0.03,1.46,0.05,2.19l3.07,0.09c0.52,2.69,0.95,5.39,1.29,8.11c0.31-4.96,0.76-9.91,1.34-14.81l0.84,0.01
			c0.02-0.45,0.03-0.97,0.05-1.57l3.24-0.06c0.13,1.86,0.23,3.73,0.31,5.59l1.46,0.19c0.06,0.3,0.11,0.61,0.15,0.92l1.22,0.06
			c0.16,1.53,0.28,3.06,0.36,4.61l1.44,0.58c0.14,2.29,0.26,4.57,0.36,6.84l0.57-0.03c0.18-8.93,0.52-19.34,1.23-29.84h1.56
			c0.04-1.24,0.09-2.46,0.13-3.67c0.23-6.89,0.44-12.84,1.01-19.37l3.23,0.13c0.06,6.83,0.32,13.02,0.82,18.76l1.88,0
			c0.36-10.78,0.62-21.23,0.8-31.57l3.24-0.04l0.37,8.67c0.01,0.2,0.02,0.4,0.03,0.59l0.66-0.12c0.06-1.63,0.13-3.26,0.2-4.88
			l0.61-0.05c0.19-6.47,0.43-13.03,0.74-19.56l3.24,0.03c0.03,1.12,0.06,2.23,0.1,3.35l1.25,0.01c0.53,8.14,1.04,16.69,1.4,25.43
			c0.14-3.62,0.25-7.25,0.32-10.86l1.41-0.01c0.53-7.75,0.89-15.51,1.25-23.11l0.04-0.8l3.23-0.02c0.25,4.07,0.49,8.13,0.74,12.2
			c0.02-0.37,0.04-0.74,0.06-1.11l3.23-0.01c0.34,5.52,0.78,11.09,1.25,16.29l0.84-0.01c0.02-0.31,0.04-0.63,0.06-0.94l1.72,0.03
			c0.03-0.31,0.06-0.61,0.09-0.92l2.23,0.09l0.01-0.81l2.53,0c0.07-1.41,0.13-2.84,0.17-4.28l3.24-0.02
			c0.18,4.75,0.34,9.55,0.47,14.43l1.04-0.01c0.15-3.94,0.21-7.88,0.18-11.79l3.23-0.15l0.13,1.48c0.25,2.92,0.5,5.86,0.75,8.81
			l2.72-0.04c0.35,4.82,0.65,9.68,0.9,14.52l1.35,0.03c0.1,2.82,0.36,5.69,0.61,8.48l1.64,0.07l0.12,6.76l1.22-0.02
			c0.02,0.25,0.09,0.75,0.19,1.39c0.2-5.56,0.41-11.12,0.62-16.68l3.24,0.05c0.04,5.95,0.16,11.58,0.35,16.94l2.79-0.01
			c0.15,1.8,0.28,3.6,0.4,5.4c1.64,0.09,1.65,0.69,1.72,8.02c0.02,1.65,0.03,3.28,0.08,4.41c0.2,0.49,0.4,1.08,0.6,1.79l1.49,0.19
			c0.12,0.21,0.21,0.43,0.29,0.66l0.17,0.01c0.08-2.79,0.14-5.61,0.09-8.39l3.23-0.15c0.67,8.76,0.97,17.63,1.12,26.4l1.57-0.09
			c0.64,4.26,1.12,8.56,1.43,12.87l0.66,0.02c0.03-1.66,0.06-3.32,0.08-4.98l3.09-0.04c0.18-3.76,0.34-7.47,0.5-11.1l0.94,0
			c0.16-2.55,0.31-5.11,0.4-7.67h1.21c0.22-2.23,0.47-4.03,0.77-6.16c0.42-3.05,0.95-6.83,1.63-13.55l1.97,0.06
			c0.1-1.41,0.19-2.82,0.27-4.24l3.23-0.03c0.02,0.3,0.04,0.6,0.06,0.9l1.99-0.08l0.11-3.33l3.24-0.02
			c0.19,4.46,0.63,8.95,1.06,13.3c0.09,0.89,0.17,1.79,0.26,2.68c0.15-3.05,0.29-6.09,0.37-9.14l2.46-0.05
			c0.83-17.34,1.59-32.49,3.39-49.52l0.75,0.03c0.06-2.23,0.11-4.47,0.14-6.7l3.24-0.02c0.26,9.43,0.71,16.33,1.31,23h0.01
			c0.23-7.96,0.47-15.92,0.84-23.88l3.24,0.02c0.15,4.55,0.24,9.11,0.34,13.66c0.13,6.66,0.27,13.5,0.6,20.3l0.85-0.03
			c0.32,0.21,0.55,0.36,0.66,0.68l1.33,0.19c0.39-4.19,0.59-8.39,0.6-12.57l3.24-0.07c0.26,6,0.58,12,0.9,18.01
			c0.1,1.81,0.19,3.63,0.29,5.44c0.02-0.43,0.04-0.86,0.06-1.29l3.24,0.02c0.06,1.77,0.12,3.55,0.19,5.32
			c1.87,0.14,2.38,1,2.5,29.02l0.01,2.36l-0.29,0.02c-0.1,1.76,0.14,7.37,0.57,10.79l2.41,0.14c0.33,3.74,0.63,7.48,0.92,11.23
			c0.78-4.1,1.04-21.66,1.18-31.41l0.05-3.56l1.05,0c0.1-2.85,0.2-5.7,0.3-8.55l3.24-0.06c0.27,3.97,0.51,7.98,0.71,11.98l2.43-0.02
			c0.2,3.69,0.54,7.38,0.88,11.06c0.02,0.22,0.04,0.45,0.06,0.67l1.44-0.15c0.07-0.63,0.15-1.26,0.22-1.9
			c0.55-4.84,1.12-9.85,1.36-14.79l1.26,0c0.18-2.01,0.36-4.02,0.54-6.03l3.23,0.01c0.11,1.35,0.21,2.7,0.29,4.05
			c0.02-0.47,0.04-0.95,0.06-1.42l1.85-0.07c0.22-2.17,0.42-4.83,0.56-6.63c0.11-1.42,0.2-2.7,0.29-3.62l3.23,0.09
			c0.2,5.46,0.45,10.92,0.69,16.38c0.17,3.88,0.35,7.81,0.51,11.76l1.49,0c0.03,1.13,0.08,2.27,0.14,3.4l2.45,0.01
			c0.2-5.4,0.36-10.81,0.47-16.18l3.24-0.03c0.45,12.06,0.88,24.13,1.31,36.19c0.02,0.44,0.03,0.87,0.05,1.31
			c0.22-3.44,0.48-6.89,0.79-10.31l3.19,0.1c0.14-6.1,0.19-12.17,0.24-18.14c0.04-4.74,0.08-9.49,0.16-14.23l3.23-0.14
			c0.13,1.23,0.24,2.47,0.35,3.71c0.2-0.73,0.52-1.74,0.98-3.19l0.07,0.01c0.72-2.38,1.51-5.25,1.66-6.54l1.61,0.05
			c0.45-5.37,1.1-11.22,1.99-17.96l0.78,0.02c0.03-0.82,0.07-1.63,0.11-2.45l3.23,0c0.1,1.98,0.22,3.95,0.36,5.92
			c0.14-1.73,0.28-3.44,0.45-5.13l3.15-0.01c0.13-2.26,0.28-4.52,0.44-6.77l1.23,0l0.11-3.33l2.42-0.1
			c0.01-0.29,0.02-0.57,0.03-0.86c0.12-3.36,0.24-6.72,0.24-10.08l3.24,0c0,0.84,0.01,1.68,0.03,2.51l1.35-0.01
			c0.32-3.1,0.62-6.26,0.79-9.4l2.54,0.03c0.2-3.15,0.4-6.3,0.6-9.43l3.06,0.07c0.03-0.32,0.06-0.64,0.09-0.96l3.22-0.03
			c0.53,4.87,0.96,9.79,1.26,14.71c0.38-7.41,0.56-14.83,0.73-22.1c0.16-6.48,0.32-13.19,0.62-19.78l3.24,0.1
			c-0.11,6.76-0.02,10.89,0.29,14.6c0.08-0.01,0.14-0.01,0.23,0c0.64,0.01,1.08,0.02,1.39,0.65l0.05,0l0.18-10.19l3.23-0.16
			c0.13,1.12,0.27,2.29,0.4,3.48c0.17-7.06,0.41-14.22,0.86-21.31l3.24,0.03c0.28,6.39,0.52,12.29,0.72,17.83l2.87,0.04
			c0.04,0.69,0.09,2.11,0.14,3.9c0.07,2.3,0.19,6.38,0.38,9.68l4.42,0.1c0.01,0.25,0.02,0.5,0.03,0.75c-0.01-1.91-0.05-3.76-0.07-5
			c-0.03-1.51-0.05-2.73-0.04-3.38l1.23,0c0.34-0.82,0.77-0.93,1.27-0.97c0.07-1.68,0.13-3.35,0.19-5.03l3.24-0.06
			c0.03,0.39,0.06,0.78,0.09,1.17c0.09-1.52,0.17-3.04,0.27-4.56l3.24,0.07l0.15,10.92c0.15,11.2,0.29,22.7,0.7,34.13l1.39,0.01
			c0.2,2.3,0.37,4.61,0.52,6.92c0.08-3.14,0.18-6.28,0.28-9.41l0.48-0.57l-0.24-0.14C666.38,673.76,666.9,664.25,667.46,646.86z"/>
		<path class="st2" d="M517.44,838.7c0.03-3.03-0.01-6.08-0.09-9.13l-2.59-0.05c-0.24-2.05-0.45-4.1-0.63-6.15l-1.18,0.28
			c-0.11,1.65-0.22,3.3-0.34,4.95l-1.58-0.05c-0.08,1.43-0.15,2.85-0.23,4.28l-2.2-0.03c-0.01,0.56-0.03,1.12-0.04,1.68l-1.49,0
			c-0.27,4.04-0.53,8.05-0.76,12l-1.58,0.02c-0.07,1.13-0.15,2.26-0.22,3.39l-1.03-0.01c-0.16,2.8-0.25,5.7-0.38,8.54
			c5.71-0.09,11.39-0.41,17.04-1.03c-0.09-6.21-0.19-12.42-0.29-18.64L517.44,838.7z"/>
		<path class="st2" d="M656.9,766.6c0.26-0.47,0.5-0.95,0.76-1.43c-0.23-2.22-0.47-4.44-0.67-6.67
			C656.94,761.1,656.92,763.98,656.9,766.6z"/>
		<path class="st2" d="M649.97,768.39c-2.08-0.27-2.5-1.78-2.6-18.61c-0.02-2.72-0.03-5.16-0.09-6.76
			c-0.22-0.39-0.43-0.84-0.64-1.34c-0.26,1.97-0.5,3.96-0.64,5.92l-2.23-0.07c-0.12,4.1-0.29,8.21-0.53,12.3l0.09,0.01
			c0.46,0.4,0.65,0.56,0.46,1.71l0.03,0.01c-0.02,0.07-0.05,0.2-0.1,0.38c-0.14,0.72-0.39,1.75-0.76,3.26
			c-0.45,2.03-0.92,4.35-1,5.43l-3.23-0.05c-0.1-2.19-0.19-4.14-0.29-5.94l-1.96,0c-0.13-2.24-0.25-4.49-0.38-6.73l-1.86,0.03
			c-0.12-0.89-0.25-1.78-0.38-2.66c-0.06,3.54-0.1,7.06-0.13,10.54c-0.1,10.8-0.21,21.97-1.2,32.97l-3.23-0.09c0-0.01,0-0.02,0-0.03
			l-2.25,0c-0.08-4.53-0.18-9.06-0.29-13.59c-0.02,0.3-0.04,0.6-0.06,0.9l-3.23-0.01c-0.25-3.69-0.5-7.42-0.73-11.16l-0.82-0.01
			c-0.07,1.71-0.12,3.41-0.15,5.12l-1.76-0.01c-0.29,3.19-0.61,6.37-0.95,9.53l-0.74-0.03c-0.07,2.51-0.12,5.03-0.15,7.54
			l-1.34,0.02c-0.12,5.16-0.27,10.26-0.45,15.36l-3.23,0.09c-0.08-0.85-0.17-1.65-0.26-2.42c-0.03,0.27-0.05,0.53-0.08,0.79
			c-0.17,1.74-0.34,3.43-0.47,5.02l-3.2,0.19c-0.03-0.16-0.06-0.31-0.09-0.46c-0.06,2.36-0.19,4.72-0.28,7.09
			c16.11-12.11,30.27-27.15,41.62-44.86c-0.08-3.13-0.17-6.26-0.26-9.39C650.05,768.4,650.01,768.4,649.97,768.39z"/>
		<path class="st2" d="M490.75,858.24c0.07,0,0.14,0,0.21,0.01c-0.03-0.52-0.08-1.04-0.12-1.55
			C490.81,857.21,490.79,857.72,490.75,858.24z"/>
		<path class="st2" d="M594.9,463.38c0.08-1.97,0.17-3.9,0.25-5.78l2.09,0.02c-5.58-3.73-11.43-7.18-17.55-10.33
			c0.11,2.92,0.25,4.97,0.42,6.83l1.65-0.12c0.05,0.35,0.1,0.7,0.15,1.05l0.76,0.09c-0.04,2.25,0.04,4.53,0.16,6.81
			c0.14-1.99,0.22-3.99,0.21-5.96l3.24-0.09c0.22,4.72,0.47,9.44,0.77,14.16l0.5-0.06l0.61,1.99c-0.26,0.69-0.32,1.87-0.2,3.32
			c0.39,0.17,0.78,0.34,1.15,0.52l0.21-13.07l2.22-0.11c0.01-0.25,0.02-0.51,0.02-0.76l3.24-0.06L594.9,463.38z"/>
		<path class="st2" d="M676.09,683.7l-3.23-0.06c-0.02-0.57-0.05-1.13-0.07-1.7l-1.28-0.06c-0.02-6.53-0.15-12.4-0.4-17.83
			l-1.04-0.02c-0.36,7.67-0.7,10.88-1.17,12.28c-0.37,10.94-0.58,22.07-0.77,32.83c-0.21,11.33-0.45,22.99-0.86,34.56
			c0.18-0.49,0.39-0.97,0.56-1.47c0.03-0.82,0.05-1.65,0.09-2.47l0.8-0.02c1.06-3.09,2.08-6.21,2.99-9.4
			c3.95-13.8,4.85-20.79,4.95-53.51l-0.05,0C676.44,679.12,676.27,681.41,676.09,683.7z"/>
		<path class="st2" d="M547.99,851.55c-0.1-3.45-0.27-6.89-0.44-10.33c-0.01-0.24-0.02-0.49-0.03-0.73l-0.87,0l-0.33-8.25
			c-0.26-6.68-0.53-13.36-0.77-20.04c-0.13,0.02-0.26,0.01-0.39,0c-0.32-0.03-0.59-0.08-0.83-0.21c-0.14,0.53-0.26,1.02-0.32,1.43
			l-3.22-0.24l-0.1-5.16l-1.25-0.05c0,0,0-0.01,0-0.01c0-0.01,0-0.01,0-0.02c0.15-4.35,0.07-8.71-0.25-13.05
			c-0.48,4.26-0.91,8.87-1.45,14.99l-1.77-0.04c-0.01,0.26-0.01,0.53-0.02,0.79l-3.23,0.1c-0.63-7.05-1.02-14.17-1.31-21.23h-0.01
			c-0.55,4.42-0.84,9.58-0.84,17.67l-3.24,0.04c-0.1-4.06-0.23-8.15-0.39-12.23c-0.46,3.33-0.95,4.52-1.45,5
			c-1.2,12.09-1.4,24.43-1.59,36.38c-0.11,6.76-0.22,13.74-0.52,20.63c8.71-1.11,17.32-2.8,25.74-5.14c-0.01-0.1-0.02-0.2-0.03-0.3
			L547.99,851.55z"/>
		<path class="st2" d="M573.16,829.55c-0.26,4.92-0.48,9.6-0.69,14.06c0.79-0.34,1.59-0.65,2.38-1c-0.16-4.33-0.34-8.71-0.62-13.1
			L573.16,829.55z"/>
		<path class="st2" d="M603.33,826.06l-1.36,0.06c-0.05,0.5-0.12,0.97-0.17,1.47c0.67-0.46,1.32-0.95,1.99-1.41
			c-0.11-1.02-0.23-2.03-0.33-3.05C603.44,824.31,603.39,825.37,603.33,826.06z"/>
		<path class="st2" d="M674.4,573.61c-0.14-0.81-0.29-1.61-0.44-2.42c0.03,2.25,0.08,4.52,0.11,6.74c0.06-0.81,0.13-1.62,0.19-2.42
			C674.3,574.88,674.35,574.24,674.4,573.61z"/>
		<path class="st2" d="M553.6,762.82c-0.45,0.02-0.78,0.22-0.97,0.41c0.01,0.09,0.01,0.18,0.02,0.27l2.09-0.3
			C554.69,763.2,554.36,762.8,553.6,762.82z"/>
		<path class="st2" d="M483.76,854.14c-0.01-0.19-0.02-0.39-0.02-0.58c-0.03-1.03-0.05-2.63-0.09-4.53
			c-0.07-3.99-0.19-10.97-0.4-15.38l-1.29-0.07c0.05-4.49-0.09-9.09-0.22-13.54l-0.09,0l-0.85,0.02c-0.42,4.85-0.91,9.73-1.44,14.57
			l-3.23-0.07c-0.47-6.94-1.26-14.25-2.49-23.06l-2.46-0.03c-0.05-2.49-0.14-5-0.26-7.5c-0.18,2.31-0.37,4.57-0.55,6.75l-3.23-0.08
			c-0.15-4.26-0.32-8.52-0.5-12.78l-2.09-0.01c0,0.01,0,0.01,0,0.02l-3.23-0.01c-0.14-3.03-0.26-6.13-0.36-9.29
			c-0.14,1.43-0.29,2.86-0.45,4.28l-1.54-0.03c-0.09,3.09-0.18,6.18-0.25,9.26l-3.24-0.02c-0.01-0.83-0.02-1.65-0.03-2.47
			l-1.32-0.01c-0.26-4.76-0.47-9.2-0.66-13.4l-2.93-0.29c-0.06-2.26-0.17-4.52-0.29-6.78l-1.5-0.04c-0.04-2.33-0.09-4.86-0.16-7.53
			l-1.6,0.16c-0.13-0.59-0.22-1.1-0.28-1.53l-0.6-0.13c-0.52,5.86-0.96,11.76-1.3,17.62l-1.92,0.15c-0.12,0.4-0.27,0.8-0.44,1.22
			l-1.72-0.61c-0.18,2.85-0.34,5.7-0.41,8.56l-3.24-0.04c0.01-3.99-0.12-7.98-0.24-11.97c0-0.12-0.01-0.24-0.01-0.36
			c-0.18,3.57-0.36,7.14-0.56,10.71l-1.41-0.02l-0.38,25.53l-3.24,0.09c-0.05-0.76-0.1-1.52-0.15-2.28
			c-0.28,5.04-0.63,10.09-1.1,15.1l-3.23-0.09c-0.11-3.12-0.21-6.23-0.31-9.35l-1.93,0.05c-0.44-5.2-0.91-10.73-1.35-16.41
			c-0.17,3.99-0.32,7.96-0.47,11.87c-0.26,6.93-0.57,14-0.97,21.09c20.51,9.66,42.04,15.2,63.55,16.95c-0.1-1.26-0.21-2.5-0.3-3.76
			L483.76,854.14z"/>
		<path class="st2" d="M595.35,728.72C595.35,728.72,595.35,728.72,595.35,728.72c0.03,0.54,0.08,1.09,0.12,1.64
			c0.04-0.53,0.08-1.06,0.12-1.59L595.35,728.72z"/>
		<path class="st2" d="M483.64,723.73l-0.41-0.01c-0.05,0.49-0.09,0.98-0.13,1.47c0,0,0,0,0.01-0.01l0.55-0.25
			C483.65,724.55,483.64,724.15,483.64,723.73z"/>
		<path class="st2" d="M398.9,560.11c-0.11,0.02-0.21,0.04-0.29,0.08c0,0.03,0,0.06,0,0.09l0.69-0.17
			C399.19,560.09,399.06,560.08,398.9,560.11z"/>
		<path class="st2" d="M614.28,686.75c-0.09,0.01-0.18,0.03-0.28,0.06c-0.01,0-0.03,0.01-0.04,0.01l0.32-0.01
			C614.28,686.79,614.28,686.77,614.28,686.75z"/>
		<path class="st2" d="M422.5,597.54l-0.34,0.31c0.24,0.15,0.63,0.29,1.1,0.19l-0.1-0.49L422.5,597.54z"/>
		<path class="st2" d="M667.2,576.74c0.08-2.49,0.17-4.97,0.26-7.46l1.12,0c0.1-2.27,0.18-4.53,0.23-6.81l1.1,0
			c0.07-2.42,0.09-4.84,0.13-7.27c-1.58-5.24-3.45-10.48-5.6-15.69l-0.57-0.01c0-0.45-0.01-0.93-0.01-1.38
			c-9.04-21.41-22.82-42.13-40.97-59.77c-0.16,2.69-0.33,5.39-0.48,8.04c-0.22,3.81-0.43,7.62-0.66,11.43l-2.44-0.05
			c-0.1,1.43-0.2,2.87-0.27,4.29l-3.23,0.1c-0.15-1.34-0.26-2.28-0.35-2.93c-0.07,0.04-0.15,0.08-0.22,0.11
			c-0.09,0.92-0.17,1.84-0.24,2.76l-1.56-0.02c-0.08,0.86-0.16,1.73-0.23,2.59l-0.58-0.04c-0.03,1.15-0.06,2.29-0.09,3.44
			c-0.11,3.94-0.22,7.87-0.22,11.81l-3.24,0.1c-0.16-2.37-0.31-4.74-0.46-7.11l-0.11-0.09c-0.33,7.16-0.56,14.03-0.68,20.77
			l-2.66,0.12c-0.01,0.25-0.02,0.51-0.03,0.76l-1,0.05c-0.03,1.33-0.08,2.67-0.12,4c-0.11,3.46-0.22,6.92-0.22,10.38l-3.24,0.09
			c-0.03-0.53-0.06-1.04-0.09-1.53c-0.22,3.97-0.47,7.89-0.72,11.78l-1.63-0.01c-0.18,6.24-0.38,12.5-0.61,18.7l-3.24,0.05
			c-0.18-2.55-0.34-5.12-0.48-7.69c-0.11,1.44-0.22,2.87-0.33,4.3l-1.18,0.01c-0.01,0.06-0.01,0.12-0.02,0.19
			c-0.07,2.17-0.12,4.34-0.14,6.51l-3.24,0.06c-0.12-2.58-0.03-4.84,0.14-6.71c0-0.1,0.01-0.21,0.01-0.31l-0.36-0.1
			c-0.23,3.23-0.45,6.45-0.6,9.68l-1.27,0.03c-0.03,0.3-0.05,0.59-0.08,0.89l-3.23-0.13c-0.01-1.13-0.03-2.26-0.07-3.39l-3.09-0.01
			c-0.08-4.82-0.22-9.66-0.44-14.5l-2.7,0.01c-0.02-0.97-0.04-1.79-0.06-2.49l-0.84-0.01c-0.42-7.86-0.79-15.95-1.11-24.22
			c-0.2,1.31-0.4,2.62-0.6,3.93l-1.79-0.06c-0.19,2.78-0.35,5.59-0.43,8.37l-3.24-0.06c0.01-1.11,0-2.22-0.03-3.34l-3.12-0.03
			c-0.01-1.15-0.03-2.29-0.05-3.44c-0.26,5.08-0.36,9.85-0.31,14.48l-3.24,0.09c-0.13-2.84-0.27-5.69-0.43-8.55l-2.26,0.03
			c-0.11-2-0.2-3.99-0.28-5.99l-1.07,0.08c-0.24-2.81-0.46-5.62-0.66-8.44l-0.43-0.08c-0.26,7.06-0.57,14.21-1.06,21.28l-1.88-0.02
			c-0.32,2.55-0.61,5.14-0.82,7.7l-3.23-0.09c-0.05-1.95-0.1-3.91-0.16-5.86l-1.18,0.02c-0.08-0.75-0.08-1.68-0.04-2.61l-0.86-0.09
			c-0.15-7.21-0.41-14.46-0.78-21.58c-0.19-0.37-0.35-0.98-0.53-1.95c-0.3,0.17-0.63,0.23-1.04,0.19
			c-1.77-0.17-2.41-0.89-2.54-14.87l-1.85-0.13c-0.07-2.6-0.14-5.21-0.23-7.81c-0.68-0.08-1.12-0.38-1.43-2.15
			c-0.03,1.6-0.04,3.2-0.04,4.8l-1.1,0.73c-0.09,2.9-0.16,5.79-0.24,8.69l-3.24,0.05c-0.15-2.57-0.31-5.13-0.48-7.7l-0.87,0.04
			c-0.1-1.45-0.2-2.9-0.29-4.35l-1.06-0.02c-0.05-6.99-0.24-14.04-0.57-21.01c-0.24,0.3-0.6,0.5-1.14,0.53
			c-0.46,0.04-0.74-0.07-0.99-0.25c-0.22,0.35-0.51,0.54-0.81,0.62c-0.14,0.45-0.3,1.02-0.5,1.77l-1.8-0.2
			c-0.71,5.93-1.11,13.38-1.5,20.63c-0.43,8.03-0.83,15.6-1.62,19.54l-2.34-0.08c-0.19,2.47-0.43,4.35-0.79,7.21
			c-0.23,1.85-0.52,4.11-0.88,7.22l-3.23-0.17c-0.04-4.04-0.26-8.16-0.47-12.14c-0.01-0.15-0.02-0.29-0.03-0.44
			c-0.22,1.06-0.48,2.42-0.78,4.3l-2.78,0.01c-0.14,2.76-0.28,5.53-0.36,8.3l-2.66,0.13c-0.01,0.26-0.03,0.51-0.04,0.77l-1.14-0.05
			c-0.07,0.4-0.16,0.8-0.25,1.2l-0.88-0.09c-0.16,4.78-0.3,9.54-0.42,14.24l-0.9,0.03c0,0.02,0,0.05-0.01,0.07l-1.2-0.04l-1.13,0.04
			c0-0.02,0-0.05-0.01-0.07l-0.48-0.01c-0.36,3.73-0.73,7.67-0.77,8.54l-3.23,0.03c-0.16-2.52-0.28-5.05-0.36-7.55l-0.98-0.19
			c-0.01-0.55-0.02-1.1-0.03-1.65l-0.86,0.02c-0.22-3.39-0.45-6.82-0.7-10.16c-0.04,0.54-0.07,1.08-0.1,1.62l-3.22,0.16
			c-0.53-3.45-0.92-6.92-1.22-10.4l-0.3,0.03c-0.06,0.61-0.14,1.22-0.23,1.83l-2.96-0.02c-0.07,1.65-0.13,3.29-0.16,4.94l-3.24-0.01
			c-0.14-9.9-0.59-18.97-1.37-27.44c-0.11,1.23-0.23,2.46-0.34,3.69l-3.23-0.13c-0.01-0.8-0.02-1.6-0.03-2.4
			c-0.17,2.72-0.28,6.05-0.32,10.93l-3.24,0.03c-0.02-0.85-0.05-1.71-0.08-2.56l-1.27,0.01c-0.17-6.63-0.32-13.26-0.46-19.89
			c-0.11,1.27-0.23,2.54-0.36,3.81l-3.23-0.16c0-0.84-0.01-1.68-0.01-2.52l-2.68-0.01c-0.2-9.78-0.4-19.81-0.85-29.78l-0.94,0
			c0,0,0-0.01,0-0.01l-1.8-0.03c-0.04-1.36-0.08-2.73-0.13-4.1l-0.75,0.03c-0.54-3.52-1.02-7.08-1.43-10.64
			c-0.55,4.23-1.37,8.64-2.6,12.59l-2.84-0.37c-0.09,3.95-0.16,7.9-0.24,11.85l-3.24,0.04l-0.28-5.94
			c-0.16-3.42-0.32-6.84-0.47-10.26l-1.5-0.01l-0.18-4.89l-1.16-0.2c-0.03-0.63-0.07-1.83-0.11-3.31c-0.02-0.47-0.03-1.04-0.05-1.66
			c-0.07,1.65-0.14,3.3-0.19,4.94l-3.08,0.1c-0.03,0.81-0.05,1.62-0.06,2.42l-1.7,0.01c-0.31,3.18-0.64,6.36-1,9.52l-2.45,0
			c-0.07,1.95-0.15,3.91-0.23,5.86l-3.24-0.04c-0.04-2.3-0.09-4.61-0.17-6.93c-0.04,0-0.09,0.01-0.13,0.01
			c-0.3,5.74-0.62,11.48-0.96,17.22l-3.24-0.04c-0.08-2.25-0.16-4.5-0.23-6.75l-0.42-0.01c-0.75,8.72-1.14,17.63-1.5,27.22
			l-2.64,0.03c-0.16,1.19-0.34,2.39-0.52,3.58l-3.22-0.24c-0.05-7.82-0.1-15.78-0.35-23.83l-0.13,0
			c-0.34,5.11-0.59,10.24-0.76,15.34l-1.31,0.03c-0.01,0.3-0.02,0.6-0.03,0.91c0.05,0.25,0.04,0.5,0.01,0.72l0.01,0
			c-0.03,0.13-2.74,13.11-3.2,15.63l-1.43-0.09c-0.13,1.68-0.25,3.35-0.35,5.02l-3.24-0.07c-0.03-1.95-0.1-3.9-0.19-5.85l-2.95-0.1
			c0-0.04,0-0.08,0-0.12c-0.24,4.66-0.63,9.32-1.26,13.94l-3.21,0.01c-0.1-0.73-0.2-1.35-0.3-1.88l-0.27,0.1
			c-0.34-0.42-0.6-0.94-0.8-1.48c-0.12,1.34-0.24,2.69-0.36,4.02l-2.24,0.05c0.01,0.24,0.01,0.49,0.02,0.74
			c0.23,12.09,0.09,15.25-1.87,15.95c-0.11,3.77-0.23,7.54-0.38,11.32l-3.24,0.05c-0.38-5.28-0.63-10.57-0.87-15.85
			c-0.23-4.89-0.46-9.87-0.81-14.86l-1.46-0.01c-0.12-2.19-0.3-4.4-0.51-6.6c-0.08,1.63-0.17,3.26-0.26,4.89
			c-0.21,3.89-0.43,7.91-0.49,11.87l-3.24,0.07l-0.53-9.38l-1.27,0.02l-0.12-1.78l-0.33,0c-0.12,2.24-0.25,4.46-0.37,6.67
			c-0.3,5.47-0.61,10.93-0.9,16.4l-3.24-0.02l-0.37-9.57c-0.05-1.28-0.1-2.57-0.16-3.87c-0.03,3.77,0.05,8.5,0.1,11.68
			c0.05,2.89,0.09,5.39,0.07,6.83l-2.98,0.1c-0.14,6.75-0.3,13.62-0.6,20.41l-3.24-0.04l-0.03-1.38
			c-0.17-7.61-0.34-15.37-0.68-23.13c-0.06,1.63-0.1,3.25-0.09,4.86l-3,0.04c-0.05,1.15-0.09,2.3-0.15,3.44l-3.24-0.09
			c0.01-1.19,0.01-2.31,0-3.37l-3.15,0.09c-0.09-1.2-0.19-2.41-0.29-3.61c-0.03,0.89-0.05,1.77-0.06,2.65l-3.24,0.08
			c-0.05-0.8-0.1-1.6-0.15-2.41c-0.25,4.66-0.48,9.23-0.71,13.93c-0.47,9.47-0.97,19.48-1.74,31.95l-3.06-0.09
			c-0.03,0.59-0.05,1.19-0.09,1.78l-3.24-0.04c-0.08-3.92-0.27-7.84-0.45-11.76c-0.1-2.2-0.21-4.4-0.29-6.6
			c-0.11-0.02-0.24-0.05-0.37-0.08c-1.42-0.4-1.23-1.75-1.06-2.85l-0.07,0c-0.02-0.57-0.03-1.14-0.05-1.71l-0.85,0
			c-0.09-3.56-0.41-7.2-0.71-10.72c-0.01-0.14-0.02-0.29-0.03-0.43c-0.26,0.15-0.54,0.2-0.86,0.2c-0.09,0.48-0.2,0.99-0.31,1.53
			c-0.85,4.13-1.9,9.27-2.05,10.43l-3.23-0.15c-0.15-3.63-0.27-7.26-0.37-10.89c-0.16,1.94-0.31,3.88-0.43,5.82l-0.65-0.03
			c-0.07,1.71-0.16,3.42-0.25,5.12l-3.24-0.07c-0.04-3.65-0.13-7.3-0.24-10.94l-1.95,0.23c-2.48-9.93-3.66-19.49-3.61-28.49
			c-4.33,13.96-6.68,27.36-6.8,38.44c-0.18,17.01-0.32,31.55-0.4,44.09l1-0.01c0.11-1.97,0.22-3.95,0.33-5.93l2.6,0
			c0.28-6.02,0.41-11.99,0.54-17.86l3.23-0.09c0.52,6.72,0.82,13.51,0.89,20.26c0.86,0.45,1.13,2.27,1.35,10.4
			c0.18-0.27,0.4-0.38,0.66-0.43c0.2-5.51,0.4-11.02,0.61-16.53l3.24,0.03c0.08,3.88,0.29,7.74,0.5,11.6
			c0.08,1.51,0.16,3.02,0.24,4.53l1.05,0.01c0.11,2.01,0.25,4.02,0.41,6.03l1.39,0.03c-0.03,3.83,0.1,7.74,0.23,11.52
			c0,0.05,0,0.11,0.01,0.16l1.08,0.06c0.11-2.25,0.24-4.51,0.38-6.75l2.62,0c0.15-3.97,0.32-7.92,0.52-11.91l3.24,0.06l0.06,4.41
			c0.03,2.19,0.06,4.39,0.09,6.6c0.08-2.53,0.15-5.07,0.22-7.6l3.24,0.04c0.02,6.17,0.2,11.78,0.47,17.03l2.22-0.04
			c0.23-3.17,0.5-6.33,0.8-9.48l3.18,0.06c0.62-10.07,1.7-19.59,2.66-27.37l3.23,0.18c0.03,2,0.06,3.94,0.09,5.82l2.89,0.08
			c0.28-2.88,0.6-5.77,0.98-8.65l3.23,0.18l0.03,1.76c0.06,3.12,0.11,6.28,0.19,9.43c0.04-1.18,0.09-2.36,0.13-3.54l1.6,0.01
			c-0.02-0.87-0.04-1.72-0.08-2.56l0.85-0.09c0.09-1.91,0.19-3.83,0.29-5.74c0.22-3.95,0.44-8.04,0.47-12.03l3.24-0.04
			c0.08,2.23,0.15,4.5,0.22,6.82c0.03-0.55,0.06-1.1,0.09-1.65c0.21-3.64,0.42-7.4,0.48-11.1l2.43-0.03c0.23-4,0.47-8.01,0.73-11.99
			l0.81-0.14c0.03-0.27,0.07-0.55,0.1-0.82l3.23,0.15c0.06,1.42,0.11,2.84,0.17,4.26l2.53,0.04c0.02,1.37,0.07,2.75,0.13,4.13
			l2.1-0.03c0.54,4.61,0.99,9.22,1.37,13.78l3.12-0.07c0.28,3.95,0.48,7.92,0.65,11.89c0.22-9.05,0.44-18.1,0.6-27.15l3.24-0.04
			c0.07,1.8,0.06,4.73,0.05,7.99c-0.02,4.87-0.04,12.53,0.37,15.63l0.32,0.05c0.31-4.79,0.49-9.55,0.52-14.23l1.7-0.11l0.09-3.25
			l3.04-0.11c0.17-2.62,0.36-5.19,0.56-7.72l3.19-0.26c0.78,3.22,1.25,6.27,1.59,9.13c0.04-0.84,0.08-1.67,0.12-2.51
			c0.21-4.29,0.43-8.72,0.48-13.07l3.24-0.09c0.14,1.97,0.26,3.95,0.39,5.94l0.41-0.03c0-0.44,0.01-0.95,0-1.53l0.72-0.02
			c0.02-0.65,0.04-1.3,0.06-1.95l-0.3,0.12l-0.78-2.19c0.51-1.17,2.19-5.34,2.57-9.75l3.23,0.09c0.06,2.27,0.13,4.53,0.19,6.8
			c0.36,0.27,0.66,0.78,0.65,1.71c-0.01,1.44,0,2.54,0.03,3.39l1.18-0.05c0.03-1.11,0.06-2.22,0.09-3.33l3.24-0.04
			c0,0.01,0,0.03,0,0.04c0.18-3.91,0.33-7.8,0.48-11.63l0.32-8l3.24-0.01c0.12,2.32,0.22,4.66,0.32,7c0.16-4.6,0.32-9.2,0.48-13.79
			l1.17,0c0.32-4.08,0.83-8.14,1.55-12.16l3.22,0.27c0.05,5.08,0.17,10.2,0.37,15.32l0.99,0.01c0.02,1.15,0.04,2.3,0.07,3.45
			c0.29-7.64,0.56-15.4,0.73-23.07l3.24,0.03c0,0.25,0,0.51,0,0.76l2.15,0.06c0.1-2.64,0.18-5.26,0.26-7.86l0.18-5.8l3.24-0.02
			c0.4,8.41,0.61,16.73,0.75,24.74l1.5,0.02c0.06,2.25,0.13,4.5,0.22,6.75l2.92,0.03c0.03,0.55,0.05,1.1,0.08,1.65l1.27,0.06
			c0.02,0.55,0.05,1.1,0.08,1.65l1.89-0.01c0.19-3.41,0.4-6.81,0.64-10.2l3.23-0.01c0.33,4.3,0.61,8.6,0.88,12.9
			c0.26,4.14,0.53,8.37,0.86,12.6c0.17-2.22,0.33-4.47,0.41-6.69l3.02-0.01c0.04-0.86,0.09-1.72,0.13-2.56l3.22-0.11
			c0.46,3.75,0.83,7.53,1.11,11.33c0.07-1.18,0.12-2.35,0.16-3.52l3.23-0.08c0.03,0.38,0.44,3.23,0.79,5.72
			c0.19,1.35,0.33,2.37,0.42,3.14c0.06,0.38,0.09,0.6,0.1,0.67l-0.04,0.01c0.06,0.91-0.01,1.35-0.27,1.59
			c0.04,1.65,0.09,3.3,0.16,4.95c0.03-1.07,0.07-2.14,0.1-3.21l3.24,0.02c0.01,0.29,0.01,0.57,0.02,0.84l2.68,0
			c0.04,1.69,0.09,3.39,0.14,5.08l1.21,0.02c0.24,6.71,0.67,13.75,1.3,21.29l1.39-0.01c0.06,1.12,0.14,2.23,0.22,3.35l1.09,0.01
			c0.13-2.6,0.22-5.2,0.29-7.8c0-3.3,0.09-5.71,0.09-5.78l3.24,0.08c-0.02,2.27-0.05,4.54-0.12,6.82
			c0.05,7.87,0.75,14.64,1.54,15.77c-0.09-0.13-0.43-0.42-0.97-0.34l1.81,1.56c0.08,2.28,0.18,4.56,0.3,6.84l1.05,0.01
			c0,0.29,0.01,0.57,0.01,0.86l3.13-0.1c0.15,2.03,0.3,4.07,0.47,6.12c0.18-3.66,0.36-7.32,0.57-10.97
			c-0.09-0.26-0.12-0.65-0.08-1.24l-0.11-0.02l0.42-2.55c0.15-1.02,0.36-2.29,0.62-3.86c0.56-3.42,1.13-6.97,1.17-7.19l3.22,0.13
			c0.1,1.62,0.19,3.23,0.27,4.85l0.61,0.08c-0.68-5.53-0.79-7.27,0.98-7.76c0.3-0.08,0.58-0.09,0.84-0.04
			c0.09-3.85,0.21-7.71,0.34-11.56l3.22-0.1c0.2-1.98,0.34-3.94,0.38-5.86l3.24,0.01l0.17,9.29l0.64-0.01c0-0.01,0-0.02,0-0.04
			l0.46,0.03l0.43,0c0.13-1.44,0.29-2.89,0.46-4.33l0.72,0.03c0.05-0.32,0.1-0.66,0.17-1.05c0.3-1.84,0.86-5.28,0.9-5.73l1.92,0.02
			c0.38-9.63,0.92-13.38,1.7-14.91c0.57-7.71,0.86-15.56,0.86-23.35l0.95-0.07c-0.01-0.2-0.01-0.4-0.02-0.6
			c-0.19,0.14-0.33,0.31-0.39,0.45c0.11-0.26,0.31-1.29,0.37-1.71l1.8,0.1c0.34-2.26,0.68-4.58,0.9-6.85l2.65-0.02
			c0.01-0.25,0.03-0.5,0.04-0.75l3.23-0.08c1.1,11.41,1.81,22.56,2.11,33.25l0.9,0.03c0.02-0.82,0.03-1.63,0.04-2.45l1.15-0.02
			c0.15-3.45,0.37-6.9,0.66-10.32l3.23,0.07c0.03,0.87,0.08,1.73,0.13,2.59l1.22,0.02c0.01,1.98,0.04,3.97,0.08,5.96l2.16-0.08
			c0.08,1.17,0.15,2.34,0.21,3.5l1.14-0.02c0.02,1,0.04,1.84,0.06,2.55l0.84,0.02c0.03,2.25,0.09,4.51,0.16,6.76l0.74-0.01
			c0.27,5.1,0.48,10.23,0.63,15.36l0.72,0c0.11,2.54,0.23,5.07,0.37,7.61l0.97-0.02c0.26,2.85,0.67,5.75,1.08,8.56l0.63-0.01
			c0-0.01,0-0.01,0-0.02l0.9,0.01l0.4,0c0.32-8.48,0.77-15.89,1.4-23.02l3.23,0.08c0.16,4.07,0.47,8.45,0.89,12.72l1.2,0.02
			c0.02-0.83,0.04-1.66,0.06-2.49l3.23-0.1c0.1,1.15,0.2,2.31,0.29,3.48l2.42-0.02c0.14,2.77,0.28,5.65,0.41,8.59h1.38
			c0.01,0.55,0.01,1.09,0.02,1.64l1.07-0.01c0.16-7.4,0.47-14.84,1.06-22.21l3.21-0.17c0.12,0.63,0.22,1.27,0.3,1.9l0.05-0.01
			c0.01-0.26,0.02-0.53,0.02-0.79l3.24,0c0.14,5.18,0.3,9.98,0.48,14.51l1.32-0.01c0.12,4.81,0.24,9.61,0.36,14.42
			c0.22-0.87,0.69-1.69,1.89-1.48l1.34,1.5c0.02,0.28,0.03,0.55,0.05,0.83l3.11,0.05c0.19,4.94,0.41,9.87,0.64,14.81
			c0.01,0.18,0.02,0.37,0.03,0.55l2.29-0.02c0.2-3.71,0.38-7.41,0.54-11.08l2.4,0c0.03-0.52,0.06-1.04,0.09-1.56
			c0.23-3.75,0.46-7.49,0.65-11.24l3.24,0.02c0.03,0.84,0.06,1.69,0.09,2.54l1.38-0.06c0.54-7.82,0.91-15.94,1.12-24.62l1.49,0
			c0.39-2.08,0.81-4.18,1.25-6.26l0.71,0.06l0.15-4.88l3.24-0.01c0.01,0.28,0.02,0.55,0.03,0.83l0.86-0.01c0.11,2,0.22,4,0.33,6
			c0.16-1.19,0.3-2.31,0.45-3.37c1.12-8.39,1.86-13.94,2.72-29.05l3.24,0.06c0.05,2.25,0.15,4.5,0.27,6.75l0.98,0.01
			c0-0.25,0-0.5,0-0.75l1.11-0.01c0.11-5.52,0.18-10.95,0.23-16.21l3.24-0.09c0.09,1.4,0.19,2.8,0.29,4.2l1.07,0.02
			c0.03,0.28,0.05,0.55,0.07,0.82l1.11-0.05c0.23-3.42,0.56-6.83,0.98-10.21l2.8,0.08c0.24-1.76,0.51-3.51,0.8-5.25l3.21,0.14
			c0.03,0.29,0.54,4.24,0.87,6.74l0.02,0c0.09,0.69,0.16,1.23,0.2,1.65c0.03,0.2,0.04,0.33,0.05,0.37l-0.02,0
			c0.05,0.68,0,0.97-0.2,1.21c-0.01,0.64-0.02,1.32-0.03,2.03c-0.01,0.49-0.01,1.03-0.02,1.6l0.6,0.03
			c0.21-6.23,0.42-12.46,0.67-18.69l3.01,0.03c0.06-0.87,0.1-1.73,0.14-2.59l3.09,0c0.02-0.3,0.04-0.6,0.06-0.9l2.56,0.08
			c0.17-3.15,0.34-6.3,0.53-9.43c-0.05-6.36,0.35-12.28,0.97-15.56l3.21,0.4l-0.23,3.73c-0.24,3.87-0.49,7.78-0.72,11.72
			c0.09,8.69,1.03,17.97,3.22,21.67c0.33-3.04,0.62-6.12,0.78-9.17l3.23,0.01c0.33,7.01,0.59,14.06,0.77,21.01
			c0.14,0.02,0.28,0.05,0.45,0.09c0.03,0.01,0.07,0.02,0.1,0.03c0.27-4.24,0.66-4.82,1.59-4.91c0.3-8.29,0.63-16.5,1.05-24.76
			l3.22-0.12c0.32,2.6,0.6,5.2,0.84,7.81l3.21-0.03c0.31,5.17,0.58,10.54,0.8,16.22l1.9,0.01c0.39,9.35,0.69,18.84,0.97,28.13
			c0.11-0.45,0.23-0.88,0.36-1.27c0.04-0.71-0.07-3.09-0.16-5.01C665.85,578.11,665.8,577,667.2,576.74z"/>
		<path class="st2" d="M663.55,729.85c-0.19-13.21-0.38-26.76-1.15-40.23l-1.67,0c-0.42-7.92-0.68-15.91-0.85-23.86l-2.29-0.02
			c-0.24-4.85-0.51-9.72-0.81-14.59c-0.09,4.32-0.08,9.99,0.01,15.32v0.03v0l-2.66,0.05c-0.03,1.41-0.04,2.82-0.04,4.22l-3.24,0.05
			c-0.01-0.56-0.03-1.11-0.05-1.67l-2.2-0.04c-0.08-3.37-0.27-6.73-0.47-10.1c-0.03-0.46-0.05-0.91-0.08-1.37c-0.03,0-0.07,0-0.1,0
			c-0.8-0.04-1.34-0.16-1.73-1.45c-0.09,1.19-0.17,2.38-0.22,3.58l-2.64-0.04c0,0.05,0,0.11,0,0.16c0.13,0.75-0.01,1.47-0.07,1.81
			l-3.21-0.34c0.01-0.28,0.02-0.56,0.03-0.84l-0.35-0.2l-0.02,1.12l-1.55,0.03c-0.12,2.54-0.21,5.1-0.25,7.63l-3.24,0.05
			c-0.03-0.67-0.07-2.18-0.11-4.11c-0.06-2.45-0.16-6.68-0.3-10.27l-0.2,0.01c-0.25,10.38-0.58,21.02-1.55,31.5l-1.71-0.02
			c-0.03,0.55-0.06,1.1-0.08,1.65l-3.24-0.04c-0.03-1.67-0.06-3.34-0.11-5.02l-0.78-0.04c-0.11,0.91-0.23,1.82-0.37,2.72l-1.97-0.13
			c-0.09,1.7-0.18,3.39-0.26,5.08l-3.23,0.01c-0.03-0.56-0.06-1.11-0.1-1.66l-0.82-0.02c-0.14,2.25-0.27,4.5-0.34,6.76l-3.23,0.08
			c-0.07-0.86-0.14-1.72-0.21-2.58l-1.03,0.11c-0.01,0.37-0.02,0.74-0.03,1.11c0.01,0.41,0.01,0.83,0,1.24l-0.73,0l-0.16,5.08
			l-1.54,0.09c-0.36,6.81-0.6,13.64-0.71,20.42l-3.23,0.11c-0.24-2.87-0.49-5.75-0.75-8.62c-0.01,0.32-0.03,0.64-0.06,0.96
			l-0.65-0.05c-0.07,1.7-0.15,3.41-0.24,5.11l-3.24-0.03c-0.09-2.61-0.24-5.22-0.41-7.82c-0.7,6.67-1.11,12.48-1.29,18.04l-3.15,0.1
			c-0.85,10.54-1.37,20.89-1.8,30.61l-2.75,0c-0.17,5.7-0.43,11.42-0.84,17.09l-3.23,0.02c-0.09-1.06-0.18-2.13-0.27-3.19
			c-0.22,4.16-0.42,8.3-0.61,12.38c-0.25,5.45-0.51,10.89-0.83,16.34l-3.24-0.03c-0.39-10.47-0.77-20.93-1.14-31.4
			c-0.13,2.47-0.26,4.93-0.38,7.38l-0.19,3.59l-3.23,0.01c-0.36-6.5-0.62-12.96-0.84-19.6l-1.85-0.01c-0.03-0.58-0.07-1.17-0.1-1.75
			l-2.15-0.01c-0.17-10.43-0.65-21.04-1.1-31.3c-0.01-0.13-0.01-0.26-0.02-0.39c-0.14,0.06-0.29,0.1-0.46,0.12
			c-0.11,1.51-0.23,3.01-0.35,4.51c-0.26,3.35-0.53,6.69-0.66,10.05l-1.31,0.08c-0.01,0.26-0.03,0.52-0.04,0.78l-3.24-0.08
			c0.01-3.06-0.03-6.15-0.11-9.24l-0.02,0c-0.22,2.16-0.47,4.31-0.71,6.42c-0.31,2.69-0.62,5.39-0.87,8.09l-2.56,0.41
			c-0.19,1.59-0.39,3.18-0.59,4.76l-2.47-0.1c-0.08,3.36-0.16,6.75-0.22,10.15l-3.24,0.05c-0.28-5.28-0.51-10.55-0.74-15.83
			c-0.38,13.54-0.91,16.29-1.92,16.97c-0.09,2.53-0.24,5.05-0.39,7.57c-0.18,3.04-0.36,6.09-0.44,9.14l-3.24,0.05
			c-0.5-8.5-1.11-17.15-1.83-25.77c-0.11,0-0.22,0-0.33-0.01c-0.15-0.02-3.61-0.61-3.07-16.06c0.01-0.37,0.03-1,0.28-1.52l0-0.86
			c-0.04-8.61-0.14-15.17-0.3-19.65c-0.02,0.27-0.04,0.54-0.06,0.82l-3.23,0.05c-0.06-0.55-0.11-1.11-0.16-1.66l-1.65-0.14
			c-0.18-4.07-0.38-8.13-0.59-12.2c-0.08,0.44-0.15,0.88-0.23,1.32l-3.21-0.16c-0.16-2.06-0.32-4.13-0.47-6.19
			c-0.08-0.01-0.17-0.02-0.25-0.04c-0.04,0.17-0.08,0.34-0.12,0.52l-3.19-0.27c-0.02-0.3-0.04-0.6-0.06-0.9l-2.63,0.03
			c-0.05-0.84-0.09-1.68-0.14-2.52l-1.2,0.05l-0.03-0.32c-0.62-5.74-1.16-10.72-1.59-16.04c-0.99,12.3-1.56,24.18-2.19,37.38
			c-0.31,6.56-0.64,13.38-1.04,20.67l-2.23-0.03c-0.01,0.27-0.01,0.54-0.01,0.81l-3.23,0.11c-0.22-2.87-0.43-5.73-0.63-8.6
			l-1.6,0.18c-0.05-0.31-0.08-0.63-0.08-0.94c-0.18-2.18-0.39-4.35-0.6-6.52l-0.51-0.07c-0.16,4.44-0.34,8.88-0.52,13.32l-3.23,0.11
			c-0.16-1.45-0.32-2.91-0.47-4.37l-2.77-0.03c-0.48,3.64-0.83,7.2-1.17,15.38l-1.11,0c-0.1,1.7-0.18,3.4-0.24,5.1l-0.87,0.01
			c-0.39,8.39-0.83,17.06-1.38,25.61l-3.22,0.09c-0.14-1.18-0.27-2.37-0.4-3.55l-1.67,0.04c-0.03,0.31-0.07,0.61-0.09,0.92
			l-3.23-0.2c0.08-3.03,0.07-6.06-0.02-9.1l-3.13-0.22l-0.07-6.13c-0.04-4.13-0.08-8.31-0.16-12.5l-2.93-0.15
			c0.04-3.61-0.09-7.3-0.22-10.87c-0.02-0.54-0.04-1.08-0.06-1.62l-1.03,0.04c-0.18-0.85-0.14-1.84-0.1-2.8
			c0.01-0.25,0.02-0.52,0.03-0.8l-1.27,0.17c-0.33-1.64-0.65-2.8-0.92-3.62l-0.11,0.05c-0.46-0.59-0.92-1.31-1.13-2.02
			c0,0.09-0.01,0.18-0.02,0.27l-3.23,0.02c-0.07-0.85-0.13-1.71-0.19-2.58l-0.16,5.91l-3.24,0.02c-0.07-1.71-0.14-3.43-0.23-5.14
			l-2.47-0.01l-0.28-15.28l-1.08-0.03c-0.12-2.55-0.34-5.09-0.57-7.63l-0.59-0.02c-0.03,1.12-0.06,2.23-0.08,3.35l-3.24,0.02
			c-0.18-4.79-0.45-9.61-0.78-14.42l-2.11-0.03c-0.19,2.29-0.4,4.58-0.61,6.87l-3.23-0.12c-0.06-3.73-0.14-7.37-0.22-10.95
			l-0.43-0.02l-0.11,6.7c0.04,0.88,0.03,1.77-0.05,2.66l-0.62-0.03c-0.08,1.99-0.17,3.97-0.27,5.96l-3.24-0.02
			c-0.25-5.86-0.46-12.06-0.63-18.72l-0.43-0.01c-0.08,3.1-0.16,6.19-0.2,9.29l-3.22,0.21c-0.68-4.82-1.56-12.46-2.34-21.1
			l-0.34,0.11c0.02,0.35,0.04,0.7,0.07,1.05l-3.21,0.38c-0.06-0.33-0.12-0.69-0.17-1.07c-0.2,2.59-0.42,5.18-0.66,7.76l-0.81-0.02
			c-0.24,5.72-0.57,11.42-0.99,17.04l-3.21,0.16c-0.17-0.97-0.3-1.95-0.38-2.93l-1.44-0.74c-0.11-7.25-0.37-14.44-0.72-21.47
			c-0.02,0.53-0.03,1.06-0.04,1.58c0.02,0.69,0,1.38-0.05,2.07l-0.69-0.03c-0.08,1.98-0.15,3.96-0.21,5.95l-1.46,0
			c-0.19,7.7-0.6,15.44-1.24,23.1l-2.41-0.09c-0.22,5.86-0.46,11.83-0.73,17.93l-3.23,0.03c-0.17-2.8-0.32-5.61-0.45-8.42l-1.32,0.1
			c-0.48-2.46-0.91-4.97-1.28-7.57c-0.12,2.84-0.27,5.85-0.46,9.06l-1.67,0c-0.34,8.44-0.49,16.37-0.59,22.95l-1.61,0.16
			c-0.12,3.03-0.24,6.13-0.19,9.17l-1.22,0.05c-0.06,3.44-0.09,7.44-0.1,9.78c-0.01,1.81-0.02,3.23-0.03,3.87l-3.24-0.04
			c-0.01-10.59-0.08-21.81-0.66-33.18l-1.59,0.04c-0.05-0.88-0.09-1.67-0.07-2.35c-0.03,0-0.06-0.01-0.09-0.01
			c-0.69-0.09-1.5-0.53-1.41-2.16c0.02-0.31,0.05-0.8,0.06-1.4l-0.63-0.05c-0.51,5.92-0.82,11.89-0.92,17.82l-1.56,0.05
			c-0.08,1.43-0.16,2.85-0.24,4.28l-3.24-0.09c0.02-4.55-0.22-9.1-0.72-13.63c-0.35,6.52-0.53,13.1-0.54,19.6l-1.9,0.03
			c-0.34,7-0.75,13.83-1.25,20.55l-3.23-0.03c-0.07-1.23-0.15-3.93-0.25-7.24c-0.16-5.11-0.4-13.28-0.7-18.34l-0.16,0
			c-0.17,4.27-0.36,8.54-0.6,12.81l-3.24-0.04c-0.19-6.17-0.51-12.34-0.84-18.51c-0.24-4.52-0.48-9.14-0.66-13.77l-1.18-0.01
			c0-0.01,0-0.03-0.01-0.05c-0.14,1.41-0.26,2.79-0.36,4.24l-3.24-0.08c-0.04-2.94-0.18-5.92-0.33-8.85
			c-0.23,6.92-0.51,13.93-0.93,20.85l-3.23-0.03c-0.08-1.7-0.15-3.42-0.22-5.13l-1.58,0.02c-0.05-1.13-0.1-2.26-0.15-3.39
			l-0.75-0.01c-0.23,9.09-0.47,18.17-0.8,27.26l-3.24,0.03c-0.16-2.81-0.38-5.61-0.61-8.41c-0.11-1.37-0.22-2.76-0.32-4.16
			c-0.12-0.01-0.26-0.03-0.4-0.05l-1.76-0.11c-0.14,4.72-0.23,9.41-0.33,14.04c-0.13,6.66-0.26,13.32-0.53,19.97l-3.24-0.03
			c-0.01-0.36-0.02-0.73-0.03-1.09c-0.09,4.63-0.19,9.27-0.34,13.9h-3.24c-0.18-5.6-0.33-11.25-0.47-16.89
			c-0.11,1.12-0.22,2.25-0.34,3.36l-0.86-0.02c-0.01,0.24-0.02,0.49-0.03,0.76l-1.94-0.03c-0.1,1.82-0.21,3.55-0.31,5.19l-1.25,0.03
			c-0.03,0.82-0.05,1.64-0.08,2.46c5.33,6.95,11.17,13.49,17.5,19.56l3.14-0.05c0.01,0.27,0.03,0.53,0.04,0.8l2.72,0
			c0.12-6.1,0.34-12.43,0.74-18.73l3.24,0.1c0,0.84,0.01,1.68,0.02,2.52l1.79,0.04c0.06,7.75,0.23,14.38,0.55,20.42
			c0.31-2.22,0.67-4.77,0.7-5.16l0.78,0.01c0.04-1.41,0.08-2.81,0.12-4.22l3.24-0.04c0.35,6.37,0.58,12.8,0.77,19.19
			c3.48,2.52,7.06,4.92,10.75,7.17c0.02-0.53,0.05-1.06,0.07-1.6l3.03-0.09c0.16-2.57,0.34-5.13,0.57-7.68l3.23,0.03
			c0.31,4.47,0.57,9.04,0.78,13.75c0.38,0.21,0.77,0.39,1.16,0.6c0.09-2.48,0.18-4.96,0.21-7.44l3.24-0.1
			c0.23,3.19,0.39,6.39,0.55,9.6c0.37,0.18,0.73,0.39,1.1,0.57c0.35-6.61,0.61-13.22,0.85-19.69c0.28-7.48,0.56-15.23,1.01-22.84
			h0.96c0.16-2.54,0.31-5.08,0.38-7.62l3.24-0.05c0.29,4.54,0.61,9.12,0.96,13.65l2.47,0.04c0.21-7.37,0.31-14.71,0.42-21.95
			l0.09-6.16l2.94-0.1l0.2-13.54l3.24-0.03c0.06,1.96,0.12,3.92,0.18,5.88l2.04-0.11c0.96,6.26,1.46,8.1,1.71,8.53
			c-0.11-0.19-0.57-0.6-1.24-0.52l1.8,1.59c0.01,0.83,0.03,1.66,0.05,2.48l0.69-0.32c0.51,0.4,1.01,0.89,1.45,1.47
			c0.48-6.69,1.07-13.38,1.77-19.98l3.19-0.17c0.05,0.21,0.09,0.41,0.14,0.62l0.25-13.95l3.23-0.1c0.5,6.42,0.81,12.86,1.02,18.84
			l1.24,0.03c0,0.28,0.01,0.55,0.01,0.83l3.13,0c0.13,5.83,0.34,11.97,0.63,18.73l0.05,0c-0.04-0.77-0.08-1.39-0.1-1.65l0.14-0.01
			c0.07-1.63,0.47-1.67,1.31-1.76l0.25,0.2c0.39-5.17,0.65-10.36,0.78-15.52l1.19-0.04c0.05-0.59,0.11-1.19,0.16-1.78l3.23,0.13
			c0.06,5.01,0.15,9.81,0.26,14.43l0.82-0.01c0.17-4.25,0.36-8.54,0.62-12.79l3.24,0.05c0.16,5.03,0.36,10.06,0.57,15.08
			c0.09-1.9,0.16-3.81,0.22-5.71l3.24-0.01c0.19,5.18,0.51,10.36,0.83,15.54c0.22,3.58,0.44,7.23,0.63,10.9l0.79,0.01
			c0.02,0.58,0.03,1.09,0.05,1.53l0.83-0.03c0.79,5.2,1.45,9.89,1.99,14.24c0.23-2.72,0.44-5.44,0.64-8.14l3.23-0.05
			c0.03,0.24,0.05,0.47,0.08,0.72l3.08,0.29c0.03,3.1,0.13,6.22,0.22,9.33c0.08,2.53,0.16,5.1,0.2,7.68
			c1.13,0.43,1.37,2.74,1.64,16.64c0.03-0.72,0.07-1.43,0.09-2.15l1.77,0.02c0.28-3.47,0.59-6.92,0.93-10.35l3.23,0.07
			c0.14,2.76,0.27,5.53,0.4,8.29c0.28,6.01,0.57,12.13,1,18.25c0.57,0.02,1.14,0.04,1.71,0.06c0.15-3.76,0.29-7.51,0.41-11.23
			l3.24,0.03c0.06,3.76,0.12,7.53,0.17,11.29c0.02,0,0.03,0,0.05,0c0.28-6.17,0.62-12.25,1.03-18.19l1.03,0.02
			c0.11-1.99,0.22-3.97,0.32-5.96l1.65-0.01c0.32-4.8,0.67-9.65,1.05-14.51l0.92,0.02c0.13-3.12,0.27-6.24,0.43-9.35h2.6
			c0.03-0.58,0.07-1.15,0.1-1.73l3.24,0.09c0.01,1.66,0.04,3.32,0.08,4.97l1.26-0.04c0.19,1.6,0.32,3.22,0.39,4.83
			c0.11,0.08,0.21,0.17,0.3,0.27c0.12-0.09,0.25-0.19,0.39-0.28l1.84,0.9c0.05-1.57,0.09-3.14,0.13-4.71l2.04-0.06
			c0.2-4.26,0.42-8.52,0.65-12.78l2.81,0.05c0.1-1.18,0.22-2.37,0.34-3.55l1.67-0.44l0.09-0.83c-0.61,0.04-0.95,0.44-1.02,0.57
			c0.72-1.4,1.78-12.29,2.39-38.37l3.24-0.01c0.22,7.19,0.53,14.37,0.84,21.55c0.03,0.71,0.06,1.42,0.09,2.13l0.37,0.05
			c0.24-2.57,0.53-5.15,0.87-7.7l3.23,0.16c0.08,2.54,0.16,5.1,0.26,7.66l2.44,0.02c0.03,1.23,0.06,2.46,0.09,3.69
			c0.22-1.53,0.46-3.09,0.72-4.76l3.2-0.03c0.41,2.34,0.76,4.7,1.04,7.06l1.68,0.01l0.08,4.18l2.61,0.07
			c0.02,0.69,0.01,2.01-0.01,3.61c-0.01,1.67-0.03,4.45,0,6.99c0.09,0.11,0.17,0.21,0.21,0.33l2.05,0.15
			c0.27,8.53,0.6,17.05,0.94,25.57l0.85,0.01c0.08,2.85,0.2,5.69,0.34,8.54l1.01,0.02c0.01,3.32,0.11,5.89,0.26,8.1
			c0.03-0.23,0.07-0.46,0.11-0.68l2.86,0.18c0.41-7.3,0.52-14.61,0.63-21.79l0.07-4.57l3.24,0l0.2,11.32
			c0.08,4.42,0.15,8.89,0.24,13.37l2.25-0.08c0.01,0.12,0.02,0.24,0.03,0.37c0.12-2.09,0.24-4.18,0.33-6.27l2.63,0.01
			c0.03-0.31,0.06-0.63,0.09-0.94l2.53-0.01c0.23-2.25,0.45-4.51,0.61-6.78l2.09-0.03c0.4-7.61,0.89-15.69,1.5-23.86l3.24,0.1
			c0.05,3.3,0.26,6.66,0.47,9.92c0.08,1.22,0.16,2.43,0.22,3.65l1.54-0.04c0.59,6.81,0.93,13.67,1.19,20.44
			c4.67-2.2,9.26-4.58,13.72-7.19c0.04-6.36,0.1-12.76,0.27-19.11l3.24-0.03c0.1,2.15,0.19,4.31,0.27,6.47
			c0.03-1.01,0.06-2.02,0.09-3.03l3.24-0.01c0.04,1.44,0.11,2.89,0.19,4.34c0.07-0.88,0.13-1.77,0.17-2.66l0.81-0.74
			c-0.05-0.41-0.11-0.75-0.17-1.04c-0.77-1.91-0.38-2.35-0.04-2.73l1.85-0.42c0.05,0.02,0.1,0.05,0.15,0.08
			c0.21-3.49,0.39-6.97,0.54-10.47l3.24,0.03c0.06,2.4,0.15,4.81,0.28,7.22c0.03-1.55,0.05-3.1,0.07-4.65l0.85-0.08
			c0.15-2.31,0.32-4.6,0.51-6.85l3.09,0.07c0.08-1.7,0.1-3.39,0.04-5l3.19-0.31c0.17-7.87,0.28-15.94,0.4-24.49l3.24-0.01
			c0.02,0.89,0.04,1.78,0.06,2.66c0.29-3.76,0.54-7.51,0.76-11.25l1.16,0.03c0.07-1.7,0.13-3.39,0.18-5.09l0.78-0.05
			c0.04-0.58,0.08-1.16,0.13-1.74l3.23,0.12c0,0.26,0.01,0.53,0.01,0.79l1.34-0.01c0.04,0.81,0.09,1.61,0.13,2.42
			c0.21-3.94,0.43-7.88,0.68-11.82l3.24,0.06c0.15,5.74,0.31,11.47,0.48,17.2c0.13,4.48,0.26,8.97,0.38,13.45l0.54-0.01
			c0.08-3.85,0.11-7.68,0.15-11.46c0.1-10.22,0.2-20.8,1.05-31.2l3.23,0.12c0.05,4.63,0.59,8.96,1.26,13.39l1.16,0.08
			c0.09-3.07,0.15-6.14,0.18-9.2l3.24-0.01c0.02,1.08,0.03,2.09,0.06,3.07c0.12-5.61,0.19-11.2,0.25-16.71l0.05-4.26l3.23-0.19
			c0.65,4.95,1.07,8.07,1.33,11.14l2.27-0.03c0.59,5.33,1.57,7.99,2.19,9.2c1.19,0.83,1.68,1.83,1.35,2.75l-0.76,0.47
			c0.03,1.49,0.04,3.35,0.05,5.36c0.03,3.82,0.06,10.12,0.35,13.63l0.03,0c0.1-1.91,0.21-3.82,0.29-5.75l1.25-0.05
			c0.04-1.39,0.08-2.78,0.11-4.17l1.26-0.01c0.24-4.45,0.7-5.04,1.62-5.18c0.08-2.26,0.17-4.52,0.27-6.78l3.24-0.02
			c0.21,3.96,0.47,7.95,0.78,11.94l2.36,0.05c0.02,0.78,0.05,1.61,0.07,2.4c1.11-2.44,2.19-4.9,3.2-7.42l-1.57-0.01
			C663.73,742.22,663.64,736.03,663.55,729.85z"/>
		<path class="st3" d="M462.98,253.03c9.34,9.66,17.11,20.77,23.32,33.32c4.5,9.11,8.46,18.75,11.89,28.91
			c0.02,0.04,0.03,0.09,0.05,0.13c0.37,0.84,1.35,1.23,2.2,0.86c0.82-0.35,1.37-0.98,1.64-1.88c6.27-20.43,16-39.38,29.49-55.9
			c3.62-4.43,7.83-8.15,11.95-12.12c1.56-1.5,1.49-3.38,1.18-5.37c-2.65-17.14-7.31-33.85-13.99-50.12
			c-4.92-12.02-11.41-24.87-19.45-38.55c-2.84-4.84-8.09-14.27-14.94-9.51c-2.08,1.44-3.88,3.38-5.38,5.82
			c-17.39,28.08-30.53,59.53-35.5,92.08c-0.31,2-0.33,4.09,1.16,5.67C458.66,248.54,460.79,250.76,462.98,253.03z"/>
		<path class="st4" d="M294.15,201.33c3.55,2.3,7.27,3.63,10.84,5.66c21.82,12.35,40.04,27.23,53.49,48.19
			c5.18,8.09,8.24,16.33,9.17,24.73c0.31,2.71,1.74,4.56,4.28,5.55c7.92,3.08,16.13,5.98,23.78,9.99
			c15.67,8.23,29.94,18.5,42.79,30.81c15.42,14.78,29.08,30.58,42.25,48.43c1.15,1.57,2.56,2.66,4.24,3.27
			c0.37,0.14,0.77,0.11,1.11-0.06c1.95-0.99,2.84-2.62,2.69-4.89c-0.74-10.59-2.34-20.93-4.8-31
			c-8.02-32.92-25.45-64.57-46.77-91.74c-8.27-10.55-17.37-19.1-27.3-25.66c-33.07-21.91-71.63-31.26-111.41-30.45
			c-2.4,0.05-4.17,0.91-5.31,2.58C291.93,198.56,292.25,200.1,294.15,201.33z"/>
		<path class="st4" d="M514.81,378.01c0.39,0.09,0.76,0.01,1.09-0.22c0.92-0.65,1.66-1.33,2.24-2.05
			c5.35-6.61,11.05-13.77,17.11-21.49c7.8-9.92,16.79-19.35,26.03-28.27c18.73-18.06,40.53-31.48,65.42-40.27
			c2.82-0.99,5.5-2.56,5.8-6.03c0.57-6.67,2.36-12.77,5.37-18.32c15.06-27.76,39.59-45.08,66.8-59.57c5.54-2.95,0.73-7.3-3.08-7.42
			c-31.38-0.94-61.38,5.1-90.01,18.1c-20.28,9.21-36.64,21.77-49.07,37.67c-27.51,35.19-48.38,76.63-51.36,120.43
			C510.93,373.76,510.96,377.19,514.81,378.01z"/>
		<path class="st3" d="M275.86,323.54c1.29,0.26,4.24,0.73,8.87,1.41c19.67,2.91,37.24,10.73,51.94,24.48
			c1.33,1.25,2.72,1.65,4.17,1.22c3.81-1.14,7.53-2.24,11.15-3.3c12.47-3.64,25.42-5.41,38.83-5.3c6.12,0.05,12.63,0.22,19.51,0.52
			c2.35,0.11,5.83-2.12,4.53-4.89c-0.56-1.2-1.3-2.26-2.22-3.19c-10.57-10.76-24.1-19.28-37.78-25.52
			c-29.62-13.54-65.55-14.4-94.89,1.21c-2.56,1.36-4.75,2.91-6.55,4.65C270.35,317.78,271.29,322.62,275.86,323.54z"/>
		<path class="st3" d="M631.69,306.03c-17.71,6.63-32.71,16.14-45.01,28.55c-2.44,2.46-3.25,5.58,0.33,7.82
			c0.45,0.28,0.94,0.41,1.48,0.39c5.65-0.22,11.22-0.42,16.72-0.6c12-0.38,23.55,0.73,34.71,3.15c1.68,0.37,3.38,0.68,5.05,1.11
			c0.25,0.07,0.5,0.15,0.75,0.21c0.66,0.17,1.3,0.38,1.96,0.56c1.15,0.31,2.28,0.65,3.42,0.98c2.47,0.7,4.98,1.36,7.4,2.12
			c2.19,0.69,4.21,0.16,6.07-1.57c12.05-11.22,26.45-18.64,43.22-22.28c4.73-1.03,9.9-2,15.49-2.91c3.27-0.54,5.04-2.23,5.3-5.09
			c0.05-0.48-0.09-0.96-0.39-1.34c-1.32-1.72-2.88-3.19-4.66-4.41c-9.87-6.76-21.45-10.77-33.24-12.61
			C670.14,296.96,650.61,298.94,631.69,306.03z"/>
		<path class="st4" d="M382.53,425.12c0.09,0.04,0.18,0.08,0.26,0.11c0.19,0.08,0.38,0.16,0.57,0.24c0.68,0.29,1.37,0.56,2.03,0.87
			c3.08,1.44,5.99,3.19,8.84,5.04c1.52,0.98,3.02,1.99,4.52,3.01c0.06,0.04,0.12,0.08,0.19,0.13c2.26,1.55,4.71,1.89,7.16,0.52
			c1.06-0.59,2.14-1.12,3.21-1.69c0.21-0.11,0.42-0.22,0.64-0.33c2.95-1.54,5.93-3,8.96-4.36c1.52-0.68,3.05-1.33,4.59-1.97
			c1.31-0.54,2.63-1.09,3.95-1.6c0.78-0.3,1.56-0.58,2.35-0.87c1.14-0.42,2.3-0.8,3.45-1.2c10.65-3.63,21.77-6.21,33.35-7.75
			c0.8-0.11,1.59-0.25,2.4-0.34c3.45-0.42,7.02-0.79,10.7-1.12c1.67-0.16,3.33-1.05,4.32-2.35c0.87-1.14,1.24-2.59,0.6-4.16
			c-0.78-1.9-2-3.75-3.43-5.53c-0.13-0.16-0.26-0.32-0.39-0.48c-1.11-1.33-2.32-2.61-3.56-3.83c-0.84-0.82-1.69-1.62-2.51-2.37
			c-0.3-0.27-0.62-0.52-0.93-0.79c-2.65-2.37-5.45-4.58-8.34-6.69c-3.63-2.64-7.43-5.08-11.37-7.29c-0.82-0.46-1.64-0.91-2.48-1.36
			c-1.17-0.62-2.34-1.23-3.52-1.81c-1.33-0.65-2.67-1.28-4.02-1.88c-1.29-0.58-2.6-1.12-3.91-1.65c-6.33-2.58-12.86-4.69-19.49-6.23
			c-21.67-5.02-45.18-4.86-70.52,0.51c-18.47,3.9-35,10.09-49.6,18.54c-14.63,8.47-26.09,19.65-36.76,33.02
			c-2.9,3.62-7.99,10.32-5.37,14.81c0.03,0.06,0.05,0.12,0.09,0.17c0.97,1.53,2.13,2.48,3.48,2.87c1.41,0.41,3.01,0.21,4.83-0.62
			c9.12-4.15,18.39-8.95,27.78-12.23C322.16,414.84,355.2,413.51,382.53,425.12z"/>
		<path class="st4" d="M742.22,431.09c-0.45-2.26-1.37-4.41-2.77-6.47c-4.43-6.55-9.37-12.54-14.77-18.04
			c-0.38-0.39-0.74-0.81-1.13-1.19c-1.05-1.05-2.16-2.03-3.25-3.04c-0.1-0.09-0.19-0.18-0.29-0.27c-0.13-0.12-0.27-0.25-0.4-0.37
			c-4.58-4.17-9.45-8.01-14.65-11.49c-0.52-0.35-1.01-0.73-1.54-1.07c-4.32-2.8-8.87-5.34-13.61-7.69c-0.48-0.24-0.92-0.5-1.4-0.73
			c-0.73-0.35-1.46-0.66-2.19-0.99c-1.56-0.73-3.12-1.46-4.7-2.13c-0.09-0.04-0.18-0.08-0.27-0.12c-1.79-0.76-3.61-1.46-5.42-2.16
			c-0.81-0.31-1.61-0.64-2.42-0.94c-0.36-0.13-0.73-0.25-1.09-0.38c-3.01-1.09-6.06-2.08-9.13-3c-1.8-0.54-3.6-1.06-5.42-1.54
			c-0.08-0.02-0.16-0.04-0.23-0.06c-1.06-0.28-2.12-0.53-3.18-0.79c-0.74-0.18-1.47-0.38-2.21-0.55c-1.63-0.37-3.28-0.69-4.93-1.01
			c-0.01,0-0.03-0.01-0.04-0.01c-1.1-0.22-2.2-0.46-3.31-0.66c-0.5-0.09-1.01-0.15-1.52-0.24c-2.4-0.4-4.81-0.76-7.25-1.07
			c-0.08-0.01-0.16-0.02-0.24-0.03c-2.27-0.28-4.55-0.54-6.85-0.73c-2.71-0.23-5.44-0.38-8.17-0.48c-30.15-1.04-61,6.4-85.22,23.91
			c-1.72,1.25-3.43,2.52-5.08,3.87c-0.45,0.37-0.88,0.78-1.33,1.16c-2.2,1.86-4.33,3.82-6.39,5.87c-0.04,0.04-0.07,0.07-0.11,0.11
			c-0.99,0.98-2,1.94-2.95,2.96c-0.4,0.42-0.9,1.03-1.41,1.71c-1.34,1.79-2.74,4.2-2.35,5.87c0.29,1.26,1.08,2.25,2.09,3
			c1.45,1.08,3.37,1.66,5.08,1.79c0.02,0,0.04,0.01,0.06,0.01c6.11,0.39,12.13,1.11,18.07,2.13c1.13,0.19,2.24,0.43,3.36,0.65
			c0.75,0.14,1.5,0.3,2.25,0.46c1.11,0.23,2.22,0.43,3.32,0.68c1.68,0.38,3.34,0.83,5.01,1.26c4.34,1.12,8.63,2.38,12.87,3.85
			c1.08,0.37,2.14,0.79,3.22,1.18c2.49,0.92,4.97,1.88,7.42,2.92c5.42,2.3,10.78,4.87,16.04,7.76c1.5,0.82,3.2,1.09,4.79,0.58
			c0.49-0.15,0.97-0.37,1.43-0.68c3.28-2.2,6.04-3.93,8.39-5.31c1.59-0.93,3.03-1.73,4.19-2.29c15.76-7.55,33.43-10.78,51.08-10.41
			c1.28,0.03,2.57,0.1,3.85,0.16c16.92,0.85,33.7,4.95,48.6,11.76c4.76,2.18,9.93,4.67,15.49,7.47c3.08,1.55,5.85,1.52,8.31-0.11
			C741.86,434.87,742.63,433.18,742.22,431.09z"/>
		<path class="st2" d="M577.1,456.86c-0.22-2.3-0.42-4.41-0.58-7.63l-0.48,0c-0.03,1.69-0.07,3.38-0.11,5.06l-3.24,0.08l-0.32-4.29
			l-1.22,0.22c-0.05,0.8-0.11,1.59-0.17,2.38l-3.23-0.07c-0.03-0.86-0.07-1.72-0.12-2.58l-2.13-0.02c-0.05-3.11-0.19-6.25-0.32-9.37
			c-6.26-2.54-12.73-4.81-19.47-6.69c-8.93-2.49-18.08-4.19-27.34-5.15c-0.32,2.83-0.64,5.67-0.84,8.51l-3.24-0.1
			c-0.01-1.42-0.02-2.67-0.03-3.77c-0.21,2.74-0.47,5.48-0.78,8.21l-3-0.13c-0.03,0.82-0.07,1.64-0.1,2.46
			c-0.16,3.73-0.31,7.46-0.5,11.19l-1.93,0c-0.12,1.7-0.23,3.41-0.31,5.11l-0.76,0l-0.13,4.24l-3.24,0.07
			c-0.4-5.34-0.73-10.73-0.98-16.11c-0.11,1.06-0.22,2.09-0.33,3.11c-0.48,4.42-0.94,8.6-1.28,15.53l-3.23,0.02
			c-0.17-2.65-0.34-5.3-0.49-7.95c-0.12,0.96-0.23,1.93-0.32,2.89l-3.23-0.1c-0.01-0.25-0.02-0.5-0.03-0.75l-0.86,0.03
			c-0.09-0.75-0.09-1.67-0.07-2.57l-0.83-0.07c-0.45-6.52-0.82-13.11-1.16-20.34l-0.45,0.03c-0.03,0.47-0.04,1.02-0.05,1.33
			c-0.02,0.63-0.05,1.14-0.08,1.3l-1.59-0.13c-0.06,0.56-0.12,1.12-0.19,1.69l-1.12-0.04c-0.08,1.41-0.15,2.8-0.22,4.19l-3.24-0.07
			c-0.03-6.33-0.69-12.79-1.34-17.71c-0.94,0.1-1.88,0.21-2.82,0.33c-0.08,1.83-0.16,3.65-0.23,5.5l-3.24-0.03
			c-0.04-1.66-0.08-3.33-0.13-4.99c-0.2,0.03-0.41,0.06-0.61,0.09c-0.03,0.51-0.05,1.03-0.08,1.54l-3.24-0.03
			c-0.01-0.33-0.05-0.66-0.07-0.99c-41.86,7.06-82.44,29.52-112.19,67.58c-1.82,2.32-3.55,4.73-5.23,7.17
			c-0.03,0.71-0.05,1.41-0.08,2.12l-1.34-0.02c-8.09,12.12-14.66,25.48-19.5,38.7c0.04,0.13,0.08,0.27,0.11,0.4
			c0.05,0.18,0.09,0.28,0.1,0.33l-0.03,0.01c0.13,0.68,0.12,1.24-0.26,1.63c0.92,6.2,1.06,7.42,0.23,7.83
			c0.03,4.29,0.36,8.71,0.98,13.24c0.14-2.54,0.26-5.12,0.29-7.66l3.24-0.09c0.2,2.81,0.38,5.65,0.54,8.51
			c0.1-1.41,0.2-2.81,0.27-4.21l3.23-0.04c0.08,1.11,0.83,6.53,1.43,10.89c0.11,0.79,0.21,1.5,0.29,2.15
			c0.18-4.6,0.32-9.2,0.42-13.8h3.24c0.01,0.51,0.01,1.47,0,2.66c-0.01,1.28-0.02,3.47,0.01,5.66l2.69,0.17
			c0.13,2.84,0.37,5.68,0.61,8.52l1.18,0c0.09,2.26,0.18,4.52,0.26,6.77l0.15-0.01c0.11-3.39,0.24-6.78,0.4-10.17l3.22-0.12
			c0.13,1.01,0.24,2.03,0.35,3.05c0.31-6.21,0.61-12.2,0.97-18.53c-0.63-0.54-0.79-1.27,0.26-4.45c0.04-0.71,0.09-1.43,0.13-2.15
			l1.07-1.18c0.12-0.32,0.25-0.65,0.38-1l2,0.26c0.06-1.33,0.11-2.65,0.14-3.98l0.85-0.03c0.02-0.25,0.03-0.54,0.05-0.86l2.15,0
			l0.09-5.91l3.23-0.15c0.09,0.81,0.18,1.59,0.26,2.34c0.06-1.38,0.29-3.59,0.66-7.12c0.36-3.47,0.74-7,0.79-7.93l3.24,0.07
			c0.12,6.26,0.24,12.52,0.37,18.78l2.41-0.11c0.16-5.39,0.38-10.8,0.71-16.17l3.24,0.03c0.08,1.88,0.15,3.75,0.22,5.63
			c0.05-1.2,0.11-2.4,0.17-3.59c0.16-3.23,0.31-6.46,0.41-9.7l3.24,0.03c0.02,1.3,0.04,2.61,0.07,3.92
			c0.27-5.3,0.53-10.61,0.74-15.89l3.24-0.02c0.3,5.37,0.53,10.8,0.68,16.22l1.33-0.02c0.67-2.09,1.3-4.53,1.49-6.87l3.23,0.02
			c0.21,3.09,0.52,6.16,0.84,9.24c0.01,0.04,0.01,0.09,0.01,0.13l1.39-0.07c0.97,8.16,1.38,16.46,1.76,24.52
			c0.09-2.84,0.02-6.74-0.04-9.71c-0.07-3.73-0.14-7.25-0.01-9.6l0.97-0.07c-0.04-1.01,0.1-2.03,1.41-2.17
			c0.32-0.03,0.58-0.06,0.79,0c0.51-6.34,0.95-12.72,1.32-19.08l3.21-0.22c0.09,0.44,0.17,0.86,0.25,1.25l0.68,0.75
			c0.03,1.53,0.07,3.05,0.11,4.58c0.08-3.53,0.11-7.04,0.14-10.52c0.03-2.85,0.05-5.7,0.1-8.55l3.24-0.04
			c0.15,3.7,0.44,7.45,0.72,11.09l1.07,0.02c0,0.24,0.01,0.47,0.02,0.71l3.13,0.15c0.03,2.22,0.11,4.47,0.22,6.71l1.16,0.04
			c0.53-2.59,0.91-4.18,1.22-5.16c0.11-3.68,0.26-7.36,0.45-11.03l1.31-0.04c0.34-6.28,0.8-12.56,1.4-18.78l1.23,0.01
			c0.05-1.66,0.09-3.32,0.11-4.99l3.23-0.12c0.47,5.69,0.77,11.46,0.97,17.17l1.33-0.03c0.4-5.82,0.92-11.52,1.66-17.22l1.31,0.06
			c0.25-4.23,0.41-8.46,0.47-12.67l3.24-0.01c0.04,1.97,0.09,3.94,0.15,5.9l0.34-0.01c0.12-3.15,0.19-6.88,0.23-9.03
			c0.03-1.73,0.06-3.09,0.09-3.71l3.23-0.06c0.21,2.54,0.4,5.1,0.56,7.66l1.64,0c0.33-3.7,0.61-7.39,0.86-11.05l1.2,0.02
			c0.06-1.12,0.11-2.25,0.15-3.37l3.06-0.28c0.16-2.5,0.34-4.99,0.53-7.47l3.23,0.09c0.04,1.91,0.1,3.82,0.16,5.74
			c1.14,0.1,1.46,0.88,1.74,7.85l1.41,0.02c0.06-2.27,0.12-4.53,0.18-6.8l3.24,0c0.06,1.98,0.12,3.97,0.18,5.95l1.17,0.11
			c-0.06,2.75,0.03,5.5,0.17,8.24c0.74-5.54,0.99-10.82,1.08-14.29l0.9-0.07c0.01-0.04,0.01-0.08,0.02-0.12l0.93,0.04
			c-0.04,0.01-0.08,0.01-0.12,0.02l0.25-0.02l0.09,0l0-0.01l1.15-0.09c0.01,0.05,0.02,0.1,0.03,0.15l0.9,0.03
			c0.31,4.82,0.75,9.66,1.31,14.49l3.18-0.01c0.12,1.72,0.24,3.43,0.35,5.15l0.99-0.02c0.03,0.58,0.07,1.16,0.1,1.74l2.59-0.08
			c0.37,3.95,0.64,7.92,0.83,11.89l2.22-0.36c0.16,0.45,0.31,0.87,0.44,1.25l1.02,0.97c0.14,7.8,0.29,15.59,0.45,23.39
			c0.35-2.86,0.77-6.42,1.25-11.57l3.23,0.05c0.2,3.16,0.36,6.35,0.5,9.55l2.63-0.3c0.82,5.99,1.45,12.26,1.9,18.9l1.71-0.02
			c0.1,1.64,0.19,3.3,0.26,4.96c0.33-6.25,0.81-12.5,1.46-18.67l3.23,0.14l0.03,1.94c0.09,4.99,0.18,10.05,0.39,15.12l3.15-0.23
			c0.87,5.34,1.52,12.37,2.07,19.76l1.09,0c0,0.06,0.01,0.12,0.01,0.18c0.09-2.34,0.21-4.68,0.33-7.01c0.2-3.95,0.4-7.89,0.47-11.85
			l3.24-0.08c0.06,0.86,0.11,1.72,0.16,2.59l2.17,0.01c0.09-1.43,0.17-2.86,0.27-4.29l2.47-0.07c0.13-2.78,0.22-5.59,0.23-8.36
			l3.24-0.04c0.02,0.62,0.03,1.17,0.05,1.66l0.84,0.01c0.05,1.04,0.11,2.08,0.19,3.12c0.2-0.94,0.4-2.14,0.62-4.09l3.22,0.04
			c0,0.03,0,0.05,0.01,0.07l0.63,0.02c0.05-1.47,0.11-3.16,0.17-5.12l3.03-0.01c0.13-2.09,0.24-4.3,0.36-6.54
			c0.47-8.89,0.97-18.08,2.02-24.35c0.12-4.61,0.27-9.45,0.43-14.28l3.24,0.02c0.05,2.78,0.21,5.56,0.37,8.35l2.28-0.18c0,0,0,0,0,0
			l0.01,0l0.43-0.03c0.01,0.02,0.01,0.04,0.02,0.05l2.72,0.13c0.04,0.28,0.08,0.56,0.12,0.84l1.25,0.15
			c0.34,5.64,0.58,11.34,0.73,17.06l0.62,0c0.13,2.27,0.26,4.54,0.4,6.81h0.02c0.16-6.3,0.59-12.61,1.29-18.83l0.69,0.06
			c0.06-1.41,0.13-2.81,0.2-4.22l3.23,0c0.06,1.25,0.12,3.58,0.19,6.34c0.09,3.9,0.24,10.1,0.48,14.08l1.58,0.06
			c0.01,0.26,0.02,0.52,0.03,0.78l2.22,0.1c0.03,1.16,0.02,3.07,0.02,5.36c0,4.06-0.01,11.11,0.22,15.71l2.45,0.06
			c0.16,1.18,0.52,3.68,0.77,5.34l0.59,0.76c0.31,5.6,0.55,11.29,0.72,16.99l0.96,0.04c0.17-1.44,0.34-2.88,0.47-4.32l1.13,0.04
			c0.27-5.76,0.46-11.51,0.66-17.15c0.14-4.21,0.28-8.43,0.46-12.64l1.26,0c0.03-0.57,0.06-1.14,0.09-1.71l3.24,0.1
			c-0.08,4.64,0.08,9.38,0.23,13.97c0.05,1.54,0.1,3.08,0.14,4.62l0.73,0.03c0.06-1.4,0.11-2.8,0.15-4.2l3.24-0.06l0.04,0.66
			c0.11-1.08,0.22-2.18,0.34-3.29l3.23,0.06c0,0.03,0,0.05,0.01,0.08l1.34,0.02c0.01,0.89,0.02,1.78,0.03,2.67l2.66,0.7
			c0.01,0.27,0.02,0.54,0.03,0.81l1.69,0.01c0.51-4,0.95-8.01,1.33-12l3.23,0.11c0.23,8.66,0.52,17.2,0.86,25.56l2.73-0.01
			c0.09,2.21,0.19,4.42,0.27,6.63l0.59-0.08c0.13,0.59,0.17,1.17,0.14,1.72c0.17,2.36,0.32,4.72,0.46,7.09h1.7
			c0.03,0.85,0.06,1.69,0.09,2.54l1.26,0.01c0.04,1.17,0.09,2.33,0.14,3.5c0.08-1.45,0.16-2.9,0.21-4.35l3.24,0.01
			c0.01,0.3,0.02,0.59,0.03,0.89l1.63-0.04c0.32-4.87,0.62-9.72,0.91-14.48l0.47-7.72l2.91,0.03c0.08-3.13,0.16-6.24,0.23-9.33
			l2.42,0.01c0.09-2.26,0.18-4.55,0.27-6.86l3.23-0.13c0.19,1.54,0.36,2.98,0.52,4.37l0.12-0.01c0.04-0.74,0.08-1.47,0.11-2.21
			c0.24-4.56,0.48-9.27,0.51-13.91l2.5-0.04c0.18-3.9,0.4-7.89,0.64-11.98l3.22-0.11c0.1,0.79,0.2,1.59,0.28,2.38
			c0.04-1.86,0.07-3.72,0.08-5.58l1.2-0.09c0.19-1.74,0.39-3.48,0.61-5.21l1.53,0.07c0.27-2.27,0.53-4.54,0.71-6.82l3.23,0.08
			c0.04,1.37-0.17,4.06-0.37,6.69l0.16,0.01c0.07-0.78,0.15-1.55,0.22-2.32c0.3-3.18,0.6-6.36,0.81-9.56l1.93,0.03
			c0.08-1.42,0.19-2.86,0.28-4.29c-5.99-5.56-12.41-10.79-19.27-15.6c-0.38,6.27-0.79,12.63-1.27,19.23l-1.75-0.04
			c-0.03,0.83-0.06,1.66-0.09,2.49c0.02,0.02,0.03,0.04,0.04,0.06l-5.23-0.25l-0.5,32.09c0,0,0,0,0,0l-0.1,6.48l-2.71,1.17
			c-0.13-0.12-0.26-0.2-0.37-0.25l0.48-41.43c-0.99-0.52-2.07-1.01-3.22-1.48l-0.99-1.29c-0.04-0.34-0.08-0.67-0.11-0.99l-3.05-0.08
			c0-0.22,0-0.42-0.01-0.59l-1.35-0.21c-0.03-1.14-0.09-2.28-0.16-3.42l-2.09,0.03C577.76,463.7,577.41,460.06,577.1,456.86z"/>
	</g>
</g>
</svg>
